<svg xmlns="http://www.w3.org/2000/svg" xmlns:xlink="http://www.w3.org/1999/xlink" width="86px" height="106px" viewBox="0 0 86 106"><title>Group</title><desc>Created with Sketch.</desc><g id="Page-1" stroke="none" stroke-width="1" fill="none" fill-rule="evenodd"><g id="Group" fill="#EC3C07"><path d="M61.2863,0.800724 C61.4472,1.69953 62.4686,2.13475 62.5253,3.20213 C62.5514,3.69789 62.8042,4.0994 62.4786,4.6419 C62.1223,5.23727 61.9568,5.94604 61.7093,6.60348 C61.6242,6.52992 61.5261,6.44487 61.4288,6.35981 C60.7538,6.89312 60.648,7.02108 60.176,8.23787 C59.0979,8.51602 57.9202,8.82022 56.5808,9.16579 C55.7816,8.62023 54.6575,8.48231 53.7373,7.86242 C53.5212,6.31767 51.7359,5.28018 52.3826,3.43353 C52.6691,3.1393 53.0071,2.79295 53.4178,2.37075 C53.6254,2.49335 53.8315,2.65043 54.0629,2.74775 C55.0637,3.16841 55.8828,2.67649 56.5954,2.09644 C57.344,1.48728 57.9823,0.740957 58.7225,0 L60.1936,0 C59.8887,0.472005 59.6067,0.90953 59.3048,1.37617 C60.3101,2.07805 60.4166,0.721801 61.2863,0.800724 Z" id="Path"></path><path d="M16.8825,31.5223 C17.1714,32.992 16.0258,34.4608 14.0175,35.424 C13.9049,35.3252 13.7616,35.1987 13.629,35.0823 C13.4574,35.2286 13.3057,35.3589 13.1616,35.4815 C12.308,35.1382 11.4774,34.8041 10.4552,34.3934 C10.2399,34.0149 9.92116,33.4555 9.56946,32.8387 C9.85603,32.5759 10.0675,32.2855 10.3526,32.1491 C10.5748,32.0434 10.8874,32.1284 11.1839,32.1284 C11.3157,31.4809 11.4437,30.8557 11.5709,30.235 C11.0828,29.3822 10.5395,28.4344 9.96177,27.4252 C10.4139,27.0053 10.8062,26.6398 11.197,26.2766 L12.2459,26.2766 C13.9447,27.5233 15.9714,28.4397 16.8825,31.5223 Z" id="Path"></path><path d="M44.491,78.6608 C44.8374,78.1788 45.0818,77.8371 45.468,77.2992 C45.8251,77.1681 46.4281,76.9475 47.1246,76.6915 C47.2227,77.2172 47.294,77.598 47.3959,78.1405 C47.6947,78.0501 47.9752,77.965 48.2556,77.88 C49.1383,77.6309 48.6265,78.9129 49.4915,79.0117 C49.8716,79.0546 50.1612,79.8921 50.6034,80.5289 C50.8187,81.4407 50.5405,82.4207 49.8256,83.3257 C49.9367,83.4513 50.0647,83.5954 50.2118,83.7616 C50.0157,83.9371 49.8126,84.1187 49.5827,84.3248 C49.4693,84.2252 49.2241,83.9793 49.2042,83.9969 C48.1138,84.9317 47.2595,83.9402 46.3515,83.6268 C45.5684,83.3563 44.8336,82.9425 44.0987,82.6031 C43.6673,81.7388 43.2359,80.876 42.7409,79.8852 C42.6804,78.0784 42.8114,77.7528 44.1853,76.7352 C44.2857,77.3666 44.373,77.9152 44.491,78.6608 Z" id="Path"></path><path d="M76.4287,74.5343 C75.6219,74.2324 75.0227,74.0086 74.4464,73.7933 L74.4464,73.329 C73.5208,73.0309 72.6021,72.7359 71.632,72.4241 C71.4037,71.2073 71.2029,70.1322 71.0328,69.2242 C71.7355,68.3867 72.7439,68.3277 73.012,67.291 C73.1178,66.8788 73.9308,66.6481 74.648,66.1907 C74.789,66.5362 74.9238,66.8665 75.0878,67.2672 C75.0755,67.2979 74.9529,67.6205 74.8303,67.9431 C74.9322,68.0059 75.0349,68.0687 75.1368,68.1316 C75.3445,67.7944 75.5529,67.4573 75.8548,66.9676 C76.6027,67.9661 77.48,68.6894 77.7106,69.5798 C77.9214,70.3904 78.4646,71.1743 78.106,72.254 C77.7482,73.3305 76.3437,73.2125 76.4287,74.5343 Z" id="Path"></path><path d="M29.9351,51.7543 L27.8134,51.7543 C27.3445,52.414 28.1544,53.4669 26.4449,53.8607 C24.953,53.804 23.2857,52.9987 22.2091,51.1367 L22.2091,49.4487 C22.793,48.8648 23.1753,48.4824 23.6228,48.0357 C23.7033,48.0986 23.9025,48.2549 24.1033,48.4119 C24.7032,47.6871 25.5047,48.1315 26.0373,48.0327 C27.7161,48.8732 29.3022,49.6119 29.9351,51.7543 Z" id="Path"></path><path d="M17.8182,86.4612 L18.7047,86.4612 C18.7798,86.6857 18.8603,86.9263 18.9883,87.3086 C19.8043,87.1975 20.9077,87.2397 21.2655,87.9308 C21.7046,88.7791 22.8248,88.7162 23.0356,89.9713 L23.0356,93.3742 C21.6563,94.2562 20.7736,92.457 19.5606,92.7467 C18.6963,92.1988 18.3523,91.2303 17.5102,90.6686 C17.055,90.3652 16.7079,89.6572 16.7654,88.9338 C16.8045,88.4549 16.7731,87.9707 16.7731,87.5063 L17.8182,86.4612 Z" id="Path"></path><path d="M0.912993,63.896 C1.24784,62.6463 -0.47927,62.129 0.132191,60.8716 C0.617223,60.3858 1.14057,59.861 1.82865,59.1721 C2.85772,59.6878 4.05459,60.179 5.13346,60.8579 C6.24144,61.5551 6.62227,62.8294 7.24752,63.9412 C7.04523,64.4615 6.8598,64.9404 6.64908,65.4829 C4.57563,65.9166 2.87687,64.9021 0.912993,63.896 Z" id="Path"></path><path d="M66.7808,99.09 C65.9823,98.0372 64.8743,98.0088 63.8116,97.6633 C63.5396,97.2686 63.2101,96.7905 62.7817,96.1691 L62.7817,92.8727 C63.0492,92.6719 63.4346,92.3838 64.092,91.8904 C64.561,91.9854 65.3839,92.1494 66.0988,92.2934 C67.8795,93.1984 67.8941,95.0366 68.6665,96.6166 C68.0734,97.3943 67.439,98.2272 66.7808,99.09 Z" id="Path"></path><path d="M30.2209,72.1454 C30.4454,72.2028 30.6339,72.2511 30.9029,72.3193 L30.9029,74.3169 C30.5244,74.828 30.201,75.2647 29.9665,75.5812 C28.7268,75.2448 27.664,74.9567 26.4786,74.6356 C26.4334,74.3759 26.3675,73.9928 26.2978,73.5897 C26.1032,73.5468 25.9139,73.5047 25.681,73.4541 C25.071,71.8519 26.5958,70.8512 26.8479,69.4903 C27.7651,69.5348 28.0165,68.0122 29.208,68.6023 C29.234,68.6888 29.2892,68.8743 29.3965,69.2344 C29.6608,69.2735 30.0317,69.3279 30.4156,69.3846 L31.3588,70.3278 C30.9879,70.9209 30.6056,71.5316 30.2209,72.1454 Z" id="Path"></path><path d="M65.6695,27.9294 C65.0504,27.5585 64.5684,27.2505 64.0688,26.9747 C62.7754,26.2613 62.7777,26.2651 62.3264,24.8322 C62.2114,24.4683 62.0842,24.1005 61.9034,23.7664 C61.6574,23.312 61.3149,22.9074 61.0881,22.4454 C60.892,22.0477 60.7993,21.5995 60.6514,21.1443 C61.0452,20.6325 61.4613,20.1275 62.0046,19.9045 C64.7707,21.5811 64.7569,21.0861 66.5154,25.8452 C66.2311,26.5456 65.9446,27.2505 65.6695,27.9294 Z" id="Path"></path><path d="M81.9627,25.8667 L81.9627,27.0184 C82.4692,27.0674 82.9795,27.1172 83.568,27.1747 L83.568,28.1179 C85.571,28.8275 85.3311,30.4343 85.2982,32.0464 C82.8929,32.4732 81.4294,31.0105 80.0394,29.5676 C79.8379,28.7401 79.6533,27.9823 79.4333,27.0804 C79.9038,26.187 80.7306,25.8253 81.9627,25.8667 Z" id="Path"></path><path d="M36.4242,28.8805 C36.9567,28.5602 37.4034,28.2912 37.8571,28.0184 C39.1221,29.1088 40.9282,29.5647 41.6806,30.9309 C41.8967,31.6029 42.0346,32.0305 42.2269,32.6281 C42.0898,32.9032 41.863,33.3576 41.709,33.6664 C41.3465,33.8342 41.1151,33.9415 40.8232,34.0771 C40.2286,33.8266 39.5466,33.54 38.8647,33.2534 C37.3544,32.2941 36.3261,30.9708 36.4242,28.8805 Z" id="Path"></path><path d="M33.5289,104.713 C33.096,104.079 32.6523,103.43 32.2439,102.832 C32.3466,102.47 32.4316,102.17 32.5167,101.869 C32.437,101.836 32.3565,101.802 32.2768,101.768 C32.8883,100.957 33.499,100.145 34.0722,99.3845 C36.3525,99.8879 36.8559,101.77 37.5149,103.353 C37.2122,103.953 36.8919,104.588 36.6138,105.14 C35.6836,105.011 34.7043,104.875 33.5289,104.713 Z" id="Path"></path><path d="M26.6628,13.2461 C27.144,12.7741 27.4888,12.4362 27.8704,12.0615 C28.8865,12.1198 29.8205,12.0002 30.6971,13.1182 C31.7185,14.42 32.1882,14.5373 32.4755,15.4338 C32.4939,15.4928 32.569,15.5326 32.6181,15.5816 C32.0878,16.0644 32.2342,17.2429 30.8404,17.049 C30.3753,16.5808 29.6588,16.2843 28.7455,16.1632 C28.0214,16.0667 27.3969,15.2315 26.6605,14.6744 C26.8766,14.3679 27.0245,14.158 27.1793,13.9381 C27.0505,13.7656 26.9004,13.5641 26.6628,13.2461 Z" id="Path"></path></g></g></svg>