<svg id="Layer_1" data-name="Layer 1" xmlns="http://www.w3.org/2000/svg" viewBox="0 0 442.51 172.8"><defs><style>.cls-1{fill:#e73846;}.cls-2{fill:#909a9b;}</style></defs><path class="cls-1" d="M167.6,75.9c0-2,1.61-3.53,4.05-3.53s4.06,1.43,4.06,3.43-1.61,3.64-4.06,3.64S167.6,77.9,167.6,75.9Zm.73,5.63H175v19h-6.65Z" transform="translate(0)"/><path class="cls-1" d="M199.19,89.65v10.84h-6.65V90.73c0-2.73-1.18-3.88-3.11-3.88-2.13,0-3.77,1.33-3.77,4.48v9.16H179v-19h6.33V83.6a8.12,8.12,0,0,1,6-2.38C195.8,81.22,199.19,83.77,199.19,89.65Z" transform="translate(0)"/><path class="cls-1" d="M202,98.29l2.27-5.11a15.49,15.49,0,0,0,8.08,2.41c2.87,0,4-.8,4-2,0-3.88-13.92-1-13.92-10.14,0-4.37,3.57-7.94,10.84-7.94a18.31,18.31,0,0,1,8.88,2.13L220,82.79a14.44,14.44,0,0,0-6.78-1.89c-2.91,0-4,1-4,2.21,0,3.74,13.89.94,13.89,10,0,4.27-3.57,7.91-10.84,7.91C208.24,101,204.26,99.89,202,98.29Z" transform="translate(0)"/><path class="cls-1" d="M245.8,81.53v19h-6.33v-2a7.49,7.49,0,0,1-5.63,2.34c-4.65,0-8.05-2.65-8.05-8.67V81.53h6.65v9.52c0,2.93,1.15,4.09,3.15,4.09s3.56-1.3,3.56-4.48V81.53Z" transform="translate(0)"/><path class="cls-1" d="M271.07,91c0,6-4.16,9.79-9.3,9.79a7,7,0,0,1-5.28-2v8.46h-6.65V81.53h6.33v1.89c1.26-1.5,3.11-2.2,5.6-2.2C266.91,81.22,271.07,85,271.07,91Zm-6.72,0c0-2.87-1.74-4.51-4-4.51s-4,1.64-4,4.51,1.75,4.51,4,4.51S264.35,93.88,264.35,91Z" transform="translate(0)"/><path class="cls-1" d="M295.25,91c0,6-4.17,9.79-9.31,9.79a7.07,7.07,0,0,1-5.28-2v8.46H274V81.53h6.33v1.89c1.26-1.5,3.11-2.2,5.59-2.2C291.08,81.22,295.25,85,295.25,91Zm-6.72,0c0-2.87-1.75-4.51-4-4.51s-4,1.64-4,4.51,1.74,4.51,4,4.51S288.53,93.88,288.53,91Z" transform="translate(0)"/><path class="cls-1" d="M298.24,74.54h6.64v25.95h-6.64Z" transform="translate(0)"/><path class="cls-1" d="M329,81.53l-8.18,19.73c-2,4.9-4.79,6.33-8.53,6.33a9.2,9.2,0,0,1-5.49-1.72l2.3-4.65a4.52,4.52,0,0,0,2.94,1.12,2.56,2.56,0,0,0,2.59-1.61l-8.11-19.2h6.82l4.65,11.58,4.68-11.58Z" transform="translate(0)"/><path class="cls-2" d="M353,76v24.48h-4.55V90H335.75v10.49h-4.54V76h4.54v10.1h12.66V76Z" transform="translate(0)"/><path class="cls-2" d="M376.24,92.55H361.59c.52,2.73,2.8,4.48,6.05,4.48a6.7,6.7,0,0,0,5.07-2l2.34,2.69a9.47,9.47,0,0,1-7.51,3c-6.27,0-10.32-4-10.32-9.58a9.29,9.29,0,0,1,9.65-9.55c5.46,0,9.44,3.82,9.44,9.66C376.31,91.61,376.28,92.13,376.24,92.55Zm-14.69-2.9h10.6a5.08,5.08,0,0,0-5.28-4.55A5.17,5.17,0,0,0,361.55,89.65Z" transform="translate(0)"/><path class="cls-2" d="M395.59,89.54v10.95h-4.13V98.22c-1,1.6-3.07,2.51-5.87,2.51-4.27,0-7-2.34-7-5.59s2.1-5.56,7.76-5.56h4.83V89.3c0-2.56-1.54-4.06-4.65-4.06a9.28,9.28,0,0,0-5.67,1.85l-1.71-3.18a13.1,13.1,0,0,1,7.9-2.31C392.48,81.6,395.59,84.16,395.59,89.54Zm-4.37,5.11V92.48h-4.51c-3,0-3.78,1.12-3.78,2.48,0,1.58,1.33,2.59,3.57,2.59A4.77,4.77,0,0,0,391.22,94.65Z" transform="translate(0)"/><path class="cls-2" d="M400.49,74.54h4.37v25.95h-4.37Z" transform="translate(0)"/><path class="cls-2" d="M421.28,99.47a6.85,6.85,0,0,1-4.19,1.26c-4.09,0-6.44-2.16-6.44-6.29v-9h-3.08V82h3.08V77.69H415V82h5v3.5h-5v8.88c0,1.82.91,2.8,2.59,2.8a3.89,3.89,0,0,0,2.45-.77Z" transform="translate(0)"/><path class="cls-2" d="M442.51,89.79v10.7h-4.37V90.35c0-3.33-1.64-4.93-4.44-4.93-3.11,0-5.21,1.88-5.21,5.63v9.44h-4.37V74.54h4.37V84a8.32,8.32,0,0,1,6.22-2.38C439.19,81.6,442.51,84.16,442.51,89.79Z" transform="translate(0)"/><path class="cls-2" d="M70.55,6.18S83.13-7.23,97.19,5.46s5.18,26.33-7.6,32.74c-9.08,4.56-22.69,5.3-27.45-5.64S64.94,12.33,70.55,6.18Z" transform="translate(0)"/><path class="cls-1" d="M92.47,74.92c-6.74,2.15-38.7,13.63-48.22,40.88a.67.67,0,0,0,.8.84c6.4-1.6,37.38-10.75,48.25-40.89A.66.66,0,0,0,92.47,74.92Z" transform="translate(0)"/><path class="cls-1" d="M90.31,65.9a10.18,10.18,0,0,1,1.74-8.05,23.89,23.89,0,0,1,7.38-7.19c6.15-3.85,14.74-.66,17,6.3a9.15,9.15,0,0,1-.53,6.55c-2.25,5.34-5.66,8.21-11.14,10.08-2.47.77-7.68.56-9.49-.94C92.56,70.58,90.91,68.54,90.31,65.9Z" transform="translate(0)"/><path class="cls-2" d="M57.62,39.37a.82.82,0,0,1,1.13,1.14C52.51,51,46.44,61.3,41,71.74c-1.5,2.9-5.19,9.48-6.61,12.37S28.12,98,26.93,105.33c-7.07,43.72,37.38,37.47,44.9,20.85C74,121.46,80.36,109,84.59,102.75c3.69-5.43,6.78-10.86,18.54-15.16a28.12,28.12,0,0,1,32.55,9.9c8.6,11.65,8.51,26.52,8.51,26.52.28,8.63-.73,21.45-2.63,29.24-.94,4.87-5.18,16.49-6.19,19a.77.77,0,0,1-1.49-.33c0-2.68-.43-32.46-3.81-45.52-6.75-23-23-18.73-27.55-4.37C90.32,160.74,75.38,169.09,58,172.15s-35.23-5.09-43.6-12.82A48.85,48.85,0,0,1,2.57,109.24C6.37,97.62,13.2,85.79,17.07,80c2.69-4,9.53-12.48,12.05-15.28C35.15,58,53.25,42.51,57.62,39.37Z" transform="translate(0)"/></svg>
