<svg xmlns="http://www.w3.org/2000/svg" xmlns:xlink="http://www.w3.org/1999/xlink" width="315px" height="268px" viewBox="0 0 315 268"><title>password_isometric-2</title><desc>Created with Sketch.</desc><defs><linearGradient x1="29.5471676%" y1="89.3650482%" x2="69.4582826%" y2="14.4776882%" id="linearGradient-1"><stop stop-color="#FFFFFF" stop-opacity="0" offset="0%"></stop><stop stop-color="#5FBD4C" offset="100%"></stop></linearGradient></defs><g id="Page-1" stroke="none" stroke-width="1" fill="none" fill-rule="evenodd"><g id="password_isometric-2" fill-rule="nonzero"><path d="M311.54,154.84 L190.54,84.46 C188.770226,83.4382204 186.589774,83.4382204 184.82,84.46 L3.83,188 C2.0540296,189.020109 0.958999824,190.911905 0.958999824,192.96 C0.958999824,195.008095 2.0540296,196.899891 3.83,197.92 L119.56,264.74 C125.339612,268.076861 132.460388,268.076861 138.24,264.74 L311.54,164.74 C313.306201,163.717266 314.393661,161.830943 314.393661,159.79 C314.393661,157.749057 313.306201,155.862734 311.54,154.84 Z" id="Shape" fill="#4EA43D"></path><polygon id="Shape" fill="url(#linearGradient-1)" opacity="0.504051339" style="mix-blend-mode: multiply;" points="234.47 182.88 131.13 241.05 62 199.49 165.85 139.31"></polygon><path d="M174.73,1.48 C188.43,9.59 222.32,29.66 232.45,35.54 C234.209265,36.5604242 235.285805,38.4462767 235.27,40.48 L235.27,179.64 C235.48,182.48 232.27,185.1 229.66,183.64 L172.66,151.2 C170.37,149.89 168.91,148.04 168.91,145.39 L168.91,4.8 C168.905604,3.41302541 169.647575,2.13089153 170.852321,1.44364785 C172.057068,0.756404183 173.53835,0.770290782 174.73,1.48 Z" id="Shape" fill="#68E1FD"></path><path d="M169.29,3.13 L187.43,13.6 L187.43,17.47 C187.430288,18.1342256 187.784764,18.7478872 188.36,19.08 L202.23,27.08 C202.612547,27.2985068 203.082744,27.2957307 203.462685,27.0727222 C203.842625,26.8497136 204.07428,26.4405329 204.07,26 L204.07,23.21 L230.07,38.48 C230.575832,38.7744039 230.887854,39.3147353 230.89,39.9 L230.89,179 C230.903229,179.408602 230.692776,179.791951 230.34094,180.000138 C229.989104,180.208325 229.551786,180.208272 229.2,180 L168.87,145 C168.668057,147.19849 169.689778,149.330277 171.53,150.55 C174.66,152.55 229.62,183.64 229.62,183.64 C229.62,183.64 233.97,185.64 235.23,180.42 L235.23,40.49 C235.233488,38.6542375 234.355665,36.9283486 232.87,35.85 C230.4,34 174.73,1.48 174.73,1.48 C173.794349,0.954976996 172.685055,0.83422281 171.658353,1.14563052 C170.631651,1.45703823 169.776344,2.17367339 169.29,3.13 Z" id="Shape" fill="#124577"></path><path d="M75,178.62 C76.42,179.94 79.33,175.27 81.1,175.9 C83.8290662,176.8553 86.6819048,177.411048 89.57,177.55 C92.2497821,177.854323 94.9547406,177.259866 97.26,175.86 C99.3625212,174.304895 100.560536,171.811122 100.460489,169.197899 C100.360442,166.584675 98.9752664,164.189799 96.76,162.8 L99.9,161.24 L110.54,168.64 C110.54,168.64 109.66,184.21 80.9,182.03 L47.43,201.08 L38.88,194.62 L75,178.62 Z" id="Shape" style="mix-blend-mode: multiply;"></path><path d="M71.5,168.64 C71.5,162.64 78.72,157.99 87.94,157.99 C97.16,157.99 104.38,162.67 104.38,168.64 C104.38,174.61 97.16,179.29 87.94,179.29 C78.72,179.29 71.5,174.61 71.5,168.64 Z M76.21,168.64 C76.21,171.45 81.03,174.58 87.94,174.58 C94.85,174.58 99.67,171.45 99.67,168.64 C99.67,165.83 94.85,162.7 87.94,162.7 C81.03,162.7 76.21,165.83 76.21,168.64 Z" id="Shape" fill="#FFFFFF"></path><path d="M76.61,173.08 C76.07,172.59 53.49,186.08 53.49,186.08 L38.88,194.57 L42.06,197.03 C42.871579,197.657021 43.9814011,197.732063 44.87,197.22 L80,176.93 L76.61,173.08 Z" id="Shape" fill="#FFFFFF"></path><path d="M39.25,188.78 L45.18,192.72 L42.06,197.08 L35.7,193.08 C35.591138,190.943589 37.1316253,189.077646 39.25,188.78 Z" id="Shape" fill="#FFFFFF"></path><path d="M46.3,184.3 C47.1292997,183.591504 48.2168461,183.261615 49.3,183.39 L55,187.14 L51.88,191.5 L44.88,187.09 C44.9830528,186.013766 45.4905244,185.016692 46.3,184.3 Z" id="Shape" fill="#FFFFFF"></path><path d="M94.07,41 L86.07,36.51 C86.07,36.51 78.55,44.03 58.38,34.51 C58.38,34.51 46.64,57.51 31.14,68.67 C31.14,68.67 30.23,110.61 53.33,118.38" id="Shape" fill="#68E1FD"></path><path d="M94.07,41 L86.07,36.51 C86.07,36.51 78.55,44.03 58.38,34.51 C58.38,34.51 46.64,57.51 31.14,68.67 C31.14,68.67 30.23,110.61 53.33,118.38" id="Shape" fill="#124577" opacity="0.51"></path><path d="M38.07,73 C49.4400756,63.4484283 58.7110461,51.6477732 65.3,38.34 C73.7731756,44.1741895 84.6707761,45.1817535 94.07,41 C94.07,41 91.5,76.39 83.36,93.75 C75.22,111.11 73.61,113.87 66.07,122.17 C66.07,122.17 56.59,124.25 48.63,113.49 C37.5,98.51 38.07,73 38.07,73 Z" id="Shape" fill="#68E1FD"></path><path d="M64,90.17 C62.2933333,87.1633333 60.6533333,84.1266667 59.08,81.06 C58.6024061,80.0952553 57.6445232,79.4603553 56.5699421,79.3962937 C55.495361,79.3322322 54.4688311,79.8488306 53.88,80.75 L53.88,80.81 C53.2450803,81.7275866 53.17189,82.9217438 53.69,83.91 C55.32,87.06 56.99,90.18 58.69,93.27 C60.66,96.71 66,93.62 64,90.17 Z" id="Shape" fill="#FFFFFF"></path><path d="M58.93,90.25 C65.2345227,80.4378474 70.9997345,70.2894724 76.2,59.85 C77.96,56.31 83.26,59.42 81.5,62.95 C76.299682,73.3894444 70.5344719,83.5378167 64.23,93.35 C62.11,96.66 56.79,93.59 58.93,90.25 Z" id="Shape" fill="#FFFFFF"></path><path d="M207.68,102.17 C207.68,102.17 214.36,97.83 214.42,97.78 C214.48,97.73 209.97,94.29 209.97,94.29 L207.33,99.24" id="Shape" fill="#082746"></path><polyline id="Shape" fill="#082746" points="181.76 49.84 187.72 45.95 189.19 53.82 183.16 52.59"></polyline><path d="M190,45.76 C189.351146,45.3851519 188.552606,45.3806884 187.899602,45.7482597 C187.246598,46.115831 186.83615,46.800826 186.82,47.55 L186.16,81.14 C186.160185,82.1992019 186.718902,83.1798071 187.63,83.72 L211.26,97.81 C212.188298,98.3701928 213.346628,98.3859097 214.289783,97.8511097 C215.232938,97.3163097 215.814139,96.314221 215.81,95.23 L215.81,62.38 C215.813001,61.2806382 215.214441,60.2676916 214.25,59.74 L190,45.76 Z" id="Shape" fill="#082746"></path><path d="M183.67,49.94 C183.021146,49.5651519 182.222606,49.5606884 181.569602,49.9282597 C180.916598,50.295831 180.50615,50.980826 180.49,51.73 L179.83,85.32 C179.830185,86.3792019 180.388902,87.3598071 181.3,87.9 L204.94,102 C205.868298,102.560193 207.026628,102.57591 207.969783,102.04111 C208.912938,101.50631 209.494139,100.504221 209.49,99.42 L209.49,66.57 C209.493001,65.4706382 208.894441,64.4576916 207.93,63.93 L183.67,49.94 Z" id="Shape" fill="#124577"></path><ellipse id="Oval" fill="#68E1FD" transform="translate(193.613285, 70.171349) rotate(-4.560000) translate(-193.613285, -70.171349) " cx="193.613285" cy="70.1713486" rx="5.09" ry="8.08"></ellipse><rect id="Rectangle-path" fill="#68E1FD" x="190.98" y="71.31" width="3.84" height="15.95" rx="1.42"></rect><ellipse id="Oval" fill="#FFFFFF" cx="206.63" cy="59.32" rx="2.44" ry="1.47"></ellipse><path d="M199.23,33.33 C187.8,30.58 187.89,43.81 187.89,43.81 L187.89,48.54 C187.805697,49.2323589 187.87048,49.9347413 188.08,50.6 C188.644889,51.1696336 189.429672,51.4652963 190.23,51.41 C190.91,51.41 191.89,51.3 192.23,50.68 C192.416478,50.1028605 192.4745,49.4919251 192.4,48.89 C192.33,47.79 192.31,46.68 192.35,45.58 C192.42,43.2 192.63,40.3 194.16,38.35 C195.190318,37.0881231 196.929159,36.656467 198.43,37.29 C204.3,39.24 204.14,46.29 204.14,46.29 L204.14,59.29 L209.02,59.29 L209.02,45.95 C209.02,45.95 208.15,35.47 199.23,33.33 Z" id="Shape" fill="#FFFFFF"></path><path d="M166.11,103.16 C166.212306,102.995104 166.264424,102.804004 166.26,102.61 C166.273399,100.683877 165.483394,98.8393242 164.08,97.52 C163.529317,97.021488 162.77815,96.8073606 162.047385,96.9405832 C161.31662,97.0738058 160.68934,97.5392319 160.35,98.2 C158.83,101.31 162.3,104.44 165.08,104.81 C165.85,104.91 166.16,104.26 166.08,103.65 C166.128206,103.491265 166.138481,103.323431 166.11,103.16 Z" id="Shape" fill="#FBB5AD"></path><polygon id="Shape" fill="#382624" points="163.35 157 157.76 153.89 162.41 166.62"></polygon><path d="M214.21,82.69 C214.170553,82.5913858 214.120243,82.4974732 214.06,82.41 C214.522111,81.9746353 214.761271,81.3528194 214.71,80.72 C214.660228,80.3218218 214.450905,79.960921 214.13,79.72 C214.427721,79.3749145 214.476766,78.8800751 214.252578,78.4832613 C214.028389,78.0864474 213.579227,77.8730809 213.13,77.95 C211.56,78.26 210.52,80.33 209.67,81.55 C209.05,82.45 208.46,83.38 207.91,84.33 C207.81,82.97 207.63,81.61 207.52,80.33 C207.41,79.05 205.43,78.97 205.44,80.33 C205.551883,82.3739074 205.339247,84.4226349 204.81,86.4 C204.604422,86.5039702 204.418352,86.6426769 204.26,86.81 C198.418284,92.9528715 191.098273,97.4943083 183,100 C182.229345,100.332313 181.748132,101.110419 181.795057,101.948357 C181.841981,102.786294 182.407061,103.505808 183.21,103.75 C183.266115,104.552905 183.817054,105.235591 184.59,105.46 C184.704542,106.062475 185.067552,106.58884 185.59,106.91 L184.23,107.51 C182,108.44 182.98,112.13 185.23,111.18 C193.731949,107.642487 201.200443,102.011015 206.94,94.81 C207.6,94.18 208.25,93.55 208.94,92.89 C209.94,91.89 214.79,87.01 213.59,84.89 C213.95,84.17 214.57,83.62 214.21,82.69 Z" id="Shape" fill="#FBB5AD"></path><path d="M180.65,60 C178.37,60.91 176.65,65.81 176.81,66.84 L178.6,66 L178.92,65.65 C179.234629,63.6961945 179.816762,61.7950101 180.65,60 Z" id="Shape" fill="#FBB5AD"></path><path d="M181,64 C180.878317,63.9145937 180.743081,63.8503566 180.6,63.81 L180.45,63.68 C179.56,62.99 178.19,63.88 177.39,64.33 C176.359355,64.8754936 175.387572,65.5255833 174.49,66.27 C174.078979,66.8282638 173.78633,67.4646054 173.63,68.14 C173.3,68.95 172.95,69.76 172.57,70.55 C171.783204,72.2065666 170.894846,73.812958 169.91,75.36 C167.982074,78.3760042 165.706475,81.1550538 163.13,83.64 C161.93,84.8 163.77,86.64 164.96,85.46 L165.82,84.61 C166.187106,84.8517585 166.662894,84.8517585 167.03,84.61 C167.242305,84.4660185 167.442927,84.3055212 167.63,84.13 L167.91,83.9 C168.061698,84.3050906 168.40915,84.605114 168.832022,84.696163 C169.254894,84.787212 169.695031,84.6567651 170,84.35 L170.88,83.44 C171.159212,83.3335067 171.385446,83.1216371 171.51,82.85 C171.51,82.79 171.64,84.61 171.68,84.56 C173.09,83.07 174.75,78.97 176.15,76.56 C176.141928,76.4429982 176.173645,76.3267033 176.24,76.23 C177.34,74.48 177.18,73.43 177.32,71.41 C177.317461,70.2496201 177.421228,69.0914473 177.63,67.95 L179.93,66.18 C180.48,65.76 181.08,65.12 180.93,64.49 C180.983789,64.3324857 181.007533,64.1662745 181,64 Z" id="Shape" fill="#FBB5AD"></path><path d="M189.49,96.38 C181.33,98.78 179.94,97.86 176.07,97.74 C172.2,97.62 168.07,92.2 168.07,92.2 C168.07,92.2 167.07,80.1 159.89,89.57 C154.51,96.64 152.45,117.11 151.75,127.02 C154.43,129.15 157.98,129.95 161.33,130.45 C163.54102,130.818609 165.778468,131.005899 168.02,131.01 C169.39906,130.998923 170.760922,130.702718 172.02,130.14 L175.84,112.39 C185.6,113.18 193.11,107.39 193.11,107.39 L189.49,96.38 Z" id="Shape" fill="#FFC60B"></path><path d="M172,81.85 C172,81.85 177.25,91.92 172.07,94.72 C166.89,97.52 162.82,92.86 162.38,91.65 C161.94,90.44 162,81.11 172,81.85 Z" id="Shape" fill="#FBB5AD"></path><path d="M172.37,80.34 C169.7,78.42 166.46,78.34 163.37,79.07 C160.717776,79.546881 158.275042,80.8240819 156.37,82.73 C155.700416,82.2731696 154.919214,82.0070079 154.11,81.96 C152.102337,81.8117883 150.228137,82.9750849 149.47,84.84 C148.8291,86.5922004 149.484671,88.5547641 151.05,89.57 C152.233948,90.187853 153.61386,90.3136261 154.89,89.92 L154.89,90.16 C155.06,92.06 153.27,93.02 152.57,94.63 C152.223972,95.3657058 152.125729,96.1937503 152.29,96.99 C152.47,97.79 153.29,98.64 153.29,99.44 C153.154071,100.066125 152.861628,100.64757 152.44,101.13 C152.068297,101.678713 151.762839,102.269488 151.53,102.89 C155.3,104.89 160.02,104.89 164.12,104.07 C168.47,103.17 172.94,101.14 175.88,97.72 C175.698563,97.3038273 175.429037,96.9319489 175.09,96.63 C174.385016,96.1562284 173.630576,95.7605669 172.84,95.45 C171.72,94.8 172.84,92.85 172.84,91.8 C172.77,89.99 171.45,89.24 169.96,88.62 C168.88,88.17 168.83,87.51 168.82,86.4 C168.722667,85.5261545 168.904711,84.6439393 169.34,83.88 C169.667117,83.9263357 170.000081,83.8554923 170.28,83.68 C170.840797,83.3419122 171.442281,83.0764529 172.07,82.89 C172.718806,82.6545169 173.060761,81.9439619 172.84,81.29 C172.877836,80.9095209 172.695402,80.5407719 172.37,80.34 Z" id="Shape" fill="#56403D"></path><path d="M168.39,84.36 C170.094162,83.9965588 171.744409,83.4151074 173.3,82.63 C173.3,82.46 173.8,76.2 162.68,78.37 C151.56,80.54 156.83,93.85 156.83,93.85" id="Shape" fill="#56403D"></path><path d="M156.25,222.84 C155.25,222.49 153.74,222.22 153.02,221.31 C152.3,220.4 152.38,218.93 152.35,217.82 C152.32,216.71 152.35,215.57 152.35,214.45 C152.224428,214.349784 152.147946,214.200463 152.14,214.04 C152.077685,213.124392 152.077685,212.205608 152.14,211.29 L147.52,210.84 C147.52,210.84 145.47,218.74 145.6,219.64 C145.73,220.54 150.13,226.54 152.36,226.95 C154.59,227.36 160.8,225.41 161.36,224.55 L161.36,224.47 C159.65,224 157.94,223.43 156.25,222.84 Z" id="Shape" fill="#FBB5AD"></path><path d="M188.18,206.38 C186.66,206.08 180.35,207.1 180.35,207.1 C180.35,207.1 179.46,201.95 179.59,201.7 L173.02,202.16 C173.02,202.16 172.19,211.72 172.19,212.98 C172.19,215.3 175.06,215.98 175.69,215.98 C176.140941,215.827999 176.58182,215.647639 177.01,215.44 C176.77162,214.247877 176.647724,213.035699 176.64,211.82 C176.64,211.26 176.79,210.87 177.32,210.67 C178.32,210.3 180.09,210.83 181.08,211.02 C182.26,211.24 183.42,211.52 184.59,211.73 C187.18,210.36 189.36,209.06 189.59,208.52 C190,207.14 190.52,206.83 188.18,206.38 Z" id="Shape" fill="#FBB5AD"></path><path d="M190.38,206.78 L190.22,206.6 C189.72,206.11 188.4,206.16 187.78,206.14 C185.271998,206.171526 182.777092,206.507315 180.35,207.14 C180.35,207.14 186.35,206.33 186.54,207.4 C186.738457,208.268731 186.516148,209.180197 185.94,209.86 C183.45,212.07 179.57,209.63 177.15,208.59 L172.65,206.65 L172.36,210.31 C172.36,210.31 172.05,214.83 172.36,215.31 C172.67,215.79 175.36,217.23 175.9,216.94 C176.44,216.65 178.22,215.61 178.22,215.61 L177.87,211.19 C177.87,211.19 181.59,212.8 183.34,212.34 C184.65,212 191.93,208.86 190.38,206.78 Z" id="Shape" fill="#56403D"></path><path d="M169.19,204.74 C175.03,205.85 181.19,204.83 185.61,200.85 C185.71,191.12 186.61,182.34 186.32,172.62 C185.86,156.75 183.55,141.17 172.41,128.79 L152.13,125.68 C143.9,141.33 142.22,212.95 142.22,212.95 C142.22,212.95 152.47,219.57 160.41,216.38 L163.41,156.7 C163.41,156.7 168.78,163.06 169.76,166.61 C170.51,169.18 169.06,192.75 169.19,204.74 Z" id="Shape" fill="#EB6F24"></path><path d="M149.53,219.74 C149.53,219.74 151.95,227.29 152.82,227.74 C153.69,228.19 162.98,225.27 161.6,223.5 C160.71,222.37 155.11,222.39 154.6,222.24 C154.6,222.24 157.55,223.24 157.55,223.67 C157.55,224.1 153.84,225.86 153.65,225.51 C153.46,225.16 149.42,218.51 149.42,218.51 L145.62,217.17 L142.49,224.12 L145.14,225.26 C145.14,225.26 145.95,227.37 146.22,227.37 C146.49,227.37 148.65,223.47 148.65,223.47 C148.65,223.47 149.19,225.96 149.57,226.23 C149.95,226.5 153.03,229.04 154.44,227.1 L151.84,224.18" id="Shape" fill="#56403D"></path><polyline id="Shape" fill="#56403D" points="142.5 224.2 142.98 225.93 146.23 227.45 146.23 224.2 144.36 223.55"></polyline><ellipse id="Oval" fill="#1CA9B7" transform="translate(182.435400, 129.714300) rotate(-10.972240) translate(-182.435400, -129.714300) " cx="182.4354" cy="129.7143" rx="2.84500813" ry="4.17267859"></ellipse><ellipse id="Oval" fill="#1CA9B7" transform="translate(192.359574, 135.294469) rotate(-10.910000) translate(-192.359574, -135.294469) " cx="192.359574" cy="135.294469" rx="2.85" ry="4.18"></ellipse><ellipse id="Oval" fill="#1CA9B7" transform="translate(201.247100, 139.831700) rotate(-10.972240) translate(-201.247100, -139.831700) " cx="201.2471" cy="139.8317" rx="2.84500813" ry="4.17267859"></ellipse><ellipse id="Oval" fill="#1CA9B7" transform="translate(210.462500, 144.808000) rotate(-10.972240) translate(-210.462500, -144.808000) " cx="210.4625" cy="144.808" rx="2.84500813" ry="4.17267859"></ellipse></g></g></svg>