<svg xmlns="http://www.w3.org/2000/svg" xmlns:xlink="http://www.w3.org/1999/xlink" width="296px" height="230px" viewBox="0 0 296 230"><title>authentication</title><desc>Created with Sketch.</desc><defs><linearGradient x1="42.117841%" y1="72.0989761%" x2="57.6926246%" y2="29.3088737%" id="linearGradient-1"><stop stop-color="#FF8E31" offset="0%"></stop><stop stop-color="#ED6B21" offset="100%"></stop></linearGradient><linearGradient x1="30.6375589%" y1="84.3743428%" x2="57.6283801%" y2="33.5436383%" id="linearGradient-2"><stop stop-color="#FF8E31" offset="0%"></stop><stop stop-color="#ED6B21" offset="100%"></stop></linearGradient></defs><g id="Page-1" stroke="none" stroke-width="1" fill="none" fill-rule="evenodd"><g id="authentication" fill-rule="nonzero"><path d="M291.25,137.31 L136,227.14 C129.439594,230.922895 121.360406,230.922895 114.8,227.14 L5.7,164.51 C2.70660076,162.788261 0.861369348,159.598234 0.861369348,156.145 C0.861369348,152.691766 2.70660076,149.501739 5.7,147.78 L168,54.05 L291.1,122.46 C293.791933,123.94629 295.475548,126.766414 295.506607,129.841246 C295.537666,132.916079 293.911361,135.769636 291.25,137.31 Z" id="Shape" fill="#FF8E31"></path><path d="M119.8,125.41 L76.52,151.48 C76.52,151.48 131.52,183 152.95,195.73 L197.87,170.29" id="Shape" fill="url(#linearGradient-1)"></path><path d="M79.46,154.45 L36.19,180.51 C36.19,180.51 49.62,189.32 71,202 L116.81,173.87" id="Shape" fill="url(#linearGradient-2)"></path><polyline id="Shape" fill="#ADCEE1" points="86.56 123.02 86.56 125.97 88.06 127.81"></polyline><path d="M146,87 L88.26,122.78 C87.1842148,123.445545 86.5395367,124.629429 86.5641752,125.894204 C86.5888137,127.15898 87.2791105,128.316858 88.38,128.94 L176,178.51 C178.487697,179.917468 181.537313,179.890783 184,178.44 L241.47,144.65 C245.65,141.22 245.33,134.76 241.47,134.49 L154.37,86.87 C151.769764,85.3655147 148.552259,85.4154879 146,87 Z" id="Shape" fill="#88D3D8"></path><path d="M146,84.55 L88.26,120.33 C87.1842148,120.995545 86.5395367,122.179429 86.5641752,123.444204 C86.5888137,124.70898 87.2791105,125.866858 88.38,126.49 L176,176 C178.487697,177.407468 181.537313,177.380783 184,175.93 L241.47,142.14 C242.843119,141.344093 243.688409,139.877112 243.688409,138.29 C243.688409,136.702888 242.843119,135.235907 241.47,134.44 L154.37,84.35 C151.756922,82.8667616 148.539253,82.9436473 146,84.55 Z" id="Shape" fill="#FFFFFF"></path><path d="M148.35,79.66 C148.35,79.66 172.35,2.28 172.18,2.28 C172.01,2.28 172.93,-1.16 177.18,0.78 L269.18,54.94 C269.18,54.94 273.64,56.75 272.77,60.94 C271.9,65.13 249.33,136.66 249.33,136.66 C248.362864,138.055913 246.601974,138.663116 244.98,138.16 C242.18,137.29 150.46,84.01 150.46,84.01 C148.714626,83.3487207 147.788828,81.4400867 148.35,79.66 Z" id="Shape" fill="#053855"></path><polygon id="Shape" fill="#68E1FD" points="173.7 7.9 267.93 62.83 248.38 128.44 152.95 75.14"></polygon><path d="M142.45,92.75 L121.34,105.9 C120.582664,106.3768 120.130703,107.215714 120.14913,108.110453 C120.167558,109.005191 120.653675,109.824785 121.43,110.27 L197.2,153.46 C199.505038,154.790814 202.344962,154.790814 204.65,153.46 C209.52,150.62 217.91,145.46 223.04,142.36 C223.990494,141.797939 224.57025,140.772704 224.56201,139.668492 C224.553769,138.564281 223.958777,137.547813 223,137 C207.68,128.09 157.68,99 146.73,92.66 C145.398498,91.8882719 143.747883,91.9229811 142.45,92.75 Z" id="Shape" fill="#68E1FD"></path><path d="M143.58,128.44 L170.05,143.33 C170.875358,143.799259 171.385172,144.675569 171.385172,145.625 C171.385172,146.574431 170.875358,147.450741 170.05,147.92 L154.53,157 C153.441464,157.630857 152.098536,157.630857 151.01,157 L123.92,141.6 C123.230254,141.206847 122.804395,140.473927 122.804395,139.68 C122.804395,138.886073 123.230254,138.153153 123.92,137.76 L140.11,128.46 C141.182258,127.842066 142.50069,127.834467 143.58,128.44 Z" id="Shape" fill="#68E1FD"></path><path d="M142.45,92.75 L121.34,105.9 C120.582664,106.3768 120.130703,107.215714 120.14913,108.110453 C120.167558,109.005191 120.653675,109.824785 121.43,110.27 L197.2,153.46 C199.505038,154.790814 202.344962,154.790814 204.65,153.46 C209.52,150.62 217.91,145.46 223.04,142.36 C223.990494,141.797939 224.57025,140.772704 224.56201,139.668492 C224.553769,138.564281 223.958777,137.547813 223,137 C207.68,128.09 157.68,99 146.73,92.66 C145.398498,91.8882719 143.747883,91.9229811 142.45,92.75 Z" id="Shape" fill="#053855" opacity="0.1"></path><path d="M143.58,128.44 L170.05,143.33 C170.875358,143.799259 171.385172,144.675569 171.385172,145.625 C171.385172,146.574431 170.875358,147.450741 170.05,147.92 L154.53,157 C153.441464,157.630857 152.098536,157.630857 151.01,157 L123.92,141.6 C123.230254,141.206847 122.804395,140.473927 122.804395,139.68 C122.804395,138.886073 123.230254,138.153153 123.92,137.76 L140.11,128.46 C141.182258,127.842066 142.50069,127.834467 143.58,128.44 Z" id="Shape" fill="#053855" opacity="0.1"></path><path d="M142.07,40.26 C141.261481,39.6727021 140.405149,39.1542198 139.51,38.71 C136.88,37.37 136.09,35.91 137.16,33.13 C139.31,27.52 131.43,17.07 125.16,19.56 C121.16,21.16 117.89,25.66 116.58,29.66 C115.980395,31.3852982 115.89699,33.2480175 116.34,35.02 C116.75,36.49 118.53,38.02 116.84,39.19 C113.96,41.27 109.52,42.07 108.48,45.99 C108.167342,47.0697032 108.323409,48.2311334 108.91,49.19 C109.761591,50.3237618 111.049054,51.049093 112.46,51.19 C114.91,51.58 114.12,51.89 113.57,53.83 C112.03,59.23 117.45,60.83 121.73,61.38 C127.06,62.03 133.64,62.61 138.59,60.08 C140.08,59.32 141.49,58.08 141.59,56.31 C141.69,54.54 138.83,52.74 139.59,50.83 C139.818838,50.3750847 140.163814,49.9887113 140.59,49.71 C142.06,48.5 144.03,47.51 144.59,45.54 C145.07,43.22 143.76,41.52 142.07,40.26 Z" id="Shape" fill="#96D88D"></path><path d="M142.07,40.27 C141.261481,39.6827021 140.405149,39.1642198 139.51,38.72 C136.88,37.38 136.09,35.92 137.16,33.14 C138.23,30.36 136.79,26.29 134.29,23.28 C134.463813,24.1257445 134.490874,24.9950824 134.37,25.85 C133.82,29.85 126.24,35.45 129.87,38.72 C132.13,40.72 141.57,42.72 136.28,47.33 C134.52,48.86 131.77,49.04 133.05,52.09 C133.6,53.4 135.19,54.16 135.84,55.45 C136.75,57.26 136.66,58.64 135.09,60.04 C133.660127,61.167147 131.90942,61.8114071 130.09,61.88 C133.034891,61.8987008 135.946436,61.2562473 138.61,60 C140.1,59.24 141.51,58 141.61,56.23 C141.71,54.46 138.85,52.66 139.61,50.75 C139.838838,50.2950847 140.183814,49.9087113 140.61,49.63 C142.08,48.42 144.05,47.43 144.61,45.46 C145.07,43.23 143.76,41.53 142.07,40.27 Z" id="Shape" fill="#7EC971"></path><path d="M123.58,54.6 C121.01,52.15 117.5,51.53 114.08,51.66 C114.124913,51.7393657 114.148995,51.828813 114.15,51.92 C114.167667,51.9990246 114.167667,52.0809754 114.15,52.16 L114.15,52.22 C117.41,52.1 120.76,52.65 123.21,54.99 C125.054922,56.8754928 126.306545,59.2605304 126.81,61.85 L127.43,61.85 C126.89068,59.1061991 125.551043,56.5835067 123.58,54.6 Z" id="Shape" fill="#378729"></path><path d="M130.38,56.43 C130.013333,56.95 129.68,57.4833333 129.38,58.03 C129.54,56.03 129.71,54.13 129.93,52.18 C130.339627,50.8004523 130.875215,49.4614844 131.53,48.18 C132.45043,46.3437964 133.701312,44.692903 135.22,43.31 C137.121292,41.7774365 139.296563,40.6202329 141.63,39.9 C141.454375,39.8025725 141.284128,39.6957509 141.12,39.58 L140.96,39.5 C136.96,41.05 133.7,43.17 131.46,47.03 C131.004401,47.8197967 130.600228,48.6381628 130.25,49.48 C130.42,48.2 130.6,46.91 130.81,45.64 C131.81,39.64 133.45,33.64 137.24,28.87 C137.162768,28.6338846 137.099328,28.393479 137.05,28.15 C133.12,32.95 131.32,38.96 130.3,45 C129.9,47.36 129.58,49.74 129.3,52.13 C129.666667,41.2633333 129.606667,30.3933333 129.12,19.52 C128.912931,19.4536325 128.709339,19.3768684 128.51,19.29 C128.956667,29.11 129.046667,38.9366667 128.78,48.77 C128.647248,48.7953635 128.529201,48.8704845 128.45,48.98 C128.27,47.4 128.03,45.83 127.7,44.28 C126.4,38.11 123.63,30.36 117.35,27.69 L117.27,27.83 L117.1,28.24 C123.52,31.01 126.1,39.17 127.33,45.49 C127.731997,47.7045061 127.992525,49.9423704 128.11,52.19 C127.936667,54.41 127.813333,56.63 127.74,58.85 C127.213627,55.4597911 126.259344,52.1500425 124.9,49 C123.27,45.38 120.11,40.28 115.75,39.87 C115.334548,40.1122421 114.899725,40.3196192 114.45,40.49 C119.86,39.72 123.54,46.89 125.11,51.07 C126.348031,54.5641785 127.186699,58.1872266 127.61,61.87 L127.68,61.87 C127.581913,69.2254134 128.019738,76.5782019 128.99,83.87 C129.07,84.5 130.07,84.51 129.99,83.87 C129.019703,76.5782053 128.581878,69.2254142 128.68,61.87 L129.1,61.87 C129.1,61.1 129.19,60.33 129.25,59.56 C129.583705,58.873826 129.954245,58.2061859 130.36,57.56 C131.524637,55.5711302 133.145994,53.8880723 135.09,52.65 C136.471175,51.8948394 137.968228,51.3744192 139.52,51.11 C139.551472,50.8737026 139.637023,50.6478484 139.77,50.45 C138.193299,50.7008048 136.663014,51.1861814 135.23,51.89 C133.271085,52.990365 131.607171,54.547926 130.38,56.43 Z" id="Shape" fill="#378729"></path><ellipse id="Oval" fill="#FFB339" transform="translate(128.041027, 79.603455) rotate(-1.670000) translate(-128.041027, -79.603455) " cx="128.041027" cy="79.6034547" rx="8.01" ry="7.23"></ellipse><path d="M127,86.82 C121.55,83.28 124.7,75.18 130.46,72.76 C129.598723,72.515214 128.705007,72.4039211 127.81,72.43 C123.39,72.56 119.9,75.9 120.01,79.89 C120.13,83.5 123.16,86.4 127,86.82 Z" id="Shape" fill="#FFA522"></path><path d="M188.89,65.78 C198.74,71.33 220.7,84.07 229.03,88.91 C230.937069,90.0200583 231.778592,92.3342466 231.03,94.41 L230.87,94.85 C230.418309,96.1129722 229.429018,97.110098 228.169648,97.5717381 C226.910278,98.0333783 225.510926,97.9118439 224.35,97.24 L184.13,74 C182.139958,72.8511138 181.269423,70.4338994 182.07,68.28 C182.554569,66.9686814 183.590002,65.9359445 184.902579,65.4547945 C186.215156,64.9736446 187.672734,65.0925215 188.89,65.78 Z" id="Shape" fill="#FFFFFF"></path><ellipse id="Oval" fill="#33BDD3" transform="translate(192.893281, 73.985654) rotate(-80.090000) translate(-192.893281, -73.985654) " cx="192.893281" cy="73.9856539" rx="2.16" ry="1.82"></ellipse><ellipse id="Oval" fill="#33BDD3" transform="translate(197.888198, 76.926085) rotate(-80.090000) translate(-197.888198, -76.926085) " cx="197.888198" cy="76.926085" rx="2.16" ry="1.82"></ellipse><ellipse id="Oval" fill="#33BDD3" transform="translate(202.896408, 79.878536) rotate(-80.090000) translate(-202.896408, -79.878536) " cx="202.896408" cy="79.8785359" rx="2.16" ry="1.82"></ellipse><ellipse id="Oval" fill="#33BDD3" transform="translate(208.130989, 82.941479) rotate(-80.090000) translate(-208.130989, -82.941479) " cx="208.130989" cy="82.941479" rx="2.16" ry="1.82"></ellipse><ellipse id="Oval" fill="#33BDD3" transform="translate(213.366395, 86.034898) rotate(-80.090000) translate(-213.366395, -86.034898) " cx="213.366395" cy="86.0348979" rx="2.16" ry="1.82"></ellipse><ellipse id="Oval" fill="#33BDD3" transform="translate(218.568428, 89.027217) rotate(-80.090000) translate(-218.568428, -89.027217) " cx="218.568428" cy="89.0272169" rx="2.16" ry="1.82"></ellipse><ellipse id="Oval" fill="#FFFFFF" transform="translate(212.713944, 56.596824) rotate(-80.090000) translate(-212.713944, -56.596824) " cx="212.713944" cy="56.596824" rx="10.19" ry="9.48"></ellipse><ellipse id="Oval" fill="#33BDD3" transform="translate(212.947200, 55.049600) rotate(-73.739795) translate(-212.947200, -55.049600) " cx="212.9472" cy="55.0496" rx="3.93" ry="3.43"></ellipse><path d="M203.83,60.44 C203.83,60.44 207.06,56.87 211.48,58.29 C214.776851,59.3162067 216.69298,62.7441441 215.84,66.09 C215.84,66.09 212.31,68.38 207.58,65.28 C207.58,65.29 204.42,63.27 203.83,60.44 Z" id="Shape" fill="#33BDD3"></path><path d="M181,76.8 C182.018767,76.6275488 183.022005,76.3733952 184,76.04 C185.08,75.61 181.22,74.87 181.22,74.87" id="Shape" fill="#1CA9B7"></path><path d="M171.38,49.56 C172.615008,48.9244628 173.9918,48.6146846 175.38,48.66 C177.26,48.86 175.14,52.66 175.14,52.66" id="Shape" fill="#1CA9B7"></path><path d="M176.67,49.08 L189.07,56.48 C190.274211,57.204093 190.814493,58.6670103 190.37,60 L185.78,73.8 C185.17,75.62 183.78,76.8 182.14,75.8 L168.83,68.71 C167.64339,67.9860118 167.109534,66.541704 167.54,65.22 L172.29,50.73 C172.572573,49.8649587 173.232523,49.1749405 174.084125,48.8541315 C174.935727,48.5333226 175.886913,48.6164059 176.67,49.08 Z" id="Shape" fill="#1CA9B7"></path><path d="M174.12,49.73 L186.52,57.13 C187.727985,57.8510426 188.272679,59.3146481 187.83,60.65 L183.24,74.45 C182.63,76.27 181.24,77.45 179.6,76.45 L166.29,69.36 C165.10339,68.6360118 164.569534,67.191704 165,65.87 L169.75,51.38 C170.033256,50.5179361 170.691476,49.8304006 171.540387,49.5098735 C172.389298,49.1893464 173.33767,49.2702739 174.12,49.73 Z" id="Shape" fill="#33BDD3"></path><path d="M177,50.36 C177,50.36 179,42.36 184.1,43.59 C189.2,44.82 185.1,55.08 185.1,55.08 C185.1,55.08 185.1,56.08 187.43,56.45 C187.43,56.45 192.43,44.45 185.67,41.28 C178.91,38.11 175.06,47.49 174.67,49.2 C175.125858,50.037749 176.056766,50.5012053 177,50.36 Z" id="Shape" fill="#EBEDED"></path><ellipse id="Oval" fill="#EBEDED" transform="translate(176.719800, 59.398400) rotate(-8.049062) translate(-176.719800, -59.398400) " cx="176.7198" cy="59.3984" rx="3.27950796" ry="3.58946146"></ellipse><rect id="Rectangle-path" fill="#EBEDED" transform="translate(175.308165, 63.462826) rotate(19.150000) translate(-175.308165, -63.462826) " x="173.748165" y="57.7128255" width="3.12" height="11.5" rx="1.24"></rect><path d="M111.13,166.26 L110.06,165.45 L111.01,152.76 L116.59,152.96 C116.59,152.96 116.31,158.38 117.5,159.71 C118.69,161.04 122.05,160.39 122.36,160.52 C122.67,160.65 124.91,160.17 125.82,161.26 C126.73,162.35 122.19,164.95 119.82,165.32 C118.225185,165.526017 116.607512,165.471982 115.03,165.16 C115.03,165.16 114.77,161.88 113.95,162.16 C113.13,162.44 112.82,165.85 112.82,165.85 L111.13,166.26 Z" id="Shape" fill="#9C4100"></path><path d="M108.84,126.32 C108.38,139.59 107.89,156.88 107.89,156.88 C107.89,156.88 110.89,161 119.14,159.24 C120.02,159.05 121.98,137.9 122.94,126.9 C118.344026,125.644882 113.523531,125.446593 108.84,126.32 Z" id="Shape" fill="#7EC971"></path><path d="M125.68,177.16 L124.61,176.35 L125.56,163.66 L131.14,163.86 C131.14,163.86 130.86,169.28 132.05,170.61 C133.24,171.94 136.6,171.29 136.91,171.42 C137.22,171.55 139.46,171.07 140.37,172.16 C141.28,173.25 136.74,175.85 134.37,176.22 C132.775185,176.426017 131.157512,176.371982 129.58,176.06 C129.58,176.06 129.32,172.78 128.5,173.06 C127.68,173.34 127.37,176.75 127.37,176.75 L125.68,177.16 Z" id="Shape" fill="#053855"></path><path d="M128.08,128.73 C124.410941,127.067017 120.470298,126.084397 116.45,125.83 C117.13,130.83 117.76,134.24 117.87,134.49 C118.14,135.12 123.25,166.65 123.25,166.65 C129.25,169.08 136.41,167.05 136.41,167.05 C136.41,167.05 133.95,142.45 133.75,138.34 C133.75,137.9 133.726667,137.456667 133.68,137.01 C133.495207,133.424415 131.339048,130.236379 128.08,128.73 Z" id="Shape" fill="#7EC971"></path><path d="M91,136.06 C91,136.06 101.22,126.81 108.84,126.32 C116.46,125.83 127.29,133.73 126.44,138.32 C125.59,142.91 111,152.77 111,152.77" id="Shape" fill="#7EC971"></path><path d="M111.9,119.55 L103.76,113.79 C103.084937,113.312704 102.841931,112.424474 103.18,111.67 L108.95,98.84 C109.154644,98.3851885 109.545613,98.0408203 110.02262,97.8952278 C110.499627,97.7496353 111.01626,97.8169845 111.44,98.08 L120.54,103.75 C121.308696,104.227951 121.579011,105.217654 121.16,106.02 L114.43,118.93 C114.200363,119.373154 113.790519,119.695535 113.305746,119.814333 C112.820972,119.933132 112.308512,119.83677 111.9,119.55 Z" id="Shape" fill="#1784AA"></path><path d="M111.17,119.1 L103,113.34 C102.324937,112.862704 102.081931,111.974474 102.42,111.22 L108.19,98.39 C108.394644,97.9351885 108.785613,97.5908203 109.26262,97.4452278 C109.739627,97.2996353 110.25626,97.3669845 110.68,97.63 L119.78,103.3 C120.548696,103.777951 120.819011,104.767654 120.4,105.57 L113.67,118.48 C113.439567,118.914087 113.035386,119.22968 112.558379,119.347978 C112.081371,119.466276 111.576562,119.376112 111.17,119.1 Z" id="Shape" fill="#29ABE2"></path><polygon id="Shape" fill="#E4F5FD" points="112.53 118.31 103.37 111.84 109.38 98.48 119.56 104.82"></polygon><path d="M108.29,104.15 C105.29,105.81 100.52,107.7 97.29,109.9 C96.78,110.25 96.02,111.47 96.52,111.29 C96.3,111.54 98.39,112.36 98.19,112.63 C98.13,112.72 99.54,111.94 99.62,111.97 C100.819487,112.607607 102.21358,112.775183 103.53,112.44 L104.06,112.05 L104.19,111.97 C104.212318,111.93048 104.243041,111.896343 104.28,111.87 L104.36,111.81 C104.374829,111.733887 104.417644,111.666096 104.48,111.62 C105.18,111.07 106.72,110.78 106.88,109.85 C106.852596,109.604641 106.777885,109.366922 106.66,109.15 C106.58359,109.032603 106.609646,108.876269 106.72,108.79 C106.838423,108.230281 106.726703,107.646454 106.41,107.17 L106.59,106.96 C107.441749,106.36856 108.247394,105.713346 109,105 C109.08235,104.92383 109.135422,104.821224 109.15,104.71 L109.15,104.66 C109.153076,104.630079 109.153076,104.599921 109.15,104.57 C109.126845,104.378052 109.007968,104.210927 108.834239,104.126082 C108.66051,104.041238 108.455616,104.050243 108.29,104.15 Z" id="Shape" fill="#E85454"></path><path d="M106.75,107.43 C106.52,106.85 106.19,106.82 105.66,107.05 C104.60784,107.527139 103.603337,108.103054 102.66,108.77 C102.5,108.88 102.66,109.13 102.82,109.03 C103.41,108.63 105.97,106.74 106.49,107.57 C107.01,108.4 105.29,108.97 104.81,109.22 L102.97,110.22 C102.8,110.31 102.97,110.57 103.13,110.48 L104.31,109.87 C104.300788,109.899293 104.300788,109.930707 104.31,109.96 C104.409895,110.092312 104.527688,110.210105 104.66,110.31 C104.44537,110.616841 104.396684,111.01008 104.53,111.36 L104.58,111.42 C103.536593,112.506101 101.888918,112.745014 100.58,112 C100.43,111.89 100.22,112.1 100.37,112.22 C101.57,113.12 104.05,112.86 104.89,111.53 C105.078494,111.505065 105.261216,111.447541 105.43,111.36 C105.975347,111.171196 106.466265,110.851928 106.86,110.43 C107.080358,110.056764 107.080358,109.593236 106.86,109.22 L106.86,109.17 C107.006664,109.028638 107.089519,108.8337 107.089519,108.63 C107.089519,108.4263 107.006664,108.231362 106.86,108.09 C106.890175,107.86395 106.851857,107.634045 106.75,107.43 Z M106.62,110.15 C106.420742,110.425714 106.151464,110.643208 105.84,110.78 C105.65,110.89 105.17,111.23 104.98,111.18 C104.59,111.08 104.83,110.57 104.98,110.35 C105.194442,110.266299 105.393742,110.14807 105.57,110 L106.3,109.54 L106.54,109.36 C106.683394,109.598143 106.712741,109.887945 106.62,110.15 Z M105.68,109.59 C105.26,109.85 104.92,110.18 104.53,109.71 C105.12,109.41 105.71,109.11 106.26,108.76 C106.429008,108.661471 106.57549,108.528615 106.69,108.37 C107,108.9 106,109.39 105.68,109.59 Z" id="Shape" fill="#653200"></path><path d="M99.23,107.61 C99.23,107.61 101.23,108.07 101.43,112.36 L99.9,116.17 L91.57,111.85 C91.57,111.85 93.56,109.35 99.23,107.61 Z" id="Shape" fill="#88D3D8"></path><path d="M119,109.62 C118.38,110.99 117.76,112.23 117.24,113.62 C116.86,112.69 116.51,111.93 116.04,111.04 C116.019227,111.008093 115.995812,110.977987 115.97,110.95 C115.794837,110.666268 115.447774,110.53993 115.131203,110.64466 C114.814632,110.749391 114.611391,111.057784 114.64,111.39 C114.793816,112.241204 115.135432,113.04742 115.64,113.75 C115.569492,113.786052 115.505321,113.833337 115.45,113.89 C114.25,115.22 114.54,117.26 114.68,118.89 C114.691269,119.110247 114.816885,119.308568 115.011191,119.412879 C115.205497,119.517191 115.440202,119.512306 115.63,119.4 C115.741824,119.401751 115.852155,119.374168 115.95,119.32 C117.02815,118.577959 117.799465,117.468971 118.12,116.2 C118.79,114.13 119.67,111.83 119,109.62 Z" id="Shape" fill="#E85454"></path><path d="M87.88,109.51 L90.88,108.61 C91.63,108.72 98.14,111.38 100.88,116.02 C101.20735,117.434787 101.427971,118.872164 101.54,120.32 C101.79,122.25 101.99,124.19 102.08,126.13 C102.205682,128.246185 102.172255,130.368822 101.98,132.48 C101.89,133.38 101.83,133.84 101.67,134.73 C101.320671,135.033105 100.921422,135.273331 100.49,135.44 C91.49,138.57 84.83,133.5 84.56,132.76 C84.29,132.02 83.86,121.62 83.64,115.42 C83.5620466,112.720227 85.2975691,110.301138 87.88,109.51 Z" id="Shape" fill="#88D3D8"></path><path d="M95.85,98.78 C95.85,98.78 97.85,108.98 94.12,110.08 C90.39,111.18 85.94,106.93 85.62,104.83 C85.3,102.73 90.58,95.38 95.85,98.78 Z" id="Shape" fill="#E85454"></path><path d="M94.39,102.86 C94.5,102.69 96.67,102.12 97.12,100.3 C97.57,98.48 95.93,96.09 92.17,95.75 C88.41,95.41 82.1,97.46 83.07,107.36 C84.04,117.26 94,113 94.65,109.84 C94.9954211,107.517258 94.907265,105.150608 94.39,102.86 Z" id="Shape" fill="#653200"></path><path d="M94.39,102.86 C94.39,102.86 95.02,106.24 96.39,107.7 C97.76,109.16 98.87,111.8 97.19,113.82 C95.51,115.84 97.19,116.93 99.56,118.82 C101.93,120.71 100.47,128.6 91.9,126.67 C83.33,124.74 79.29,119.57 79.29,119.57 C79.29,119.57 81.49,104.15 83.83,100.57" id="Shape" fill="#653200"></path><path d="M100.88,116.17 C100.88,116.17 102.82,122.67 104.76,122.87 C106.7,123.07 109.64,120.2 111.71,116.45 C113.207837,116.293951 114.703347,116.765786 115.840434,117.753157 C116.977521,118.740527 117.654436,120.155082 117.71,121.66 C117.71,121.66 110.88,135.5 100.92,132.12" id="Shape" fill="#88D3D8"></path><ellipse id="Oval" fill="#1784AA" transform="translate(111.465956, 108.029960) rotate(-68.710000) translate(-111.465956, -108.029960) " cx="111.465956" cy="108.02996" rx="4" ry="3.44"></ellipse><polygon id="Shape" fill="#E4F5FD" points="109.14 107 110.21 106.67 110.66 108.19 114.16 106.94 114.32 108.01 110.06 109.57"></polygon><path d="M65.11,165.74 C58.99,158.11 56.18,148.34 56.3,138.57 C56.3832358,130.648045 59.4963144,123.058574 65,117.36 C70.05,112.18 77.67,109.63 84.43,113.14 C90.04,116.05 92.76,121.64 94.71,127.37 C97.05,134.23 97.84,143.02 106.2,145.14 C109.44,145.96 112.85,145.4 116.2,145.14 C122.02,144.74 128.2,146.63 129.96,152.83 C133.2,163.93 118.27,173.41 109.88,176.99 C95.0049508,183.106856 77.8979651,179.406973 66.88,167.69 C66.2466667,167.07 65.6566667,166.42 65.11,165.74 Z" id="Shape" fill="#FFDE47"></path><path d="M129.62,153 C123.68,163.74 104.35,168.58 93.81,168 C84.24,167.51 78.19,161.67 78.81,152 C79.17,146.68 80.81,141.38 80.38,136 C79.57,126.88 70.91,119.39 62.07,121.17 C58.282508,126.412694 56.2173317,132.702571 56.16,139.17 C56.04,148.94 58.84,158.7 64.97,166.34 C65.5166667,167.006667 66.0866667,167.673333 66.68,168.34 C77.6979651,180.056973 94.8049508,183.756856 109.68,177.64 C118.08,174.06 133,164.58 129.76,153.48 C129.74,153.31 129.67,153.16 129.62,153 Z" id="Shape" fill="#FCC62D"></path><path d="M39.0005563,36.7948987 L40.2448732,80.8703224 C40.3326703,81.8258779 40.8785075,82.6794826 41.7090602,83.1600833 C42.5396129,83.640684 43.5516834,83.6885653 44.4238995,83.288523 L79.7969313,63.6768377 C81.0197136,63.0678952 81.783847,61.8105756 81.7612301,60.4447443 L80.9786409,17.8797178 C80.960751,16.8815251 80.4299082,15.9629548 79.5739677,15.4490724 C78.718028,14.9351901 77.6577362,14.8984882 76.7683111,15.3519547 L40.9413775,33.5706312 C39.7302961,34.1849588 38.9765631,35.4371281 39.0005563,36.7948987 Z" id="Shape" fill="#26C485"></path><path d="M57.6523881,61.1461503 C55.894171,58.0940524 54.2324733,55.0184768 52.6672949,51.9194236 C52.1697304,50.9537583 51.199652,50.3222006 50.1152396,50.2579392 C49.0308271,50.1936776 47.9929487,50.7062453 47.3848178,51.6063879 L47.3456884,51.6689951 C46.7272488,52.6035985 46.6556143,53.7975069 47.157867,54.7993519 C48.8091302,57.9923158 50.5073487,61.1696279 52.2838262,64.2999847 C54.2324733,67.7825067 59.6401647,64.644324 57.6523881,61.1461503 Z" id="Shape" fill="#FFFFFF"></path><path d="M52.81143,60.7819836 C59.2107892,50.8221241 65.0627932,40.5210293 70.341428,29.9244915 C72.1335573,26.3324071 77.5099451,29.4862415 75.7256417,33.0548483 C70.4469659,43.6513643 64.594963,53.9524568 58.1956437,63.9123404 C56.0278716,67.2931257 50.635832,64.1705948 52.81143,60.7819836 Z" id="Shape" fill="#FFFFFF"></path></g></g></svg>