<svg xmlns="http://www.w3.org/2000/svg" xmlns:xlink="http://www.w3.org/1999/xlink" width="256px" height="269px" viewBox="0 0 256 269"><title>security</title><desc>Created with Sketch.</desc><defs><linearGradient x1="29.8380879%" y1="69.7508277%" x2="190.98775%" y2="-166.03938%" id="linearGradient-1"><stop stop-color="#000000" stop-opacity="0" offset="0%"></stop><stop stop-color="#000000" offset="100%"></stop></linearGradient><linearGradient x1="16.4855808%" y1="87.6666667%" x2="262.697926%" y2="-212%" id="linearGradient-2"><stop stop-color="#000000" stop-opacity="0" offset="0%"></stop><stop stop-color="#000000" offset="100%"></stop></linearGradient></defs><g id="Page-1" stroke="none" stroke-width="1" fill="none" fill-rule="evenodd"><g id="security" transform="translate(-5.000000, 0.000000)" fill-rule="nonzero"><path d="M8.23,200.29 L122.88,266.48 C127.388526,269.080619 132.941474,269.080619 137.45,266.48 L257.63,197.31 C259.513382,196.221386 260.68155,194.218804 260.70209,192.043537 C260.722631,189.868271 259.592488,187.843986 257.73,186.72 L139.5,115.58 C137.559438,114.422727 135.140562,114.422727 133.2,115.58 L8.2,189.7 C6.33032915,190.811702 5.1869885,192.828356 5.19315055,195.00356 C5.1993126,197.178764 6.35406062,199.188909 8.23,200.29 Z" id="Shape" fill="#FCC054"></path><path d="M200,43.52 L126.18,1.59 C124.7174,0.768736448 122.9326,0.768736448 121.47,1.59 L116.47,4.24 L119,5 C118.950821,5.27066712 118.924063,5.5449313 118.92,5.82 L117.5,154 C117.46015,158.231783 119.724113,162.150622 123.41,164.23 L197.55,206.09 C197.699492,206.171109 197.853025,206.244538 198.01,206.31 L197.08,208.62 L201.72,206.37 C202.028038,206.246612 202.322861,206.0925 202.6,205.91 C203.949575,205.02606 204.764833,203.52328 204.77,201.91 L204.77,51.74 C204.773683,48.3416367 202.952356,45.2029979 200,43.52 Z" id="Shape" fill="#2C2CB5"></path><path d="M104.92,198.73 L52.73,225.79 C52.73,225.79 84.48,246.43 105.27,256.12 L169.46,217.87" id="Shape" fill="url(#linearGradient-1)" opacity="0.62" style="mix-blend-mode: multiply;"></path><path d="M118.69,166.48 L192.83,208.34 C194.334419,209.189668 196.176831,209.176735 197.669173,208.30603 C199.161516,207.435325 200.079387,205.837777 200.08,204.11 L200.08,54 C200.081637,50.5995569 198.256209,47.4604304 195.3,45.78 L121.45,3.86 C119.958847,3.01281519 118.131572,3.0142693 116.641769,3.86382629 C115.151966,4.71338329 114.220219,6.28525615 114.19,8 L112.78,156.2 C112.721811,160.449609 114.988285,164.391969 118.69,166.48 Z" id="Shape" fill="#5F5CEA"></path><polygon id="Shape" fill="#E2F2EE" points="117.99 157.62 194.1 200.59 194.1 57.79 119.34 15.35"></polygon><polygon id="Shape" fill="#68E1FD" points="173.68 119.77 173.68 150.88 186.77 159.13 186.77 127.65"></polygon><polygon id="Shape" fill="#5F5CEA" points="174.71 126.87 174.71 133.08 177.54 134.95 177.54 128.67"></polygon><polygon id="Shape" fill="#5F5CEA" points="178.69 129.06 178.69 135.27 181.51 137.14 181.51 130.86"></polygon><polygon id="Shape" fill="#5F5CEA" points="182.66 131.39 182.66 137.6 185.49 139.47 185.49 133.19"></polygon><polygon id="Shape" fill="#5F5CEA" points="174.71 134.95 174.71 141.16 177.54 143.04 177.54 136.75"></polygon><polygon id="Shape" fill="#5F5CEA" points="178.69 137.14 178.69 143.35 181.51 145.23 181.51 138.94"></polygon><polygon id="Shape" fill="#5F5CEA" points="182.66 139.47 182.66 145.69 185.49 147.56 185.49 141.27"></polygon><polygon id="Shape" fill="#5F5CEA" points="174.71 143.01 174.71 149.22 177.54 151.09 177.54 144.81"></polygon><polygon id="Shape" fill="#5F5CEA" points="178.69 145.2 178.69 151.41 181.51 153.28 181.51 147"></polygon><polygon id="Shape" fill="#5F5CEA" points="182.66 147.53 182.66 153.74 185.49 155.62 185.49 149.33"></polygon><path d="M159.12,140.74 C162.368862,142.697752 164.413696,146.159684 164.56,149.95 C164.56,150.07 164.56,150.186667 164.56,150.3 C164.490149,153.093031 162.832265,155.601212 160.29,156.76 C158.724328,157.295524 157.028466,157.316547 155.45,156.82 C151.75,155.82 147.17,153.35 145.45,149.75 C144.54979,147.867734 144.463007,145.698154 145.21,143.75 C146.36,140.75 149.48,139.13 152.56,138.91 C154.885918,138.804384 157.184624,139.445639 159.12,140.74 Z" id="Shape" fill="#FBB5AD"></path><path d="M162.9,144.48 L161.24,145.18 C159.96489,144.878438 158.909981,143.986966 158.4,142.78 C158.24,142.39 157.59,142.56 157.76,142.96 C158.232911,144.120491 159.14091,145.050023 160.29,145.55 L159.74,145.75 C157.94,146.39 155.74,147.16 153.82,146.75 C153.106218,146.665925 152.473864,146.250213 152.113683,145.628262 C151.753503,145.006312 151.707666,144.250939 151.99,143.59 C152.72,142.06 154.73,141.35 156.21,140.84 C156.89,140.61 157.57,140.4 158.27,140.23 C156.518289,139.272426 154.533069,138.825492 152.54,138.94 C149.46,139.16 146.34,140.8 145.19,143.78 C144.443007,145.728154 144.52979,147.897734 145.43,149.78 C147.17,153.38 151.75,155.78 155.43,156.85 C157.008466,157.346547 158.704328,157.325524 160.27,156.79 C162.812265,155.631212 164.470149,153.123031 164.54,150.33 C164.54,150.21 164.54,150.093333 164.54,149.98 C164.537837,148.026482 163.968071,146.115683 162.9,144.48 Z" id="Shape" fill="#393B5B"></path><path d="M148.79,151.93 C148.47,151.69 127.91,152.24 124.7,196.58 L112.7,189.68 C108.149291,191.785968 105.41478,196.526321 105.87,201.52 C106.48,210.32 133.55,224.97 145.16,221.03 C156.77,217.09 151.64,189.32 151.64,189.32 L158.4,173.43" id="Shape" fill="#393B5B"></path><path d="M147.77,210.18 C147.77,210.18 160.2,214.36 162.11,211.87 C164.02,209.38 173.04,189.66 167.76,183.25 C162.48,176.84 151.11,183.25 147.42,186.25" id="Shape" fill="#393B5B"></path><path d="M160.58,212.46 C162.11,211.88 168.77,214.46 169.85,213.84 C170.93,213.22 171.2,221.34 163.14,219.4 C158.14534,218.169788 153.32447,216.318709 148.79,213.89 C148.79,213.89 150.87,207.89 154.09,207.51" id="Shape" fill="#393B5B"></path><path d="M182,144.48 L181.56,144.97 L181.56,144.6 C181.846682,144.089229 182.181539,143.607036 182.56,143.16 C182.821575,142.851943 182.922305,142.43845 182.831721,142.044604 C182.741136,141.650758 182.469877,141.322823 182.1,141.16 L182.19,141.08 C183.34,140.01 181.61,138.29 180.47,139.36 L179.55,140.19 C179.076841,139.719557 178.328343,139.672509 177.8,140.08 C177.17,140.57 176.39,141.02 176.1,141.8 C175.908258,142.724303 175.874447,143.674405 176,144.61 L176,146.74 C175.79,146.36 175.57,145.98 175.34,145.62 C174.5,144.31 172.41,145.5 173.23,146.85 C173.866994,147.880279 174.412417,148.964431 174.86,150.09 L174.96,150.36 C174.82,151.11 174.67,151.85 174.5,152.6 C174.389819,153.36635 174.229475,154.124646 174.02,154.87 C173.54995,155.215438 173.443201,155.873722 173.78,156.35 C173.934316,156.664707 174.222655,156.892764 174.564445,156.970443 C174.906234,157.048123 175.26482,156.967094 175.54,156.75 C176.041038,157.105174 176.720837,157.067868 177.18,156.66 C177.435917,156.748385 177.714083,156.748385 177.97,156.66 C178.314193,157.177601 179.0009,157.339436 179.54,157.03 C180.65,156.43 180.9,154.71 181.18,153.6 C181.58831,152.109653 181.750445,150.562618 181.66,149.02 C181.66,149.02 181.66,148.95 181.66,148.91 C182.22614,147.958176 182.896977,147.07267 183.66,146.27 C184.81,145.06 183.09,143.33 182,144.48 Z" id="Shape" fill="#FBB5AD"></path><path d="M177.14,144.77 L177.5,144.87 C177.485844,144.364643 177.519325,143.859077 177.6,143.36 C177.81,142.17 178.93,141.12 179.76,140.29 C179.833625,140.202635 179.828122,140.073453 179.747335,139.992665 C179.666547,139.911878 179.537365,139.906375 179.45,139.98 C178.528256,140.769909 177.782231,141.74417 177.26,142.84 C177.073488,143.455152 176.995656,144.098113 177.03,144.74 L177.14,144.77 Z" id="Shape" fill="#393B5B"></path><path d="M181.91,140.8 C181.26,141.8 180.35,142.53 179.71,143.48 C179.33783,144.125012 179.118862,144.846923 179.07,145.59 C179.216667,145.683333 179.356667,145.783333 179.49,145.89 C179.557304,144.934038 179.905159,144.01918 180.49,143.26 C181.139533,142.551876 181.744051,141.803743 182.3,141.02 C182.45,140.78 182.07,140.56 181.91,140.8 Z" id="Shape" fill="#393B5B"></path><path d="M181.25,145 C180.963333,145.62 180.703333,146.25 180.47,146.89 L180.63,147.12 C180.693852,147.215295 180.731765,147.325587 180.74,147.44 C181,146.69 181.3,145.95 181.63,145.22 C181.75,145 181.37,144.78 181.25,145 Z" id="Shape" fill="#393B5B"></path><path d="M160.29,156.77 C160.069172,158.536252 160.837699,160.28081 162.29,161.31 C164.72,162.81 175.01,150.89 175.01,150.89 C175.01,150.89 179.74,150.51 180.69,156.29 C181.64,162.07 166.38,176.19 158.4,177.18 C150.42,178.17 144.68,169.6 144.68,169.6 C144.68,169.6 145.75,153.03 150.62,151.92" id="Shape" fill="#393B5B"></path><path d="M98.81,206.31 C100.161732,206.859459 101.601385,207.160939 103.06,207.2 C103.807776,207.195981 104.496427,206.792757 104.865876,206.142609 C105.235325,205.492461 105.229271,204.694467 104.85,204.05 C104.504671,202.752568 104.92747,201.371683 105.94,200.49 C106.61,200 108.34,200.73 109.5,201.31 C110.203168,201.657905 111.042267,201.580568 111.67,201.11 L114.83,198.76 C115.393803,198.340493 115.706262,197.663591 115.659784,196.962377 C115.613306,196.261164 115.21424,195.631423 114.6,195.29 C110.76,193.15 104.15,189.65 103,190.29 C101.36,191.29 96.39,200.08 96.37,202.34 C96.433311,203.663777 97.0195881,204.908267 98,205.8 C98.2275899,206.029527 98.5046511,206.203973 98.81,206.31 Z" id="Shape" fill="#393B5B"></path><path d="M160.8,142.73 C160.587497,142.547528 160.327286,142.429566 160.05,142.39 C159.94,142.39 159.8,142.39 159.78,142.54 C159.765822,142.62273 159.765822,142.70727 159.78,142.79 C159.749711,142.849712 159.749711,142.920288 159.78,142.98 C159.91008,143.22765 160.11235,143.42992 160.36,143.56 C160.581136,143.713632 160.884806,143.660043 161.04,143.44 C161.2,143.17 161,142.89 160.8,142.73 Z" id="Shape" fill="#393B5B"></path><path d="M157,144.37 C156.816613,144.122747 156.556335,143.943367 156.26,143.86 C156.127234,143.832125 155.990603,143.885843 155.91237,143.996673 C155.834137,144.107504 155.829275,144.254234 155.9,144.37 C155.869085,144.67486 155.979648,144.977067 156.2,145.19 C156.423811,145.351829 156.726189,145.351829 156.95,145.19 C157.185482,144.975071 157.207624,144.611947 157,144.37 Z" id="Shape" fill="#393B5B"></path><path d="M161.31,118.13 C161.31,118.13 167.99,113.79 168.05,113.74 C168.11,113.69 163.6,110.25 163.6,110.25 L161,115.2" id="Shape" fill="#2C2CB5"></path><polyline id="Shape" fill="#2C2CB5" points="135.38 65.8 141.34 61.91 142.82 69.78 136.78 68.56"></polyline><path d="M143.65,61.72 C143.001146,61.3451519 142.202606,61.3406884 141.549602,61.7082597 C140.896598,62.075831 140.48615,62.760826 140.47,63.51 L139.81,97.1 C139.810185,98.1592019 140.368902,99.1398071 141.28,99.68 L164.91,113.77 C165.838298,114.330193 166.996628,114.34591 167.939783,113.81111 C168.882938,113.27631 169.464139,112.274221 169.46,111.19 L169.46,78.35 C169.463001,77.2506382 168.864441,76.2376916 167.9,75.71 L143.65,61.72 Z" id="Shape" fill="#2C2CB5"></path><path d="M137.3,65.9 C136.651146,65.5251519 135.852606,65.5206884 135.199602,65.8882597 C134.546598,66.255831 134.13615,66.940826 134.12,67.69 L133.46,101.28 C133.460185,102.339202 134.018902,103.319807 134.93,103.86 L158.56,118 C159.488298,118.560193 160.646628,118.57591 161.589783,118.04111 C162.532938,117.50631 163.114139,116.504221 163.11,115.42 L163.11,82.53 C163.113001,81.4306382 162.514441,80.4176916 161.55,79.89 L137.3,65.9 Z" id="Shape" fill="#5F5CEA"></path><ellipse id="Oval" fill="#68E1FD" transform="translate(147.230456, 86.125913) rotate(-4.560000) translate(-147.230456, -86.125913) " cx="147.230456" cy="86.125913" rx="5.09" ry="8.08"></ellipse><rect id="Rectangle-path" fill="#68E1FD" x="144.6" y="87.27" width="3.84" height="15.95" rx="1.42"></rect><ellipse id="Oval" fill="#68E1FD" cx="160.25" cy="75.28" rx="2.44" ry="1.47"></ellipse><path d="M152.86,49.29 C141.43,46.54 141.52,59.77 141.52,59.77 L141.52,64.5 C141.435697,65.1923589 141.50048,65.8947413 141.71,66.56 C142.274889,67.1296336 143.059672,67.4252963 143.86,67.37 C144.54,67.37 145.52,67.26 145.86,66.64 C146.046478,66.0628605 146.1045,65.4519251 146.03,64.85 C145.96,63.75 145.94,62.64 145.98,61.54 C146.05,59.16 146.26,56.26 147.79,54.31 C148.820318,53.0481231 150.559159,52.616467 152.06,53.25 C157.93,55.2 157.77,62.25 157.77,62.25 L157.77,75.25 L162.65,75.25 L162.65,61.91 C162.65,61.91 161.78,51.44 152.86,49.29 Z" id="Shape" fill="#68E1FD"></path><path d="M64.68,170 L27,194.51 C27,194.51 19,193.3 39.76,203 L80.9,176.25" id="Shape" fill="url(#linearGradient-2)" opacity="0.62" style="mix-blend-mode: multiply;"></path><path d="M59,165.81 C59,165.81 60.81,176.73 71.9,177.72 C86.66,179.04 87.42,165.81 87.42,165.81" id="Shape" fill="#68E1FD"></path><path d="M68,166 L59,166 C59,166 60.64,175.87 70.35,177.69 C67.5491449,174.48574 66.6549694,170.037693 68,166 Z" id="Shape" fill="#393B5B" opacity="0.37"></path><ellipse id="Oval" fill="#393B5B" cx="73.21" cy="165.81" rx="14.21" ry="4.22"></ellipse><path d="M86.77,156.55 C84.13,155.77 81.11,156.81 78.92,158.28 C78.207935,158.772535 77.538876,159.324509 76.92,159.93 C76.6372547,160.05462 76.363292,160.198283 76.1,160.36 C77.26,156.94 77.97,153.43 76.28,149.98 C75.4,148.18 72.75,145.4 70.67,147.28 C69.8927661,148.14019 69.5087093,149.285115 69.61,150.44 C69.6285531,151.902714 69.8301199,153.357354 70.21,154.77 C70.61,156.37 71.13,157.94 71.52,159.54 C71.5933333,159.833333 71.66,160.126667 71.72,160.42 C70.4404059,159.110129 69.0775709,157.884246 67.64,156.75 C67.34,156.52 67.03,156.31 66.7,156.11 C65.2723792,154.673619 63.4081383,153.752051 61.4,153.49 C60.1437278,153.25396 58.84476,153.508028 57.77,154.2 C56.7896551,155.020258 56.3957315,156.34778 56.77,157.57 C57.4,160.41 59.95,162.57 62.33,163.98 C64.9684644,165.557117 67.9588279,166.450789 71.03,166.58 C71.1762604,166.725553 71.3736647,166.808104 71.58,166.81 C74.7904193,166.90595 77.9998984,166.590043 81.13,165.87 C83.76,165.26 86.99,164.45 88.8,162.27 C90.61,160.09 89.36,157.32 86.77,156.55 Z" id="Shape" fill="#19B50F"></path><path d="M84.63,159.42 C81.87,162.23 78.13,163.56 74.7,165.36 C74.8083533,159.850154 74.3695355,154.343159 73.39,148.92 C73.28,148.29 72.32,148.56 72.39,149.18 C73.3524264,154.537619 73.7778672,159.9779 73.66,165.42 C69.1066667,162.306667 64.61,159.113333 60.17,155.84 C59.65,155.46 59.17,156.32 59.67,156.7 C64.09,159.96 68.5666667,163.14 73.1,166.24 L72.48,166.63 C71.94,166.98 72.48,167.84 72.98,167.49 L73.62,167.09 C73.62,167.19 73.62,167.3 73.62,167.4 C73.62,168.04 74.62,168.04 74.62,167.4 L74.62,167.27 L74.97,167.51 C75.5,167.87 75.97,167.01 75.47,166.65 L74.99,166.32 C78.54,164.41 82.44,163.05 85.31,160.12 C85.79,159.67 85.08,159 84.63,159.42 Z" id="Shape" fill="#393B5B"></path></g></g></svg>