<svg xmlns="http://www.w3.org/2000/svg" xmlns:xlink="http://www.w3.org/1999/xlink" width="246px" height="218px" viewBox="0 0 246 218"><title>facebook_flatline</title><desc>Created with Sketch.</desc><g id="Page-1" stroke="none" stroke-width="1" fill="none" fill-rule="evenodd"><g id="facebook_flatline" fill-rule="nonzero"><path d="M211.35,22.61 C211.35,22.61 209.02,18.33 205.35,12.42 C205.35,12.42 193.52,21.25 193.62,20.76 C193.72,20.27 211.35,22.61 211.35,22.61 Z" id="Path" fill="#231F20"></path><path d="M211.35,23.11 L211.28,23.11 C205.06,22.28 194.89,21.05 193.8,21.2 C193.5,21.32 193.42,21.26 193.32,21.2 C193.139366,21.0846071 193.048044,20.8701999 193.09,20.66 C193.09,20.52 193.15,20.38 193.48,20.3 L193.48,20.3 C194.17,20.03 200.92,15.08 205.02,12.02 C205.131262,11.9358527 205.273116,11.9031173 205.41,11.93 C205.54657,11.952335 205.666856,12.0325256 205.74,12.15 C209.42,18.01 211.74,22.33 211.8,22.37 C211.899558,22.5290374 211.899558,22.7309626 211.8,22.89 C211.700195,23.0385981 211.528567,23.1225054 211.35,23.11 L211.35,23.11 Z M195.35,20.27 C197.53,20.39 201.84,20.86 210.4,21.99 C209.57,20.5 207.7,17.23 205.14,13.15 C199.8,17.15 196.94,19.22 195.38,20.27 L195.35,20.27 Z" id="Shape" fill="#231F20"></path><polygon id="Path" fill="#231F20" points="54.73 200.96 48.83 191.12 56.99 183.74"></polygon><path d="M54.73,201.46 C54.5549805,201.459084 54.3926563,201.368484 54.3,201.22 L48.4,191.38 C48.2776527,191.173247 48.3196434,190.908705 48.5,190.75 L56.66,183.37 C56.8163186,183.229 57.0442093,183.201013 57.23,183.3 C57.4128994,183.400744 57.5159104,183.602804 57.49,183.81 L55.23,201 C55.2037583,201.214787 55.0423318,201.38832 54.83,201.43 L54.73,201.46 Z M49.47,191.22 L54.42,199.47 L56.32,185.02 L49.47,191.22 Z" id="Shape" fill="#231F20"></path><path d="M58.56,203 L153.56,216.53 C157.583177,217.054107 161.393503,214.585862 162.56,210.7 L211.71,26.8 C212.71,22.99 210.28,19.64 206.25,19.31 L109.39,11.5 C105.447165,11.3089929 101.88388,13.8359114 100.76,17.62 L53.59,195.44 C53.094486,197.111884 53.3612702,198.91719 54.3191787,200.37429 C55.2770872,201.83139 56.8286741,202.792057 58.56,203 Z" id="Path" fill="#231F20"></path><path d="M154.61,217.14 C154.22534,217.14 153.841199,217.111518 153.46,217.06 L58.46,203.52 L58.46,203.52 C56.6009146,203.291336 54.9330547,202.265803 53.89,200.71 C52.8531463,199.111321 52.5578279,197.142532 53.08,195.31 L100.25,17.52 C101.437188,13.5007149 105.213362,10.809933 109.4,11 L206.26,18.81 C208.265562,18.9152404 210.118541,19.9132808 211.31,21.53 C212.389885,23.1107784 212.705409,25.0919711 212.17,26.93 L163,210.86 C161.887803,214.569991 158.483055,217.11848 154.61,217.14 Z M58.61,202.53 L153.61,216.07 C157.366491,216.537095 160.91184,214.225646 162,210.6 L211.2,26.71 C211.665035,25.1575721 211.40412,23.4781608 210.49,22.14 C209.47422,20.7619907 207.890215,19.9166979 206.18,19.84 L109.32,12 C105.612951,11.8052492 102.258933,14.186188 101.22,17.75 L54.08,195.57 C53.6280285,197.124828 53.8724422,198.799243 54.75,200.16 C55.6409967,201.472612 57.0553873,202.336557 58.63,202.53 L58.61,202.53 Z" id="Shape" fill="#231F20"></path><path d="M52.37,192.88 L147.37,206.41 C151.395139,206.942794 155.210629,204.471205 156.37,200.58 L205.5,16.68 C206.5,12.87 204.07,9.52 200.04,9.19 L103.18,1.38 C99.237165,1.18899288 95.6738795,3.71591139 94.55,7.5 L47.41,185.29 C46.9040749,186.964324 47.1644504,188.776672 48.1212757,190.240846 C49.078101,191.70502 50.6334245,192.671131 52.37,192.88 Z" id="Path" fill="#FFFFFF"></path><path d="M148.42,207 C148.038662,207 147.657848,206.971508 147.28,206.92 L52.28,193.38 C50.4236496,193.151138 48.7589573,192.125308 47.72,190.57 C46.6780909,188.973241 46.382432,187.002181 46.91,185.17 L94.07,7.38 C95.2553773,3.36200694 99.0357468,0.676498553 103.22,0.88 L200.08,8.69 C202.069281,8.80431508 203.903278,9.80200928 205.08,11.41 C206.169426,12.9869686 206.48566,14.9726288 205.94,16.81 L156.79,200.71 C155.677998,204.413031 152.286205,206.961941 148.42,207 Z M102.59,1.86 C99.0728283,1.92350822 96.0020058,4.25798061 95,7.63 L47.89,185.42 C47.4463218,186.976614 47.6940654,188.648884 48.57,190.01 C49.4569216,191.322109 50.8681359,192.186341 52.44,192.38 L52.44,192.38 L147.44,205.92 C151.212146,206.404644 154.781793,204.09114 155.88,200.45 L205,16.56 C205.459196,15.0071769 205.198676,13.3303092 204.29,11.99 C203.271341,10.6153252 201.689048,9.77094606 199.98,9.69 L103.12,1.88 L102.59,1.86 Z" id="Shape" fill="#231F20"></path><path d="M91.63,191.81 L110.17,194.42 C112.598507,194.714084 114.883222,193.207865 115.57,190.86 L117.42,183.95 C117.732043,182.887634 117.554623,181.741481 116.935979,180.823182 C116.317336,179.904884 115.321778,179.309897 114.22,179.2 L95.66,176.68 C93.2492228,176.411851 90.9937184,177.91271 90.31,180.24 L88.49,187.09 C88.1779929,188.139607 88.348263,189.273573 88.9547674,190.185261 C89.5612718,191.096949 90.541358,191.692181 91.63,191.81 L91.63,191.81 Z" id="Path" fill="#FFFFFF"></path><path d="M110.79,195 C110.558988,195.003291 110.328124,194.986562 110.1,194.95 L91.56,192.35 C90.3286827,192.210792 89.2216807,191.534948 88.5352079,190.50331 C87.848735,189.471673 87.6528617,188.189544 88,187 L89.82,180.15 C90.567324,177.583756 93.0541967,175.928656 95.71,176.23 L114.28,178.74 C115.529142,178.887556 116.652825,179.569792 117.36,180.61 C118.035146,181.648606 118.228384,182.928354 117.89,184.12 L116.06,191 C115.37691,193.349099 113.236261,194.97388 110.79,195 L110.79,195 Z M95.05,177.18 C93.079282,177.201662 91.3541789,178.508682 90.8,180.4 L89,187.22 C88.7307138,188.132035 88.8796754,189.116527 89.4067272,189.908069 C89.933779,190.699612 90.7846652,191.216724 91.73,191.32 L91.73,191.32 L110.26,193.92 C112.442639,194.190461 114.499916,192.840108 115.12,190.73 L116.96,183.82 C117.227986,182.904815 117.081817,181.918177 116.56,181.12 C116.011772,180.320543 115.143259,179.798706 114.18,179.69 L95.62,177.18 C95.4315312,177.15006 95.2408032,177.136676 95.05,177.14 L95.05,177.18 Z" id="Shape" fill="#E6E7E8"></path><path d="M166.78,16.45 L166.78,16.45 L138.45,14.08 C138.271367,14.0657094 138.113928,13.9572048 138.036987,13.795359 C137.960047,13.6335131 137.975295,13.4429142 138.076987,13.295359 C138.17868,13.1478038 138.351367,13.0657094 138.53,13.08 L166.86,15.44 C167.136142,15.44 167.36,15.6638576 167.36,15.94 C167.36,16.2161424 167.136142,16.44 166.86,16.44 L166.78,16.45 Z" id="Path" fill="#D1D3D4"></path><path d="M134.52,13.75 L134.47,13.75 L130.72,13.44 C130.443858,13.4179086 130.237909,13.1761424 130.26,12.9 C130.282091,12.6238576 130.523858,12.4179086 130.8,12.44 L134.56,12.76 C134.836142,12.76 135.06,12.9838576 135.06,13.26 C135.06,13.5361424 134.836142,13.76 134.56,13.76 L134.52,13.75 Z" id="Path" fill="#D1D3D4"></path><polygon id="Path" fill="#FFFFFF" points="195.33 28.8 157.24 175.89 58.34 164.13 96.66 20.19"></polygon><path d="M157.24,176.390005 L157.19,176.390005 L58.28,164.62 C58.13744,164.606956 58.0085969,164.52965 57.93,164.41 C57.8482324,164.289984 57.8226846,164.140347 57.86,164 L96.18,20.06 C96.2424845,19.8237025 96.4666451,19.667213 96.71,19.69 L195.37,28.3 C195.516874,28.3164194 195.6506,28.392318 195.74,28.51 C195.822209,28.6335922 195.847682,28.786426 195.81,28.93 L157.73,176 C157.678389,176.228857 157.474602,176.390005 157.24,176.390005 Z M59,163.7 L156.9,175.35 L194.7,29.25 L97,20.73 L59,163.7 Z" id="Shape" fill="#231F20"></path><path d="M167.46,45.73 L118.89,41.2 C117.680675,41.1253449 116.570366,40.5065681 115.870726,39.5173548 C115.171086,38.5281415 114.95753,37.2751191 115.29,36.11 L115.29,36.11 C116.081406,33.4654371 118.595509,31.7188407 121.35,31.9 L169.92,36.29 C171.169613,36.3336552 172.329406,36.950667 173.063912,37.9625659 C173.798418,38.9744647 174.025693,40.2683619 173.68,41.47 L173.68,41.47 C172.869015,44.1779039 170.277968,45.9524797 167.46,45.73 L167.46,45.73 Z" id="Path" fill="#E6E7E8"></path><path d="M186.91,48.05 L186.91,48.05 L176.53,47.05 C176.384727,47.0370651 176.252767,46.9600883 176.17,46.84 C176.084786,46.7215535 176.055564,46.5717928 176.09,46.43 L178.38,37.64 C178.442485,37.4037025 178.666645,37.247213 178.91,37.27 L189.28,38.21 C189.428036,38.2227595 189.563146,38.2994438 189.65,38.42 C189.731768,38.5400159 189.757315,38.6896528 189.72,38.83 L187.44,47.65 C187.390147,47.8983273 187.162479,48.0701517 186.91,48.05 Z M177.17,46.14 L186.54,47.01 L188.54,39.18 L179.17,38.33 L177.17,46.14 Z" id="Shape" fill="#D1D3D4"></path><path d="M184.24,44.25 C184.062444,44.2489283 183.898776,44.1537723 183.81,44 L182.21,41.34 C180.21,42.44 178.05,43.63 177.71,43.91 C177.583449,44.0680751 177.376644,44.1383107 177.18,44.09 C176.915884,44.0169355 176.759792,43.7448896 176.83,43.48 C176.89,43.23 176.95,43.03 182.16,40.23 C182.395578,40.1083171 182.685178,40.191687 182.82,40.42 L184.67,43.49 C184.809272,43.7281245 184.733953,44.0338296 184.5,44.18 C184.419887,44.2230618 184.330904,44.247019 184.24,44.25 Z" id="Path" fill="#D1D3D4"></path><path d="M188.06,43.64 C187.914072,43.6440671 187.774225,43.5815038 187.68,43.47 L186.1,41.68 L183.91,43.15 C183.680802,43.3046397 183.36964,43.2441981 183.215,43.015 C183.06036,42.7858018 183.120802,42.4746397 183.35,42.32 L185.9,40.6 C186.111915,40.462346 186.392679,40.5006319 186.56,40.69 L188.43,42.81 C188.621783,43.0078137 188.621783,43.3221863 188.43,43.52 C188.325855,43.6045732 188.193958,43.6473508 188.06,43.64 Z" id="Path" fill="#D1D3D4"></path><path d="M106.89,65.66 C105.90586,68.9891794 102.731831,71.1801758 99.27,70.92 C97.7341658,70.8297638 96.3253829,70.0375075 95.4504757,68.7720168 C94.5755686,67.5065261 94.3319605,65.9087168 94.79,64.44 C95.7717818,61.1225064 98.9290018,58.9344988 102.38,59.18 C103.921216,59.2614207 105.338456,60.0500298 106.220104,61.3167872 C107.101752,62.5835446 107.348985,64.1864637 106.89,65.66 Z" id="Path" fill="#68E1FD"></path><path d="M93.53,116.1 C92.5660432,119.436668 89.368463,121.618743 85.91,121.3 C84.3665131,121.159652 82.9683051,120.331653 82.1032367,119.045688 C81.2381683,117.759724 80.9982372,116.152552 81.45,114.67 C82.4091635,111.338859 85.5976548,109.15726 89.05,109.47 C90.5987331,109.601149 92.0049485,110.426051 92.8751575,111.713883 C93.7453666,113.001715 93.9861016,114.614152 93.53,116.1 L93.53,116.1 Z" id="Path" fill="#E6E7E8"></path><path d="M87.64,138.38 C86.6843109,141.723705 83.4697553,143.901851 80.01,143.55 C78.4604064,143.395996 77.0613951,142.555625 76.1976007,141.259933 C75.3338062,139.964241 75.0961604,138.349627 75.55,136.86 C76.5037402,133.528422 79.7009754,131.353461 83.15,131.69 C84.7034062,131.839236 86.1081158,132.676943 86.9777764,133.972718 C87.847437,135.268493 88.0904585,136.885868 87.64,138.38 Z" id="Path" fill="#E6E7E8"></path><path d="M154.1,67.7 L154.1,67.7 L112.91,63.58 C112.777123,63.567383 112.654806,63.5021615 112.570285,63.3988578 C112.485764,63.295554 112.446055,63.1627443 112.46,63.03 C112.491391,62.7571795 112.736943,62.5607379 113.01,62.59 L154.2,66.7 C154.476142,66.7138072 154.688807,66.9488576 154.675,67.225 C154.661193,67.5011423 154.426142,67.7138071 154.15,67.7 L154.1,67.7 Z" id="Path" fill="#D1D3D4"></path><path d="M126.55,71.32 L126.49,71.32 L111.23,69.77 C111.097123,69.757383 110.974806,69.6921615 110.890285,69.5888578 C110.805764,69.485554 110.766055,69.3527443 110.78,69.22 C110.811457,68.9459372 111.055135,68.7465643 111.33,68.77 L126.6,70.33 C126.876142,70.33 127.1,70.5538576 127.1,70.83 C127.1,71.1061424 126.876142,71.33 126.6,71.33 L126.55,71.32 Z" id="Path" fill="#D1D3D4"></path><path d="M169,83.89 L169,83.89 L95.14,76.15 C95.0071229,76.137383 94.8848062,76.0721615 94.800285,75.9688578 C94.7157637,75.865554 94.6760549,75.7327443 94.69,75.6 C94.721391,75.3271795 94.9669429,75.1307379 95.24,75.16 L169.1,82.9 C169.372821,82.931391 169.569262,83.1769429 169.54,83.45 C169.527396,83.5802318 169.463231,83.7000137 169.361799,83.782662 C169.260367,83.8653103 169.130093,83.9039596 169,83.89 Z" id="Path" fill="#D1D3D4"></path><path d="M160.74,90.6 L160.69,90.6 L93.17,83.36 C92.8971795,83.328609 92.7007379,83.0830571 92.73,82.81 C92.7614571,82.5359372 93.005135,82.3365643 93.28,82.36 L160.79,89.61 C161.066142,89.61 161.29,89.8338576 161.29,90.11 C161.29,90.3861424 161.066142,90.61 160.79,90.61 L160.74,90.6 Z" id="Path" fill="#D1D3D4"></path><path d="M150.46,158.11 C150.152368,158.11 149.845075,158.089579 149.54,158.05 L149.54,158.05 L73.41,148.13 C71.7564994,147.951234 70.2648616,147.05552 69.33,145.68 C68.4002814,144.265753 68.1371314,142.515074 68.61,140.89 L90.53,58.49 C91.5690527,54.9944178 94.891475,52.6853343 98.53,52.93 L174.76,60.34 C176.517421,60.4637478 178.129236,61.3612354 179.16,62.79 C180.107828,64.1732805 180.393501,65.9056335 179.94,67.52 L157.94,152.52 C156.949297,155.826929 153.912115,158.096695 150.46,158.11 Z M149.67,157.06 C152.955214,157.440569 156.035667,155.395385 156.96,152.22 L178.96,67.27 C179.340411,65.9377417 179.109616,64.5053486 178.33,63.36 C177.457343,62.1894828 176.116663,61.4588669 174.66,61.36 L98.42,53.96 C95.2638235,53.7448792 92.3805454,55.7473865 91.48,58.78 L69.55,141.18 C69.1522745,142.535459 69.367866,143.997096 70.14,145.18 C70.9176395,146.306517 72.1486269,147.037074 73.51,147.18 L149.67,157.06 Z" id="Shape" fill="#D1D3D4"></path><path d="M171.31,99.35 L171.25,99.35 L82.84,89.64 C82.5671795,89.608609 82.3707379,89.3630571 82.4,89.09 C82.4314571,88.8159372 82.675135,88.6165643 82.95,88.64 L171.36,98.36 C171.492877,98.372617 171.615194,98.4378385 171.699715,98.5411422 C171.784236,98.644446 171.823945,98.7772557 171.81,98.91 C171.775334,99.1602718 171.562648,99.3474353 171.31,99.35 L171.31,99.35 Z" id="Path" fill="#D1D3D4"></path><path d="M167.75,113.1 L167.69,113.1 L79.29,103 C79.0138576,102.969624 78.8146244,102.721142 78.845,102.445 C78.8753757,102.168858 79.1238576,101.969624 79.4,102 L167.8,112.13 C168.076142,112.143807 168.288807,112.378858 168.275636,112.655 C168.261193,112.931142 168.026142,113.143807 167.75,113.13 L167.75,113.1 Z" id="Path" fill="#D1D3D4"></path><path d="M90.55,101.91 L90.5,101.91 L89.11,101.84 C88.8337106,101.82343 88.5766465,101.693088 88.4,101.48 C88.2367575,101.258965 88.1716609,100.980496 88.22,100.71 L88.99,96.86 C89.1129977,96.3389205 89.5847923,95.9756803 90.12,95.99 L91.51,96.05 C91.7862894,96.0665698 92.0433535,96.1969122 92.22,96.41 C92.3832425,96.6310354 92.4483391,96.909504 92.4,97.18 L91.63,101.03 C91.5218071,101.540853 91.0721766,101.907218 90.55,101.91 Z M90.07,96.99 C90.07,96.99 89.97,96.99 89.97,97.06 L89.21,100.91 L90.55,100.91 C90.5964814,100.91629 90.6400003,100.885827 90.65,100.84 L91.42,96.98 L90.07,96.99 Z" id="Shape" fill="#D1D3D4"></path><path d="M98.23,102.29 L98.23,102.29 L92.31,102 C92.1636391,101.989661 92.0288215,101.916787 91.94,101.8 C91.8517002,101.686831 91.818682,101.540083 91.85,101.4 L92.64,97.4 C92.6623335,97.3052002 92.7108419,97.2185781 92.78,97.15 C93.32,96.58 93.9,95.87 94.46,95.15 C96,93.26 96.92,92.2 97.78,92.45 C98.0253403,92.5164146 98.2252794,92.6941383 98.32,92.93 C98.6,93.6 98.05,94.93 97.57,95.88 C98.4217352,95.8895324 99.2661915,96.0381567 100.07,96.32 C100.42,96.5 101.22,96.92 98.71,102 C98.6266019,102.187722 98.4349692,102.3035 98.23,102.29 Z M92.91,101 L97.91,101.25 C98.5983445,99.9531646 99.1127738,98.5712662 99.44,97.14 C98.5446339,96.9338614 97.6287892,96.8298644 96.71,96.83 C96.5313011,96.8332208 96.3656114,96.7368896 96.28,96.58 C96.1903534,96.4289674 96.1903534,96.2410326 96.28,96.09 C96.7800098,95.2668327 97.1446479,94.3687426 97.36,93.43 C96.5470296,94.1180769 95.8186012,94.9002144 95.19,95.76 C94.66,96.42 94.1,97.1 93.56,97.68 L92.91,101 Z" id="Shape" fill="#D1D3D4"></path><path d="M147.9,150 L95.35,143.29 C94.4436721,143.199875 93.6250486,142.709418 93.118044,141.952781 C92.6110394,141.196145 92.4687149,140.252515 92.73,139.38 L92.73,139.38 C93.2907687,137.434063 95.1657921,136.170002 97.18,136.38 L149.73,143 C150.666645,143.079838 151.518251,143.575121 152.050812,144.349754 C152.583372,145.124388 152.74086,146.096878 152.48,147 L152.48,147 C151.876239,148.973396 149.950273,150.234946 147.9,150 Z" id="Path" fill="#E6E7E8"></path><path d="M137.12,129.3 L103.39,125.21 C101.674445,125.071278 100.113433,124.164796 99.142638,122.743553 C98.1718435,121.32231 97.8952301,119.538507 98.39,117.89 L99.01,115.55 C100.080645,111.873361 103.606579,109.47103 107.42,109.82 L141.16,113.73 C142.904678,113.863415 144.496748,114.77471 145.495355,116.211541 C146.493963,117.648373 146.793124,119.458247 146.31,121.14 L145.69,123.52 C144.597182,127.258469 140.995591,129.687546 137.12,129.3 Z" id="Path" fill="#68E1FD"></path><path d="M149.27,144.88 L149.53,143.88 L145.53,143.37 L145.28,144.37 L144.49,144.27 L143.49,148.02 L149.1,148.73 L150.1,144.97 L149.27,144.88 Z M146.6,147.17 C146.291155,147.153457 146.007345,146.994935 145.831296,146.740641 C145.655246,146.486348 145.606771,146.164902 145.7,145.87 C145.893776,145.218814 146.524376,144.798414 147.2,144.87 C147.511265,144.885684 147.797422,145.045593 147.973903,145.302471 C148.150384,145.559349 148.197009,145.883822 148.1,146.18 C147.909273,146.832338 147.274792,147.251095 146.6,147.17 L146.6,147.17 Z" id="Shape" fill="#231F20"></path><path d="M107.09,129.69 L107,129.69 L98,128.59 C97.7257042,128.553602 97.5304681,128.30512 97.56,128.03 C97.6011817,127.758462 97.8464283,127.565769 98.12,127.59 L107.12,128.69 C107.396142,128.706569 107.606569,128.943858 107.59,129.22 C107.573431,129.496142 107.336142,129.706569 107.06,129.69 L107.09,129.69 Z" id="Path" fill="#D1D3D4"></path><path d="M119.64,131.23 L119.58,131.23 L110.52,130.12 C110.389627,130.105027 110.270709,130.038385 110.189882,129.935002 C110.109055,129.831618 110.073074,129.700133 110.09,129.57 C110.102475,129.437817 110.168056,129.316355 110.271732,129.233415 C110.375408,129.150474 110.508303,129.113155 110.64,129.13 L119.7,130.24 C119.833014,130.254991 119.954463,130.32269 120.037163,130.427944 C120.119862,130.533197 120.156905,130.667216 120.14,130.8 C120.100886,131.046304 119.889384,131.228196 119.64,131.23 L119.64,131.23 Z" id="Path" fill="#D1D3D4"></path><path d="M140.17,119.85 L140.11,119.85 L106.86,115.93 C106.585704,115.893602 106.390468,115.64512 106.42,115.37 C106.456398,115.095704 106.70488,114.900468 106.98,114.93 L140.23,118.85 C140.408633,118.860718 140.567978,118.965921 140.648013,119.125981 C140.728047,119.28604 140.716611,119.476639 140.618013,119.625981 C140.519414,119.775322 140.348633,119.860718 140.17,119.85 L140.17,119.85 Z" id="Path" fill="#FFFFFF"></path><path d="M134.27,123.71 L134.21,123.71 L105.71,120.3 C105.437179,120.268609 105.240738,120.023057 105.27,119.75 C105.301391,119.477179 105.546943,119.280738 105.82,119.31 L134.33,122.71 C134.603157,122.746286 134.795466,122.996735 134.76,123.27 C134.729958,123.51871 134.520497,123.706797 134.27,123.71 Z" id="Path" fill="#FFFFFF"></path><path d="M126.48,106.84 C126.2,106.84 125.98,106.55 124.97,104.92 C124.62,104.92 124.28,104.92 123.97,104.92 C122.293948,104.813962 120.745032,103.990303 119.72,102.66 C119.147136,101.869606 118.959883,100.863577 119.21,99.92 C119.83,97.58 122.84,96.02 126.06,96.38 C127.744019,96.4789946 129.303692,97.2989161 130.34,98.63 C130.911526,99.4209681 131.098662,100.426369 130.85,101.37 L130.85,101.37 C130.333406,102.892088 129.104521,104.064945 127.56,104.51 C127.24,105.71 127.08,106.34 127.06,106.44 C127.020754,106.648481 126.865104,106.815805 126.66,106.87 L126.48,106.84 Z M125.24,103.91 C125.413075,103.908735 125.57498,103.995335 125.67,104.14 C125.94,104.59 126.15,104.93 126.32,105.14 L126.65,103.9 C126.694252,103.737481 126.818874,103.609082 126.98,103.56 C128.301083,103.248243 129.380619,102.2999 129.86,101.03 L129.86,101.03 C130.031248,100.368301 129.899326,99.6647164 129.5,99.11 C128.619929,98.0308894 127.329719,97.3676637 125.94,97.28 C123.22,96.98 120.64,98.28 120.16,100.09 C119.988752,100.751699 120.120674,101.455284 120.52,102.01 C121.392558,103.086256 122.676985,103.746611 124.06,103.83 C124.445854,103.865448 124.834146,103.865448 125.22,103.83 L125.24,103.91 Z" id="Shape" fill="#D1D3D4"></path><path d="M123.82,100.6 C123.712583,100.962113 123.366535,101.19976 122.99,101.17 C122.82223,101.159039 122.668688,101.071945 122.573191,100.933572 C122.477694,100.795199 122.450733,100.620747 122.5,100.46 C122.599936,100.096992 122.94492,99.8571866 123.32,99.89 C123.487982,99.9017737 123.641748,99.9885138 123.738705,100.126194 C123.835663,100.263873 123.865518,100.437875 123.82,100.6 Z" id="Path" fill="#D1D3D4"></path><path d="M125.85,100.83 C125.749434,101.197039 125.398673,101.437923 125.02,101.4 C124.851477,101.386084 124.698265,101.296764 124.603127,101.156969 C124.507989,101.017174 124.481113,100.841876 124.53,100.68 C124.637954,100.319457 124.985261,100.085129 125.36,100.12 C125.52777,100.130961 125.681312,100.218055 125.776809,100.356428 C125.872306,100.494801 125.899267,100.669253 125.85,100.83 Z" id="Path" fill="#D1D3D4"></path><path d="M127.89,101.06 C127.785934,101.424536 127.437593,101.663758 127.06,101.63 C126.893059,101.612608 126.74227,101.522523 126.647837,101.383764 C126.553403,101.245005 126.524927,101.071679 126.57,100.91 C126.677954,100.549457 127.025261,100.315129 127.4,100.35 C127.56777,100.360961 127.721312,100.448055 127.816809,100.586428 C127.912306,100.724801 127.939267,100.899253 127.89,101.06 L127.89,101.06 Z" id="Path" fill="#D1D3D4"></path><path d="M153.44,107.48 C153.319414,107.479473 153.202759,107.437053 153.11,107.36 C152.929643,107.201295 152.887653,106.936753 153.01,106.73 C154.214072,104.837196 155.902384,103.300797 157.9,102.28 L157.54,101.45 C157.46,101.3 157.46,101.12 157.54,100.97 C157.634723,100.826209 157.797968,100.742688 157.97,100.75 L162.55,100.9 C162.717858,100.907574 162.871214,100.997344 162.96,101.14 C163.040039,101.286444 163.040039,101.463556 162.96,101.61 L161.08,105.61 C161.008725,105.771731 160.855877,105.882547 160.68,105.9 C160.507165,105.919232 160.336752,105.84728 160.23,105.71 L159.41,104.65 C157.366859,105.249192 155.432506,106.170795 153.68,107.38 C153.610218,107.433914 153.527419,107.468414 153.44,107.48 L153.44,107.48 Z M158.77,101.78 L159.01,102.32 C159.122652,102.571307 159.010877,102.866394 158.76,102.98 C157.655796,103.500989 156.642801,104.196579 155.76,105.04 C156.994366,104.459658 158.271449,103.974902 159.58,103.59 C159.774793,103.534008 159.984118,103.60115 160.11,103.76 L160.64,104.45 L161.85,101.88 L158.77,101.78 Z" id="Shape" fill="#D1D3D4"></path><path d="M158.91,109.14 L158.91,109.14 L152.08,108.36 C151.933827,108.34994 151.800707,108.272287 151.72,108.15 C151.638232,108.029984 151.612685,107.880347 151.65,107.74 L153.25,101.61 C153.312485,101.373702 153.536645,101.217213 153.78,101.24 L156.84,101.58 C157.116142,101.610376 157.315376,101.858858 157.285,102.135 C157.254624,102.411142 157.006142,102.610376 156.73,102.58 L154.1,102.28 L152.76,107.44 L158.59,108.1 L159.19,105.8 C159.220475,105.669755 159.302872,105.55763 159.418069,105.489645 C159.533267,105.42166 159.67125,105.403724 159.8,105.44 C160.064116,105.513065 160.220208,105.78511 160.15,106.05 L159.45,108.77 C159.386967,109.010396 159.156939,109.168008 158.91,109.14 Z" id="Path" fill="#D1D3D4"></path><path d="M187.62,53.9000028 L187.57,53.9000028 L91.47,44.75 C91.3379684,44.7399217 91.2156364,44.6768362 91.130866,44.5751117 C91.0460955,44.4733871 91.0061041,44.3416845 91.02,44.21 C91.0300783,44.0779684 91.0931638,43.9556364 91.1948883,43.870866 C91.2966129,43.7860955 91.4283155,43.7461041 91.56,43.76 L187.66,52.9 C187.792877,52.912617 187.915194,52.9778385 187.999715,53.0811422 C188.084236,53.184446 188.123945,53.3172557 188.11,53.45 C188.089125,53.7048862 187.875738,53.9008534 187.62,53.9000028 L187.62,53.9000028 Z" id="Path" fill="#D1D3D4"></path><path d="M110,41.22 L109.9,41.22 L106.5,40.98 C106.39,40.98 106.38,40.98 106.41,40.84 C106.82,39.38 107.22,37.92 107.63,36.46 C107.63,36.32 107.63,36.32 107.8,36.33 L109.08,36.44 C109.17,36.44 109.21,36.44 109.25,36.33 C109.43,35.88 109.61,35.43 109.8,34.98 L109.94,34.65 C109.94,34.56 109.94,34.53 109.87,34.52 L108.33,34.4 C108.23,34.4 108.21,34.4 108.24,34.26 C108.36,33.85 108.47,33.44 108.59,33.03 C108.69952,32.6795872 109.03349,32.4486946 109.4,32.47 L110.45,32.56 C110.54,32.56 110.58,32.56 110.6,32.44 L111.02,30.93 C111.02,30.85 111.02,30.81 110.95,30.8 C110.39,30.8 109.84,30.69 109.27,30.68 C108.483477,30.681566 107.743166,31.0517214 107.27,31.68 C107.02312,31.9711001 106.842299,32.3122723 106.74,32.68 C106.61,33.14 106.48,33.61 106.36,34.07 C106.36,34.17 106.29,34.19 106.19,34.18 L104.88,34.07 C104.79,34.07 104.76,34.07 104.73,34.18 C104.58,34.75 104.42,35.32 104.26,35.89 C104.26,35.99 104.26,36.01 104.34,36.02 L105.67,36.12 C105.76,36.12 105.78,36.12 105.75,36.25 L104.52,40.67 C104.52,40.76 104.52,40.79 104.38,40.78 L98.22,40.33 L98.12,40.33 L101.47,28.1 L113.4,29.16 L110,41.22 Z" id="Path" fill="#68E1FD"></path><path d="M71.8,20.94 L10.69,32.05 C7.71376783,32.5900686 5.07418595,34.2908322 3.35241919,36.7778287 C1.63065244,39.2648251 0.967870458,42.3341426 1.51,45.31 L9.3,88.19 C10.4345566,94.3860827 16.3718938,98.4934493 22.57,97.37 L74.91,87.85 L85,96.52 L84.47,86.07 C90.2639196,84.591121 93.9277515,78.8835784 92.86,73 L85.06,30.13 C84.5222521,27.151929 82.8224609,24.5098756 80.3351948,22.7860465 C77.8479287,21.0622173 74.7773156,20.3980854 71.8,20.94 Z" id="Path" fill="#FFFFFF"></path><path d="M20.52,98.05 C14.7697924,98.0381085 9.84628048,93.9260721 8.81,88.27 L1,45.4 C0.432161065,42.2910013 1.1254591,39.083851 2.92674801,36.4869928 C4.72803693,33.8901347 7.48908845,32.1172643 10.6,31.56 L71.71,20.45 C78.1664756,19.2769549 84.3553842,23.5474807 85.55,30 L93.35,72.87 C94.4434651,78.8648918 90.8431484,84.7202571 85,86.45 L85.51,96.45 C85.5163129,96.6468477 85.4064802,96.8290638 85.2294687,96.9154109 C85.0524573,97.001758 84.8412463,96.9761485 84.69,96.85 L74.79,88.34 L22.69,97.82 C21.975095,97.9620298 21.2487942,98.039011 20.52,98.05 L20.52,98.05 Z M71.89,21.43 L10.78,32.54 C7.93349388,33.0557537 5.40876177,34.681899 3.76192586,37.0602452 C2.11508995,39.4385914 1.48124216,42.3740398 2,45.22 L9.8,88.1 C10.8840968,94.0214096 16.5557831,97.9486498 22.48,96.88 L74.82,87.36 C74.9694461,87.3307995 75.1240538,87.3712919 75.24,87.47 L84.42,95.38 L84,86.1 C83.9921732,85.8621656 84.1498636,85.6505285 84.38,85.59 C89.9047734,84.1495152 93.3900433,78.6994244 92.38,73.08 L84.59,30.21 C83.5059032,24.2885904 77.8342169,20.3613502 71.91,21.43 L71.89,21.43 Z" id="Shape" fill="#231F20"></path><polygon id="Path" fill="#68E1FD" points="21.43 60.81 36.35 58.09 40.28 79.71 27.37 82.06"></polygon><path d="M27.37,82.56 C27.1449675,82.5587369 26.9485058,82.4072977 26.89,82.19 L21,60.94 C20.9455309,60.8122296 20.9455309,60.6677704 21,60.54 C21.0763105,60.4210731 21.2002468,60.340879 21.34,60.32 L36.26,57.6 C36.391361,57.576834 36.526533,57.6071165 36.6354547,57.6841129 C36.7443764,57.7611093 36.8180172,57.8784358 36.84,58.01 L40.77,79.62 C40.8186586,79.8903942 40.6400369,80.1493958 40.37,80.2 L27.46,82.55 L27.37,82.56 Z M22.06,61.2 L27.73,81.48 L39.73,79.31 L36,58.68 L22.06,61.2 Z" id="Shape" fill="#231F20"></path><circle id="Oval" fill="#231F20" cx="35.6" cy="76.69" r="1.74"></circle><path d="M36.6,59.44 C36.6,59.44 37.49,59.13 39.67,55.89 C41.85,52.65 44.48,44.66 44.53,43.34 C44.58,42.02 43.14,36.89 43.72,35.69 C44.3,34.49 47.33,33.06 49.08,34.69 C50.9560771,36.6371798 52.3290651,39.012449 53.08,41.61 C53.4,43.38 53.5,50.72 53.5,50.72 L68.5,48 C70.69,47.61 71.5,49.07 71.63,50.79 C71.76,52.51 70.18,54.86 70.18,54.86 C70.18,54.86 72.18,55.21 72.03,57.79 C71.9847275,59.2698828 71.2433168,60.6414925 70.03,61.49 C70.9639151,62.0129517 71.405627,63.1172315 71.09,64.14 C70.9152302,65.3379677 70.2712494,66.4172652 69.3,67.14 C70.4506523,67.5421127 71.0652597,68.793596 70.68,69.95 C70.22,72.23 69.2,73.8 67.37,74.2 C65.54,74.6 47.37,77.85 45.57,78.2 C43.77,78.55 43.57,77.62 42.57,77.47 C41.6484563,77.4285747 40.7257336,77.5194999 39.83,77.74 L36.6,59.44 Z" id="Path" fill="#FFFFFF"></path><path d="M44.91,78.7000284 C44.3223017,78.702585 43.7474075,78.5283746 43.26,78.2 C43.0521661,78.0552397 42.817616,77.9532614 42.57,77.9 C41.7152209,77.8635761 40.8596726,77.9511519 40.03,78.16 C39.8973362,78.1955403 39.7558464,78.1737727 39.64,78.1 C39.5234369,78.0259203 39.4435493,77.9060889 39.42,77.77 L36.1,59.53 C36.0587497,59.2936537 36.1878097,59.0605132 36.41,58.97 C36.48,58.97 37.32,58.48 39.25,55.61 C41.44,52.36 43.99,44.45 44.03,43.32 C43.9656952,42.4453587 43.8387023,41.5764601 43.65,40.72 C43.17,38.17 42.87,36.3 43.27,35.47 C43.9553516,34.4346846 45.0437231,33.7344989 46.27,33.54 C47.3860653,33.286544 48.5558079,33.5882929 49.41,34.35 C51.3734734,36.3664031 52.8092192,38.8360232 53.59,41.54 C53.86,43.05 53.97,48.35 54,50.15 L68.38,47.53 C69.2201632,47.3208816 70.1097064,47.4849367 70.82,47.98 C71.6195061,48.6847756 72.0843324,49.6943203 72.1,50.76 C72.07185,52.1340584 71.6558562,53.4721716 70.9,54.62 C72.0329886,55.2683755 72.6643227,56.5349896 72.5,57.83 C72.4554331,59.2160397 71.87041,60.52965 70.87,61.49 C71.5671106,62.2258997 71.8454589,63.2640635 71.61,64.25 C71.4302557,65.29153 70.9385788,66.2539615 70.2,67.01 C71.120169,67.7080443 71.5173086,68.8994632 71.2,70.01 C70.66,72.67 69.42,74.23 67.51,74.65 C66.05,74.97 54.21,77.09 48.51,78.11 L45.69,78.62 C45.4326231,78.6679378 45.1717494,78.6946941 44.91,78.7000284 Z M42.16,76.88 C42.3463253,76.8640359 42.5336747,76.8640359 42.72,76.88 C43.0791528,76.9481432 43.4198992,77.0912567 43.72,77.3 C44.2297525,77.6551261 44.8710716,77.7650665 45.47,77.6 L48.3,77.1 C53.98,76.1 65.81,73.96 67.3,73.64 C68.79,73.32 69.77,72.05 70.23,69.78 C70.5685428,68.8880925 70.1211758,67.8904642 69.23,67.55 C69.0447354,67.4911964 68.909004,67.3321968 68.88,67.14 C68.8611912,66.9468789 68.9494181,66.7589173 69.11,66.65 C69.9570491,66.0210866 70.5213382,65.0830008 70.68,64.04 C70.96,62.47 70.01,61.98 69.9,61.93 C69.7336499,61.8485446 69.6231854,61.6847525 69.61,61.5 C69.5994841,61.3169063 69.6920915,61.1432674 69.85,61.05 C70.9025464,60.2716214 71.5342548,59.0488409 71.56,57.74 C71.65,55.74 70.28,55.36 70.12,55.33 C69.9554883,55.2891991 69.8189777,55.1748253 69.75,55.02 C69.6751595,54.8722713 69.6751595,54.6977287 69.75,54.55 C70.17,53.94 71.24,52.07 71.11,50.82 C71.1220432,50.0308873 70.8028638,49.2728361 70.23,48.73 C69.7372581,48.4147614 69.1337313,48.3238688 68.57,48.48 L53.57,51.2 C53.4241198,51.2196766 53.27644,51.1800552 53.16,51.09 C53.04594,50.9968221 52.9798418,50.8572813 52.98,50.71 C52.98,50.64 52.88,43.39 52.57,41.71 C51.8294812,39.2168422 50.4985069,36.9390925 48.69,35.07 C48.0716208,34.5287136 47.2295672,34.3200631 46.43,34.51 C45.5056673,34.6473592 44.6742668,35.1476392 44.12,35.9 C43.83,36.49 44.28,38.9 44.58,40.53 C44.7923544,41.457087 44.9261617,42.4004284 44.98,43.35 C44.92,44.76 42.24,52.87 39.98,56.16 C39.1893406,57.4734958 38.2010882,58.6573749 37.05,59.67 L40.21,77.07 C40.852901,76.9477173 41.505586,76.8841223 42.16,76.88 L42.16,76.88 Z" id="Shape" fill="#231F20"></path><path d="M65.6,147.32 L78.45,139.57 L65,142.24 L64.56,138.52 C64.3368863,136.590114 63.3557477,134.828079 61.8327028,133.622022 C60.3096579,132.415966 58.3696461,131.864824 56.44,132.09 L12,137.26 C10.0701144,137.483114 8.30807874,138.464252 7.10202225,139.987297 C5.89596577,141.510342 5.34482445,143.450354 5.57,145.38 L8.57,171.6 C8.80481236,173.537812 9.80182926,175.302279 11.3406111,176.50328 C12.8793929,177.70428 14.833183,178.242882 16.77,178 L61.19,172.83 C65.210474,172.360273 68.0891282,168.720544 67.62,164.7 L65.6,147.32 Z" id="Path" fill="#FFFFFF"></path><path d="M15.92,178.58 C11.9499039,178.572557 8.61033644,175.602144 8.14,171.66 L5.14,145.44 C4.65278907,141.153116 7.7165491,137.276522 12,136.76 L56.43,131.59 C60.7219737,131.097353 64.6036724,134.169619 65.11,138.46 L65.48,141.65 L78.39,139.08 C78.6304385,139.026879 78.8737591,139.15672 78.9634876,139.386027 C79.0532162,139.615333 78.9626372,139.875831 78.75,140 L66.17,147.58 L68.17,164.68 C68.6683771,168.973605 65.5932846,172.858874 61.3,173.36 L16.88,178.53 C16.5615238,178.568646 16.2407677,178.585352 15.92,178.58 L15.92,178.58 Z M57.3,132.58 C57.0368766,132.565129 56.7731234,132.565129 56.51,132.58 L12.08,137.75 C10.2804772,137.958129 8.6373487,138.872625 7.5121173,140.292292 C6.3868859,141.711959 5.87173416,143.520493 6.08,145.32 L9.08,171.55 C9.51861702,175.294426 12.904341,177.977959 16.65,177.55 L61.08,172.38 C64.8244258,171.941383 67.5079588,168.555659 67.08,164.81 L65.08,147.39 C65.061004,147.194442 65.1538529,147.004876 65.32,146.9 L75.73,140.63 L65.08,142.74 C64.9445307,142.76847 64.8033207,142.739504 64.69,142.66 C64.5814407,142.572849 64.509969,142.447774 64.49,142.31 L64.06,138.59 C63.6605418,135.154168 60.7589316,132.557313 57.3,132.54 L57.3,132.58 Z" id="Shape" fill="#231F20"></path><polygon id="Path" fill="#68E1FD" points="17.89 155.18 27.54 154.11 29.08 168.08 20.73 169"></polygon><path d="M20.73,169.5 C20.4923657,169.500049 20.2875269,169.332833 20.24,169.1 L17.4,155.28 C17.3709181,155.141073 17.4022527,154.996332 17.4861899,154.881873 C17.5701271,154.767413 17.6987559,154.694021 17.84,154.68 L27.48,153.62 C27.7530571,153.590738 27.998609,153.787179 28.03,154.06 L29.58,168.06 C29.5939451,168.192744 29.5542363,168.325554 29.469715,168.428858 C29.3851938,168.532162 29.2628771,168.597383 29.13,168.61 L20.79,169.53 L20.73,169.5 Z M18.49,155.61 L21.13,168.45 L28.53,167.64 L27.09,154.64 L18.49,155.61 Z" id="Shape" fill="#231F20"></path><circle id="Oval" fill="#231F20" cx="26.23" cy="165.94" r="1.12"></circle><path d="M27.63,155 C27.63,155 28.22,154.84 29.75,152.87 C31.3458977,150.465761 32.5822672,147.841423 33.42,145.08 C33.51,144.24 32.82,140.9 33.24,140.16 C33.66,139.42 35.66,138.65 36.71,139.78 C37.8258724,141.106947 38.6015824,142.685825 38.97,144.38 C39.09,145.52 38.83,150.21 38.83,150.21 L48.5,149.14 C49.91,148.99 50.34,149.96 50.37,151.06 C50.2383258,151.988972 49.8544018,152.864042 49.26,153.59 C50.0701421,153.886914 50.508554,154.763738 50.26,155.59 C50.1745844,156.529407 49.6523098,157.373936 48.85,157.87 C49.4247721,158.244502 49.6584443,158.970555 49.41,159.61 C49.2354654,160.354448 48.7758845,161.000734 48.13,161.41 C48.849614,161.717586 49.1883057,162.54649 48.89,163.27 C48.49,164.7 47.77,165.65 46.59,165.83 C45.41,166.01 33.59,167.26 32.5,167.38 C31.41,167.5 31.26,166.93 30.64,166.79 C30.0539597,166.722443 29.4612597,166.739281 28.88,166.84 L27.63,155 Z" id="Path" fill="#FFFFFF"></path><path d="M32.25,167.830259 C31.777502,167.837405 31.3161951,167.685983 30.94,167.4 C30.8373927,167.308109 30.7137628,167.24286 30.58,167.21 C30.0596827,167.130541 29.5303173,167.130541 29.01,167.21 C28.8764511,167.230508 28.7401637,167.198229 28.63,167.12 C28.5199744,167.035492 28.4509294,166.908303 28.44,166.77 L27.14,155 C27.1096462,154.769642 27.2486426,154.550618 27.47,154.48 C28.2217374,153.939915 28.8632586,153.261056 29.36,152.48 C30.8968449,150.147431 32.0954247,147.608866 32.92,144.94 C32.9163245,144.390911 32.8728774,143.84281 32.79,143.3 C32.59,141.57 32.49,140.39 32.79,139.82 C33.3058144,139.138311 34.0879454,138.709048 34.94,138.64 C35.7167573,138.52162 36.502817,138.786124 37.05,139.35 C38.2422658,140.752498 39.0670175,142.429493 39.45,144.23 C39.55,145.16 39.45,148.23 39.34,149.56 L48.42,148.56 C49.0156939,148.457264 49.6269145,148.613708 50.1,148.99 C50.6195065,149.521929 50.8916475,150.247638 50.85,150.99 C50.78309,151.844892 50.48209,152.664858 49.98,153.36 C50.6337267,153.879976 50.9455907,154.719314 50.79,155.54 C50.6975541,156.409788 50.2924568,157.216429 49.65,157.81 C50.009845,158.340893 50.1126093,159.005191 49.93,159.62 C49.7721073,160.247981 49.447306,160.821566 48.99,161.28 C49.482264,161.821456 49.6395139,162.588529 49.4,163.28 C48.92,165.02 48.01,166.01 46.69,166.2 C45.69,166.35 38.01,167.2 34.31,167.58 L32.58,167.76 C32.4720445,167.792103 32.3616919,167.815511 32.25,167.830259 L32.25,167.830259 Z M30.1,166.17 C30.334878,166.162515 30.569822,166.182653 30.8,166.23 C31.0604136,166.290569 31.3033666,166.410334 31.51,166.58 C31.7904255,166.806017 32.1575406,166.894124 32.51,166.82 L34.24,166.63 C37.65,166.26 45.64,165.41 46.58,165.27 C47.52,165.13 48.11,164.41 48.48,163.06 C48.74,162.11 48.1,161.84 48.03,161.81 C47.8494824,161.73801 47.7228433,161.572996 47.7,161.38 C47.6889626,161.183715 47.7895654,160.997987 47.96,160.9 C48.4767002,160.559093 48.8365028,160.026585 48.96,159.42 C49.19,158.53 48.66,158.25 48.66,158.24 C48.4920777,158.157703 48.3856386,157.987004 48.3856386,157.8 C48.3856386,157.612996 48.4920777,157.442297 48.66,157.36 C49.3103628,156.93877 49.7307813,156.241761 49.8,155.47 C49.93,154.35 49.26,154.09 49.12,154.05 C48.9574814,154.005748 48.8290824,153.881126 48.78,153.72 C48.7290417,153.562866 48.758983,153.390704 48.86,153.26 C49.391556,152.630151 49.7377525,151.865057 49.86,151.05 C49.8890104,150.602215 49.7418793,150.160822 49.45,149.82 C49.187946,149.62909 48.8579541,149.556565 48.54,149.62 L38.87,150.69 C38.7233187,150.698638 38.5792796,150.648224 38.47,150.55 C38.366595,150.447389 38.3120055,150.305457 38.32,150.16 C38.41,148.55 38.56,145.28 38.46,144.41 C38.1013648,142.824916 37.3713245,141.347699 36.33,140.1 C35.9939324,139.773014 35.5227956,139.624625 35.06,139.7 C34.5250041,139.742075 34.0269733,139.989299 33.67,140.39 C33.5650793,141.346495 33.5987599,142.313127 33.77,143.26 C33.8711656,143.874598 33.914688,144.497304 33.9,145.12 C33.0590275,147.96169 31.7912303,150.659131 30.14,153.12 C29.5715873,153.904466 28.8987033,154.60763 28.14,155.21 L29.35,166.21 C29.59,166.19 29.85,166.17 30.1,166.17 L30.1,166.17 Z" id="Shape" fill="#231F20"></path><path d="M243.67,176.49 L236.52,128.39 C236.285321,126.792748 235.425033,125.354408 234.128801,124.392082 C232.83257,123.429757 231.206829,123.022465 229.61,123.26 L169.24,132.26 L154.35,121.26 L160.6,133.62 C157.841454,134.586916 156.161408,137.379994 156.6,140.27 L163.75,188.38 C163.987063,189.975423 164.848356,191.411269 166.144312,192.371514 C167.440268,193.33176 169.064672,193.737704 170.66,193.5 L238.6,183.4 C241.902089,182.881861 244.166698,179.795382 243.67,176.49 Z" id="Path" fill="#FFFFFF"></path><path d="M169.71,194.07 C166.451357,194.057454 163.688036,191.671914 163.2,188.45 L156.05,140.35 C155.60948,137.412936 157.191034,134.544834 159.91,133.35 L153.91,121.48 C153.809464,121.270776 153.862896,121.020055 154.04,120.87 C154.221722,120.726401 154.478278,120.726401 154.66,120.87 L169.38,131.72 L229.54,122.72 C233.136816,122.200531 236.479928,124.677737 237.03,128.27 L244.18,176.37 L244.18,176.37 C244.705193,179.968258 242.225309,183.314984 238.63,183.86 L170.69,194 C170.365021,194.042852 170.03777,194.066227 169.71,194.07 L169.71,194.07 Z M155.71,122.91 L161.02,133.4 C161.079925,133.530098 161.079925,133.679902 161.02,133.81 C160.965928,133.945023 160.856778,134.050535 160.72,134.1 C158.170128,134.968826 156.605007,137.535289 157,140.2 L164.15,188.3 C164.367361,189.766703 165.158526,191.086964 166.349412,191.970283 C167.540299,192.853602 169.033333,193.227605 170.5,193.01 L238.43,182.91 C241.481212,182.452254 243.587362,179.612751 243.14,176.56 L236,128.46 C235.542254,125.408788 232.702751,123.302638 229.65,123.75 L169.29,132.75 C169.158205,132.768285 169.024641,132.732187 168.92,132.65 L155.71,122.91 Z" id="Shape" fill="#231F20"></path><polygon id="Path" fill="#68E1FD" points="226.03 154.09 209.86 154.93 211.09 178.34 225.07 177.61"></polygon><path d="M211.09,178.84 C210.825161,178.840477 210.60589,178.634362 210.59,178.37 L209.36,155 C209.354588,154.867363 209.402143,154.738019 209.492183,154.640476 C209.582222,154.542933 209.707355,154.4852 209.84,154.48 L226,153.63 C226.140928,153.619692 226.279445,153.670725 226.38,153.77 C226.477834,153.872136 226.531693,154.008578 226.530039,154.15 L225.53,177.67 C225.524925,177.929117 225.318953,178.139471 225.06,178.15 L211.06,178.88 L211.09,178.84 Z M210.39,155.41 L211.56,177.82 L224.56,177.13 L225.47,154.62 L210.39,155.41 Z" id="Shape" fill="#231F20"></path><circle id="Oval" fill="#231F20" cx="215.21" cy="174.06" r="1.86"></circle><path d="M209.94,156.39 C209.94,156.39 208.94,156.29 205.88,153.46 C202.82,150.63 198.13,142.98 197.75,141.62 C197.37,140.26 197.61,134.62 196.75,133.48 C195.89,132.34 192.36,131.64 190.94,133.78 C189.459348,136.263942 188.607997,139.072025 188.46,141.96 C188.56,143.87 190.26,151.52 190.26,151.52 L174.06,152.36 C171.69,152.49 171.24,154.2 171.49,156.02 C171.74,157.84 173.99,159.89 173.99,159.89 C173.99,159.89 172.05,160.75 172.8,163.39 C173.192913,164.911305 174.278081,166.159433 175.73,166.76 C174.890505,167.528328 174.702878,168.779179 175.28,169.76 C175.764782,170.94256 176.695008,171.887153 177.87,172.39 C176.770986,173.084308 176.436369,174.534313 177.12,175.64 C178.12,177.89 179.6,179.27 181.6,179.24 C183.6,179.21 203.3,178.11 205.21,178.01 C207.12,177.91 207.13,176.92 208.1,176.52 C209.046948,176.254356 210.026522,176.123073 211.01,176.13 L209.94,156.39 Z" id="Path" fill="#FFFFFF"></path><path d="M181.5,179.75 C179.45,179.75 177.81,178.44 176.62,175.86 C176.02399,174.782515 176.146907,173.450247 176.93,172.5 C175.972385,171.895322 175.222266,171.012623 174.78,169.97 C174.287691,169.003544 174.325443,167.852132 174.88,166.92 C173.593599,166.179883 172.657213,164.955378 172.28,163.52 C171.784153,162.219927 172.133081,160.748878 173.16,159.81 C172.090916,158.801972 171.328305,157.512467 170.96,156.09 C170.714754,154.991757 170.943452,153.841009 171.59,152.92 C172.199379,152.23665 173.07446,151.850156 173.99,151.86 L189.61,151.05 C189.2,149.22 188,143.62 187.92,141.98 C188.059601,138.983846 188.942821,136.069564 190.49,133.5 C191.17571,132.517936 192.292341,131.926122 193.49,131.91 C194.806247,131.802905 196.106477,132.256895 197.07,133.16 C197.68,133.92 197.83,135.93 197.96,138.69 C197.971027,139.627966 198.051245,140.56384 198.2,141.49 C198.53,142.65 203.12,150.25 206.2,153.09 C208.98,155.66 209.96,155.88 210,155.89 C210.237662,155.919922 210.416886,156.120482 210.42,156.36 L211.42,176.12 C211.42869,176.257724 211.377684,176.392525 211.28,176.49 C211.184612,176.58572 211.055134,176.639669 210.92,176.64 L210.92,176.64 C210.003813,176.624964 209.090486,176.746292 208.21,177 C207.962932,177.11411 207.741753,177.277443 207.56,177.48 C206.936119,178.135855 206.064996,178.498823 205.16,178.48 L201.99,178.65 C195.87,178.99 183.11,179.65 181.52,179.71 L181.5,179.75 Z M193.78,132.91 L193.57,132.91 C192.67826,132.907341 191.84018,133.335693 191.32,134.06 C189.90342,136.454219 189.080494,139.152731 188.92,141.93 C189.01,143.78 190.69,151.33 190.71,151.41 C190.74024,151.55325 190.707459,151.702587 190.62,151.82 C190.531179,151.936787 190.396361,152.009661 190.25,152.02 L174.05,152.86 C173.414479,152.840888 172.80054,153.09155 172.36,153.55 C171.903702,154.28077 171.773208,155.168857 172,156 C172.18,157.35 173.75,159 174.34,159.56 C174.463137,159.675188 174.522779,159.842931 174.5,160.01 C174.470328,160.179085 174.357582,160.321897 174.2,160.39 C174.05,160.46 172.68,161.16 173.29,163.29 C173.64282,164.643218 174.608618,165.75333 175.9,166.29 C176.080257,166.345099 176.21016,166.502557 176.23,166.69 C176.260549,166.872851 176.187421,167.057596 176.04,167.17 C175.390621,167.806166 175.270076,168.807942 175.75,169.58 C176.171768,170.63584 176.995419,171.481071 178.04,171.93 C178.226723,171.994225 178.35816,172.162325 178.375452,172.359026 C178.392744,172.555727 178.292654,172.744182 178.12,172.84 C177.70129,173.113674 177.40891,173.542931 177.307563,174.032772 C177.206217,174.522613 177.304262,175.032647 177.58,175.45 C178.58,177.7 179.94,178.81 181.58,178.76 C183.22,178.71 195.89,178.04 202.01,177.7 L205.17,177.53 C205.8433,177.550574 206.491238,177.272364 206.94,176.77 C207.222784,176.474204 207.563095,176.239389 207.94,176.08 C208.771062,175.813176 209.637232,175.671623 210.51,175.66 L209.51,156.76 C208.054023,156.000885 206.730293,155.011464 205.59,153.83 C202.49,150.97 197.72,143.21 197.32,141.76 C197.145429,140.769253 197.051786,139.76594 197.04,138.76 C196.96,137.01 196.83,134.37 196.37,133.76 C195.649351,133.151894 194.720841,132.847171 193.78,132.91 L193.78,132.91 Z" id="Shape" fill="#231F20"></path><path d="M239.51,52.66 L188.91,41.18 C187.193949,40.7887765 185.392761,41.0959609 183.903385,42.0338551 C182.414009,42.9717493 181.358689,44.4633733 180.97,46.18 L174.86,73.11 L161.79,78.11 L173.52,79.03 L173.07,81.03 C172.675996,82.7462547 172.982002,84.5487648 173.920332,86.0388337 C174.858663,87.5289026 176.351988,88.5837304 178.07,88.97 L228.67,100.45 C232.242768,101.258853 235.795653,99.02152 236.61,95.45 L244.51,60.6 C245.318853,57.0272319 243.08152,53.4743465 239.51,52.66 L239.51,52.66 Z" id="Path" fill="#FFFFFF"></path><path d="M230.15,101.12006 C229.614949,101.119431 229.081638,101.059056 228.56,100.94 L178,89.46 C174.157104,88.5859695 171.749106,84.7636081 172.62,80.92 L172.94,79.48 L161.79,78.61 C161.513858,78.6486599 161.25866,78.4561424 161.22,78.18 C161.18134,77.9038576 161.373858,77.6486599 161.65,77.61 L174.47,72.72 L180.52,46.04 C181.412986,42.2421236 185.189125,39.8642249 189,40.7 L239.6,52.17 L239.6,52.17 C243.439454,53.0488884 245.845026,56.8673993 244.98,60.71 L237.08,95.56 C236.3357,98.8233308 233.427107,101.133584 230.08,101.12006 L230.15,101.12006 Z M164,77.78 L173.52,78.53 C173.663857,78.5440604 173.794991,78.6185034 173.880799,78.7348204 C173.966607,78.8511373 173.999027,78.998402 173.97,79.14 L173.51,81.14 C172.770002,84.4416977 174.840609,87.7197853 178.14,88.47 L228.78,100 C230.36605,100.361442 232.030726,100.077646 233.407429,99.2111107 C234.784132,98.3445756 235.759956,96.9663676 236.12,95.38 L244,60.49 C244.740406,57.1859436 242.67077,53.9049221 239.37,53.15 L188.8,41.67 C187.212546,41.3088389 185.546626,41.5939911 184.169663,42.4625659 C182.792701,43.3311406 181.817808,44.7117864 181.46,46.3 L175.35,73.23 C175.310937,73.39077 175.194876,73.5218074 175.04,73.58 L164,77.78 Z" id="Shape" fill="#231F20"></path><polygon id="Path" fill="#68E1FD" points="229.48 71.86 216.56 70.08 213.97 88.79 225.15 90.33"></polygon><path d="M225.15,90.8300051 L225.08,90.8300051 L213.9,89.29 C213.76864,89.2702716 213.650529,89.1990832 213.571732,89.0921448 C213.492935,88.9852064 213.45993,88.8513086 213.48,88.72 L216.06,70 C216.101241,69.7297385 216.348253,69.5400685 216.62,69.57 L229.54,71.36 C229.681227,71.3770255 229.808518,71.4533995 229.89,71.57 C229.967698,71.6878948 229.993043,71.8327254 229.96,71.97 L225.64,90.44 C225.588389,90.6688572 225.384602,90.8310552 225.15,90.8300051 Z M214.54,88.36 L224.77,89.78 L228.86,72.28 L217,70.64 L214.54,88.36 Z" id="Shape" fill="#231F20"></path><circle id="Oval" fill="#231F20" cx="217.88" cy="86.02" r="1.5"></circle><path d="M216.39,71.24 C216.39,71.24 215.62,71.01 213.62,68.3 C211.566432,65.0134442 210.009628,61.4415562 209,57.7 C208.9,56.57 210,52.11 209.41,51.1 C208.82,50.09 206.22,48.98 204.77,50.46 C203.220708,52.1987764 202.11887,54.2891788 201.56,56.55 C201.35,58.08 201.56,64.39 201.56,64.39 L188.61,62.61 C186.71,62.34 186.1,63.61 186.02,65.11 C185.94,66.61 187.41,68.55 187.41,68.55 C186.317317,68.896 185.673346,70.0229499 185.93,71.14 C186.00893,72.4066945 186.684305,73.5607693 187.75,74.25 C186.958456,74.7288915 186.615194,75.7000712 186.93,76.57 C187.136689,77.5770683 187.728816,78.4634644 188.58,79.04 C187.606772,79.425713 187.121919,80.5199674 187.49,81.5 C187.97,83.44 188.91,84.75 190.49,85.03 C192.07,85.31 207.84,87.42 209.37,87.63 C210.9,87.84 211.05,87.07 211.88,86.9 C212.668874,86.8326879 213.463292,86.8764482 214.24,87.03 L216.39,71.24 Z" id="Path" fill="#FFFFFF"></path><path d="M209.83,88.17 C209.64359,88.1838462 209.45641,88.1838462 209.27,88.17 L206.92,87.85 C201.92,87.18 191.65,85.79 190.37,85.56 C188.69,85.26 187.54,83.95 186.98,81.66 C186.666835,80.7191208 186.9418,79.6821083 187.68,79.02 C187.042997,78.3923988 186.601821,77.593419 186.41,76.72 C186.176104,75.8831129 186.362483,74.9847681 186.91,74.31 C186.034791,73.5085676 185.498312,72.4034212 185.41,71.22 C185.220786,70.1155507 185.698674,69.0030905 186.63,68.38 C185.957855,67.4223739 185.563342,66.2976677 185.49,65.13 C185.45176,64.1951599 185.815794,63.2887172 186.49,62.64 C187.095301,62.1754124 187.872536,61.9966119 188.62,62.15 L201,63.82 C201,62.2 200.87,57.82 201.05,56.48 C201.619469,54.1131487 202.767059,51.9244817 204.39,50.11 C205.1088,49.4092523 206.122426,49.0999474 207.11,49.28 C208.199471,49.3978184 209.18792,49.9719909 209.83,50.86 C210.22,51.58 210.03,53.14 209.71,55.43 C209.580461,56.1669265 209.5036,56.9121471 209.48,57.66 C210.481003,61.3063015 212.003385,64.7889175 214,68 C215.78,70.41 216.51,70.75 216.54,70.76 C216.765887,70.8356551 216.90211,71.0655318 216.86,71.3 L214.68,87.09 C214.662745,87.2259529 214.590444,87.3488645 214.48,87.43 C214.367179,87.5106567 214.225463,87.5397266 214.09,87.51 C213.376914,87.3607987 212.645799,87.3169992 211.92,87.38 C211.71984,87.4306506 211.532493,87.5226211 211.37,87.65 C210.925765,87.9840938 210.385833,88.1664085 209.83,88.17 Z M188.11,63.07 C187.751291,63.0452054 187.395824,63.1518456 187.11,63.37 C186.672448,63.8536557 186.439454,64.4881162 186.46,65.14 C186.593364,66.2762124 187.039995,67.3529734 187.75,68.25 C187.851103,68.3886496 187.877294,68.5682508 187.82,68.73 C187.761468,68.8884863 187.625419,69.0056398 187.46,69.04 C187.34,69.04 186.22,69.4 186.37,71.1 C186.445636,72.1978401 187.020603,73.2003466 187.93,73.82 C188.091712,73.9072827 188.192513,74.0762368 188.192513,74.26 C188.192513,74.4437632 188.091712,74.6127173 187.93,74.7 C187.85,74.7 187.1,75.18 187.39,76.46 C187.565421,77.3315718 188.070534,78.1017791 188.8,78.61 C188.970325,78.7061576 189.065269,78.8960457 189.04,79.09 C189.020259,79.2819484 188.891828,79.4454058 188.71,79.51 C188.359928,79.6556215 188.08263,79.9351954 187.939876,80.2864467 C187.797121,80.637698 187.800766,81.031452 187.95,81.38 C188.42,83.28 189.27,84.31 190.55,84.54 C191.83,84.77 202.1,86.15 207.05,86.82 L209.41,87.14 C209.913686,87.2579904 210.443692,87.1402114 210.85,86.82 C211.123625,86.6251785 211.432788,86.4858855 211.76,86.41 C212.423108,86.3125835 213.096892,86.3125835 213.76,86.41 L215.82,71.41 C214.801008,70.5826516 213.914146,69.6047434 213.19,68.51 C211.087142,65.1462524 209.493237,61.4900434 208.46,57.66 C208.467681,56.8345473 208.547991,56.0113719 208.7,55.2 C208.88,53.9 209.19,51.73 208.93,51.2 C208.429053,50.5953393 207.711007,50.2111842 206.93,50.13 C206.259283,50.0014096 205.567579,50.2022267 205.07,50.67 C203.5983,52.3343532 202.545724,54.3263618 202,56.48 C201.79,57.95 202,64.18 202,64.24 C202.001539,64.3882939 201.939687,64.5301894 201.83,64.63 C201.718709,64.7230579 201.574137,64.7664294 201.43,64.75 L188.48,62.96 L188.11,63.07 Z" id="Shape" fill="#231F20"></path></g></g></svg>