<svg xmlns="http://www.w3.org/2000/svg" xmlns:xlink="http://www.w3.org/1999/xlink" width="282px" height="245px" viewBox="0 0 282 245"><title>progress__flatline</title><desc>Created with Sketch.</desc><g id="Page-1" stroke="none" stroke-width="1" fill="none" fill-rule="evenodd"><g id="progress__flatline" fill-rule="nonzero"><circle id="Oval" fill="#FFFFFF" cx="225.96" cy="56.33" r="55.07"></circle><path d="M226,111.9 C195.309536,111.9 170.43,87.0204635 170.43,56.33 C170.43,25.6395365 195.309536,0.76 226,0.76 C256.690464,0.76 281.57,25.6395365 281.57,56.33 C281.536931,87.0067556 256.676756,111.866931 226,111.9 Z M226,1.76 C203.928495,1.76 184.030293,15.0555537 175.583894,35.4469651 C167.137495,55.8383765 171.806272,79.3099064 187.413183,94.916817 C203.020094,110.523728 226.491623,115.192505 246.883035,106.746106 C267.274446,98.2997069 280.57,78.4015047 280.57,56.33 C280.536932,26.2055288 256.124471,1.79306751 226,1.76 Z" id="Shape" fill="#231F20"></path><circle id="Oval" fill="#68E1FD" cx="225.96" cy="56.33" r="42.23"></circle><circle id="Oval" fill="#FFFFFF" cx="225.96" cy="56.33" r="29.86"></circle><circle id="Oval" fill="#68E1FD" cx="225.96" cy="56.33" r="19.66"></circle><path d="M1.15,171.07 L1.15,184.21 L93.5,244.21 C93.5,244.21 143.43,207.07 174.96,162.02 C206.49,116.97 219.45,79.02 219.45,79.02 L233.94,79.02 L233.94,74.49 L214.76,68.23 L186.45,72.43 L186.45,77.04 L203.82,77.89 C203.82,77.89 177.41,137.24 118.37,164.81 C59.33,192.38 1.15,171.07 1.15,171.07 Z" id="Path" fill="#D1D3D4"></path><path d="M93.5,244.740446 C93.4035718,244.744395 93.3084695,244.716216 93.23,244.66 L0.87,184.66 C0.730730507,184.56588 0.649967039,184.40808 0.649967039,184.24 L0.649967039,171.07 C0.652345753,170.908091 0.729981936,170.756516 0.86,170.66 C0.99597346,170.570394 1.16559143,170.54827 1.32,170.6 C1.9,170.82 60,191.6 118.16,164.44 C173,138.83 199.92,85.03 203.06,78.44 L186.42,77.63 C186.155638,77.6141101 185.949523,77.3948386 185.95,77.13 L185.95,72.51 C185.951804,72.2606157 186.133696,72.0491136 186.38,72.01 L214.68,67.82 C214.755898,67.8046464 214.834102,67.8046464 214.91,67.82 L234.09,74.08 C234.295869,74.1447197 234.436985,74.3342187 234.44,74.55 L234.44,79.08 C234.434554,79.3522294 234.212284,79.5700545 233.94,79.57 L219.8,79.57 C218.42,83.45 205.02,119.97 175.37,162.33 C144.15,206.93 94.29,244.25 93.79,244.63 C93.7074373,244.69648 93.6058829,244.735001 93.5,244.740446 Z M1.64,183.94 L93.48,243.64 C97.53,240.57 144.64,204.51 174.55,161.78 C205.68,117.31 218.85,79.31 218.98,78.93 C219.049036,78.7300993 219.238535,78.5970469 219.45,78.6 L233.45,78.6 L233.45,74.93 L214.72,68.82 L187,72.94 L187,76.65 L203.9,77.47 C204.063749,77.4823527 204.212042,77.5713283 204.3,77.71 C204.370009,77.8553422 204.370009,78.0246578 204.3,78.17 C204.03,78.77 177.13,138.01 118.6,165.35 C63.41,191.11 8.31,174 1.64,171.77 L1.64,183.94 Z" id="Shape" fill="#231F20"></path><path d="M233.94,74.57 L218,74.57 C208.152554,96.752067 196.201217,117.938986 182.31,137.84 C147.02,187.51 94.31,227 94.31,227 L65.7,209.83 L37.88,193.13 L1.14,171.07 C1.14,171.07 61.61,176.2 134.57,130.3 C176.86,103.7 201.65,72.51 201.65,72.51 L186.45,72.51 L226.39,54 L233.94,74.57 Z" id="Path" fill="#FFFFFF"></path><path d="M94.32,227.500109 C94.2284298,227.50195 94.1382132,227.477661 94.06,227.43 L0.88,171.5 C0.676577232,171.381891 0.582987149,171.137963 0.655201731,170.914097 C0.727416314,170.690232 0.945905156,170.546974 1.18,170.57 C1.79,170.62 62.34,175.15 134.31,129.88 C172.31,106 196.37,78.09 200.59,73.01 L186.45,73.01 C186.271367,73.0475129 186.086291,72.9868768 185.964487,72.8509327 C185.842684,72.7149886 185.802658,72.5243896 185.859487,72.3509327 C185.916317,72.1774757 186.061367,72.0475129 186.24,72.01 L226.18,53.46 C226.30668,53.4004312 226.45332,53.4004312 226.58,53.46 C226.709892,53.5130931 226.811496,53.6183253 226.86,53.75 L234.41,74.36 C234.465388,74.5132 234.442669,74.6837777 234.349116,74.8171411 C234.255563,74.9505045 234.102905,75.0299307 233.94,75.03 L218.31,75.03 C216.84,78.41 203.31,109.08 182.7,138.09 C147.77,187.25 95.15,226.96 94.62,227.36 C94.5402891,227.441507 94.4336699,227.491262 94.32,227.500109 L94.32,227.500109 Z M3.12,171.67 L94.29,226.4 C98.4,223.27 148.29,184.77 181.88,137.55 C203.56,107.04 217.38,74.7 217.52,74.37 C217.601805,74.1889326 217.78132,74.0718576 217.98,74.07 L233.23,74.07 L226.11,54.64 L188.72,72 L201.65,72 C201.841198,71.9996174 202.015873,72.1083045 202.1,72.28 C202.18633,72.4530295 202.162826,72.6606485 202.04,72.81 C201.79,73.12 176.72,104.37 134.84,130.71 C97.08,154.47 62.74,164.31 40.59,168.38 C21.58,171.88 8,171.84 3.12,171.67 L3.12,171.67 Z" id="Shape" fill="#231F20"></path><path d="M107.81,182.58 C105.14,183.7 79.23,200.85 66.16,209.53 L38.37,192.92 C47.32,188.92 62.5,182.35 67.78,181.83 C75.33,181.08 96.55,176.83 104.34,172.97 C112.13,169.11 137.34,151.84 142.34,154.17 C147.34,156.5 111.38,181.08 107.81,182.58 Z" id="Path" fill="#E6E7E8"></path><path d="M120.28,48.73 C120.28,48.73 123.86,52.17 123.49,53.13 C123.12,54.09 121.17,53.95 121.17,53.95" id="Path" fill="#FFFFFF"></path><path d="M121.45,54.46 L121.13,54.46 C120.853858,54.44067 120.64567,54.2011424 120.665,53.925 C120.68433,53.6488576 120.923858,53.44067 121.2,53.46 C121.85,53.46 122.87,53.38 123.02,52.96 C123.17,52.54 121.61,50.72 119.93,49.11 C119.835344,49.0161167 119.782101,48.8883188 119.782101,48.755 C119.782101,48.6216812 119.835344,48.4938833 119.93,48.4 C120.022164,48.3059359 120.14831,48.2529286 120.28,48.2529286 C120.41169,48.2529286 120.537836,48.3059359 120.63,48.4 C122.06,49.77 124.39,52.23 123.97,53.34 C123.55,54.45 122.12,54.46 121.45,54.46 Z" id="Path" fill="#231F20"></path><path d="M118.5,43.53 C120.5,44.53 120.68,47.53 121.1,49.53 C121.68,52.22 122.21,54.92 122.67,57.63 C122.96,59.35 118.56,60.38 117.67,60.04 L119.88,66.6 L109.88,65.14 L109,59.46 C109,59.46 107.18,53.84 108.12,49.99 C108.775028,47.5574445 110.094269,45.3552477 111.93,43.63 C111.93,43.63 116.54,42.55 118.5,43.53 Z" id="Path" fill="#FFFFFF"></path><path d="M119.88,67.05 L119.8,67.05 L109.8,65.58 C109.584579,65.5515737 109.413608,65.3846731 109.38,65.17 L108.5,59.53 C108.45,59.37 106.68,53.81 107.64,49.87 C108.325222,47.331493 109.711465,45.0372606 111.64,43.25 C111.704454,43.1977593 111.779535,43.1602187 111.86,43.14 C112.06,43.14 116.71,42.03 118.81,43.08 L118.81,43.08 C120.7,44.08 121.13,46.42 121.47,48.35 C121.54,48.71 121.6,49.06 121.67,49.35 C122.25,52.02 122.78,54.76 123.24,57.46 C123.327573,58.1111633 123.036533,58.7553304 122.49,59.12 C121.310232,59.9445564 119.926469,60.4288735 118.49,60.52 L120.49,66.36 C120.541339,66.5119851 120.516635,66.6793745 120.423579,66.8100488 C120.330523,66.9407231 120.180418,67.0188116 120.02,67.02 L119.88,67.05 Z M110.27,64.65 L119.14,65.94 L117.2,60.15 C117.141412,59.9660329 117.191732,59.7647529 117.33,59.63 C117.470006,59.5000841 117.671794,59.4612788 117.85,59.53 C119.244873,59.5667776 120.616067,59.1645142 121.77,58.38 C122.08,58.13 122.21,57.89 122.17,57.66 C121.71,54.97 121.17,52.25 120.61,49.59 C120.54,49.26 120.47,48.9 120.41,48.52 C120.1,46.82 119.73,44.7 118.28,43.98 C116.83,43.26 113.48,43.79 112.13,44.09 C110.42554,45.733609 109.19572,47.8063389 108.57,50.09 C107.67,53.76 109.42,59.24 109.43,59.29 L110.27,64.65 Z" id="Shape" fill="#231F20"></path><path d="M122.15,55.59 C121.704902,56.0639695 121.075111,56.3200743 120.425551,56.2912477 C119.775991,56.2624211 119.171362,55.9515343 118.77,55.44" id="Path" fill="#FFFFFF"></path><path d="M120.44,56.83 L120.32,56.83 C119.553374,56.7733206 118.849139,56.3865385 118.39,55.77 C118.250355,55.637931 118.198776,55.4375057 118.257321,55.2544334 C118.315865,55.0713612 118.474168,54.9380536 118.664533,54.911518 C118.854898,54.8849825 119.043622,54.9699168 119.15,55.13 C119.438319,55.5232309 119.876088,55.7801035 120.36,55.84 C120.89524,55.8138602 121.404554,55.6016462 121.8,55.24 C121.893883,55.1453437 122.021681,55.0921008 122.155,55.0921008 C122.288319,55.0921008 122.416117,55.1453437 122.51,55.24 C122.604064,55.3321636 122.657071,55.4583103 122.657071,55.59 C122.657071,55.7216897 122.604064,55.8478364 122.51,55.94 C121.948206,56.4740156 121.214053,56.7896657 120.44,56.83 Z" id="Path" fill="#231F20"></path><ellipse id="Oval" fill="#231F20" transform="translate(118.451696, 47.989128) rotate(-15.820000) translate(-118.451696, -47.989128) " cx="118.451696" cy="47.9891283" rx="1" ry="1"></ellipse><path d="M108.34,67.17 L108.46,64.03 L120.58,63.31 L123.1,68.43 C118.144898,68.7305888 113.172456,68.3061121 108.34,67.17 Z" id="Path" fill="#FFFFFF"></path><path d="M120.28,69 C116.224575,68.9982767 112.182308,68.5386995 108.23,67.63 C107.995144,67.5812531 107.830099,67.3696571 107.84,67.13 L108,64 C108.005075,63.7408831 108.211047,63.5305285 108.47,63.52 L120.59,62.8 C120.791264,62.7903161 120.979362,62.9000397 121.07,63.08 L123.59,68.2 C123.670163,68.3428561 123.670163,68.5171439 123.59,68.66 C123.511476,68.8047017 123.364271,68.899064 123.2,68.91 C123.2,68.91 122.06,69 120.28,69 Z M108.85,66.75 C113.270784,67.7452413 117.801591,68.1653829 122.33,68 L120.28,63.85 L108.94,64.52 L108.85,66.75 Z" id="Shape" fill="#231F20"></path><path d="M149.78,78 C150.740916,76.6122775 151.603043,75.1586914 152.36,73.65 C152.415964,72.5579923 152.604,71.4767842 152.92,70.43 C153.41,69.43 154.78,68.43 155.5,69.78 C155.5,69.78 155.75,67.44 157.36,68.65 C158.808462,69.6493709 159.482525,71.4442138 159.05,73.15 C158.73,74.94 152.68,84.21 152.68,84.21" id="Path" fill="#FFFFFF"></path><path d="M152.68,84.72 C152.583759,84.7229055 152.489124,84.6948654 152.41,84.64 C152.178384,84.4906451 152.111294,84.1820337 152.26,83.95 C154.67,80.26 158.34,74.31 158.56,73.08 C158.954843,71.5636902 158.35451,69.9628025 157.06,69.08 C156.79,68.88 156.57,68.8 156.45,68.85 C156.33,68.9 156.04,69.5 156,69.85 C155.976942,70.0691153 155.813175,70.2473127 155.596782,70.2887498 C155.380388,70.3301869 155.162375,70.2250961 155.06,70.03 C154.84,69.62 154.62,69.62 154.55,69.62 C154.025762,69.7533471 153.593358,70.1229229 153.38,70.62 C153.123886,71.3017118 152.985254,72.0219255 152.97,72.75 C152.951474,73.0855608 152.911392,73.4195832 152.85,73.75 C152.093414,75.3295315 151.203524,76.8416752 150.19,78.27 C150.028044,78.4710624 149.739638,78.5157565 149.524423,78.373144 C149.309207,78.2305316 149.23796,77.9475131 149.36,77.72 C150.302682,76.3896393 151.141816,74.9888549 151.87,73.53 C151.919627,73.2454633 151.953014,72.9583321 151.97,72.67 C151.993168,71.8272572 152.162342,70.9949197 152.47,70.21 C152.821129,69.347242 153.599442,68.7321843 154.52,68.59 C154.776507,68.5821244 155.029881,68.648071 155.25,68.78 C155.393302,68.3921025 155.679516,68.0736894 156.05,67.89 C156.609835,67.6954718 157.231452,67.8306061 157.66,68.24 C159.26731,69.3521032 160.016419,71.3444145 159.54,73.24 C159.21,75.08 153.72,83.53 153.1,84.49 C153.005729,84.6304015 152.849071,84.7161906 152.68,84.72 L152.68,84.72 Z" id="Path" fill="#231F20"></path><path d="M75.52,97 C75.52,97 74.18,99.22 73.41,100.91 C72.8192141,102.527577 72.4035065,104.203818 72.17,105.91 C71.78,105.35 71.09,105.16 70.67,104.66 C70.5506547,105.386618 70.3142523,106.089071 69.97,106.74 C69.6034413,107.391081 68.9351725,107.815319 68.19,107.87 C67.7972371,107.853154 67.4123353,107.754374 67.06,107.58 C65.76,107.03 63.62,106.04 63.4799085,104.4 C63.4752928,103.766835 63.6522913,103.145605 63.99,102.61 C65.22,100.33 70.33,94.55 71.16,93.61" id="Path" fill="#FFFFFF"></path><path d="M68.18,108.29 C67.7223781,108.26925 67.2735489,108.157042 66.86,107.96 C65.75,107.49 63.16,106.39 62.98,104.36 C62.9649789,103.632432 63.1631151,102.916361 63.55,102.3 C64.92,99.75 70.73,93.3 70.79,93.2 C70.909684,93.0660254 71.0917511,93.0060784 71.2676185,93.0427404 C71.4434859,93.0794025 71.5864352,93.2071038 71.6426186,93.3777404 C71.698802,93.5483771 71.659684,93.7360254 71.54,93.87 C70.04,95.53 65.54,100.72 64.44,102.77 C64.1434618,103.218067 63.9836381,103.742706 63.98,104.28 C64.09,105.54 65.79,106.42 67.26,107.04 C67.5460531,107.186124 67.8593333,107.271254 68.18,107.29 C68.753148,107.238009 69.2629192,106.904408 69.54,106.4 C69.8605121,105.800856 70.0769234,105.151622 70.18,104.48 C70.2204556,104.292967 70.364112,104.145428 70.55,104.1 C70.7336971,104.046609 70.9314259,104.109882 71.05,104.26 C71.2268947,104.441325 71.4289663,104.596247 71.65,104.72 L71.82,104.84 C72.0541616,103.410935 72.436214,102.010076 72.96,100.66 C73.73,98.96 75.03,96.78 75.09,96.66 C75.1565602,96.5461027 75.2662339,96.463855 75.3942149,96.4318597 C75.522196,96.3998645 75.6576717,96.4208248 75.77,96.49 C75.8860941,96.5545274 75.970261,96.6642752 76.002475,96.7931313 C76.034689,96.9219873 76.0120701,97.0584315 75.94,97.17 C75.94,97.17 74.61,99.4 73.87,101.04 C73.303285,102.604608 72.897848,104.223005 72.66,105.87 C72.6272205,106.0697 72.4772956,106.229947 72.2802175,106.275932 C72.0831394,106.321917 71.8777758,106.24457 71.76,106.08 C71.5768408,105.856499 71.3528653,105.669853 71.1,105.53 L70.97,105.45 C70.8492365,105.956135 70.6537584,106.44146 70.39,106.89 C69.9380974,107.691782 69.1089022,108.208144 68.19,108.26 L68.18,108.29 Z" id="Path" fill="#231F20"></path><path d="M133.86,151.77 C133.86,151.77 132.86,158.67 135.72,159.69 C138.58,160.71 153.24,149.03 152.22,146.44 C151.2,143.85 146.22,142.96 141.72,146.44 C139.226594,148.396545 136.600271,150.177499 133.86,151.77 Z" id="Path" fill="#231F20"></path><path d="M136.11,160.24 C135.922735,160.243477 135.73639,160.212984 135.56,160.15 C132.41,159.04 133.26,152.45 133.37,151.7 C133.392042,151.5448 133.484232,151.408358 133.62,151.33 C136.338168,149.751213 138.944339,147.987036 141.42,146.05 C143.71872,144.076084 146.803827,143.281715 149.77,143.9 C151.063162,144.177735 152.147188,145.053866 152.69,146.26 C152.82,146.6 153.23,147.65 150.06,150.92 C146.73,154.36 139.14,160.24 136.11,160.24 Z M134.32,152.08 C134.08,154.08 133.95,158.53 135.89,159.22 C137.46,159.77 144.89,154.82 149.34,150.22 C151.5,148 151.88,146.9 151.76,146.61 C151.324702,145.701102 150.487839,145.049385 149.5,144.85 C146.834999,144.33444 144.080881,145.071821 142.03,146.85 C139.576483,148.759163 137.001012,150.506207 134.32,152.08 Z" id="Shape" fill="#231F20"></path><path d="M104.34,120.52 C104.34,120.52 121.82,125.21 134.87,122.82 L133.69,151.74 C133.69,151.74 138.64,153.54 144.03,146.58 C144.03,146.58 149.24,111.05 145.87,109.34 C142.5,107.63 111.61,109.65 111.61,109.65 L104.34,120.52 Z" id="Path" fill="#FFFFFF"></path><path d="M135.26,152.47 C134.671112,152.4799 134.084219,152.398949 133.52,152.23 C133.307871,152.151961 133.170448,151.945827 133.18,151.72 L134.33,123.44 C121.33,125.56 104.33,121.07 104.2,121.02 C104.038929,120.979354 103.910324,120.858315 103.86,120.7 C103.785159,120.552271 103.785159,120.377729 103.86,120.23 L111.13,109.36 C111.222218,109.227361 111.368976,109.142975 111.53,109.13 C114.7,108.93 142.65,107.13 146.05,108.88 C149.45,110.63 145.37,140.66 144.49,146.65 C144.473439,146.735999 144.439403,146.817685 144.39,146.89 C140.76,151.64 137.27,152.47 135.26,152.47 Z M134.26,151.35 C135.43,151.58 139.26,151.83 143.57,146.35 C146.09,129.1 147.57,110.74 145.66,109.78 C143.03,108.45 120.66,109.56 111.93,110.13 L105.2,120.13 C108.59,120.96 123.49,124.32 134.81,122.25 C134.964346,122.216856 135.12512,122.261724 135.24,122.37 C135.362587,122.469658 135.429604,122.622307 135.42,122.78 L134.26,151.35 Z" id="Shape" fill="#231F20"></path><path d="M94.68,115.48 C94.68,115.48 90.07,143.77 89.17,144.22 C88.27,144.67 63.17,166.45 63.17,166.45 L70.58,172.97 C70.58,172.97 98.58,156.03 100.17,151.02 C101.76,146.01 114.24,115.48 114.24,115.48 L94.68,115.48 Z" id="Path" fill="#FFFFFF"></path><path d="M70.59,173.48 C70.4643584,173.480761 70.3429739,173.434513 70.25,173.35 L62.84,166.84 C62.7250024,166.743097 62.6586335,166.600381 62.6586335,166.45 C62.6586335,166.299619 62.7250024,166.156903 62.84,166.06 C66.93,162.52 86.91,145.19 88.84,143.84 C89.6,142.42 92.51,125.71 94.19,115.4 C94.2292028,115.148171 94.4451444,114.961868 94.7,114.96 L114.27,114.96 C114.439996,114.96 114.598202,115.04692 114.69,115.19 C114.789765,115.330132 114.808742,115.512315 114.74,115.67 C114.62,115.98 102.24,146.25 100.69,151.18 C99.08,156.31 72.03,172.71 70.88,173.41 C70.7922451,173.461157 70.6914288,173.485492 70.59,173.48 Z M63.96,166.48 L70.65,172.35 C78.65,167.51 98.46,154.79 99.65,150.89 C101.09,146.29 111.51,120.74 113.44,116.02 L95.11,116.02 C90.53,144.14 89.71,144.55 89.4,144.7 C88.57,145.18 73.91,157.83 64,166.46 L63.96,166.48 Z" id="Shape" fill="#231F20"></path><path d="M84.34,142.16 C84.34,142.16 100.26,153.01 109.56,151.16 C136.35,145.71 150.03,108.7 150.03,108.7 C150.03,108.7 132.03,106.29 122.47,103.9 L94.68,112.8 L84.34,142.16 Z" id="Path" fill="#231F20"></path><path d="M107.2,151.840114 C97.78,151.840114 84.66,142.98 84.06,142.57 C83.8723302,142.442226 83.7943062,142.204048 83.87,141.99 L94.21,112.59 C94.2601077,112.444458 94.3744583,112.330108 94.52,112.28 L122.32,103.39 C122.408224,103.364715 122.501776,103.364715 122.59,103.39 C132.01,105.75 149.92,108.15 150.1,108.17 C150.250193,108.19125 150.382618,108.279534 150.46,108.41 C150.519529,108.547153 150.519529,108.702847 150.46,108.84 C150.32,109.21 136.37,146.18 109.62,151.61 C108.822916,151.766452 108.012285,151.843495 107.2,151.840114 Z M84.94,142 C87.22,143.49 101.19,152.35 109.46,150.67 C133.84,145.72 147.46,113.82 149.34,109.1 C146.08,108.66 130.98,106.53 122.49,104.42 L95.06,113.19 L84.94,142 Z" id="Shape" fill="#231F20"></path><path d="M129.69,73.35 C129.69,73.35 128.24,67.51 110.83,65.65 C106.62299,65.1511493 102.357974,65.707904 98.42,67.27 C97.97,69.97 93.85,103.55 92.05,112.76 C92.05,112.76 115.51,117.88 124.97,104.53 C125,104.53 128.35,76.27 129.69,73.35 Z" id="Path" fill="#68E1FD"></path><path d="M109.56,72 C109.56,72 91.84,74 87.34,76.19 C82.84,78.38 67.78,95.12 67.78,95.12 L74.67,101.73 C74.67,101.73 86.33,90.4 89.57,88.93 C92.81,87.46 106.19,90.38 106.19,90.38 L109.56,72 Z" id="Path" fill="#68E1FD"></path><path d="M129.69,73.35 L139.45,89.61 L150,76.13 L155.54,82.25 C155.54,82.25 146.22,100.57 141.71,100.48 C131.93,100.29 118.88,87.28 118.88,87.28 L129.69,73.35 Z" id="Path" fill="#68E1FD"></path><path d="M70.59,173 C70.06,166.32 67,164.34 64.81,165.07 C62.62,165.8 61.13,166.01 61.75,172.5 C62.37,178.99 65.88,188.33 69.41,187.5 C72.94,186.67 71.12,179.64 70.59,173 Z" id="Path" fill="#231F20"></path><path d="M69,188 C68.3612088,187.982806 67.7445965,187.762087 67.24,187.37 C64.33,185.29 61.82,178.01 61.24,172.51 C60.64,166.19 61.98,165.43 64.39,164.64 L64.65,164.56 C65.6871086,164.226147 66.8208897,164.40029 67.71,165.03 C69.57,166.26 70.77,169.03 71.08,172.92 C71.19,174.33 71.36,175.77 71.53,177.16 C72.18,182.53 72.73,187.16 69.53,187.93 C69.3559923,187.970305 69.1785052,187.993747 69,188 L69,188 Z M65.73,165.38 C65.4850229,165.38 65.2417351,165.420548 65.01,165.5 L64.75,165.59 C62.86,166.2 61.75,166.59 62.28,172.42 C62.78,177.59 65.17,184.66 67.81,186.56 C68.234442,186.915579 68.7958384,187.062349 69.34,186.96 C71.69,186.4 71.18,182.17 70.59,177.27 C70.42,175.88 70.25,174.43 70.14,173 C69.75,168.22 68.14,166.47 67.21,165.86 C66.7640084,165.550162 66.2330393,165.385981 65.69,165.39 L65.73,165.38 Z" id="Shape" fill="#231F20"></path><path d="M116,38.65 C111.217643,37.7662182 106.279511,38.7969411 102.25,41.52 C100.944412,42.3916967 99.845376,43.5385168 99.03,44.88 C96.73,48.88 98.31,53.8 96.89,58.06 C95.47,62.32 90.65,65.57 87.52,68.54 C83.92,71.95 80.42,75.61 78.26,80.08 C74.67,87.53 76.68,94.35 81.79,100.39 C82.4802456,101.239132 83.2806316,101.992436 84.17,102.63 C85.9612797,103.702707 87.9779981,104.34299 90.06,104.5 C93.91,105.01 99.46,105.39 102.86,103.04 C105.29,101.35 107.15,97.41 107.28,94.54 C107.41,91.67 106.23,88.54 107.05,85.68 C108.27,81.43 113.41,79.24 114.63,75 C115.5,71.94 114.07,68.71 112.28,66.09 C110.9,64.09 109.2,61.75 109.94,59.42 C110.38,58.04 111.59,57.07 112.48,55.94 C113.592178,54.503325 114.228405,52.7554473 114.3,50.94 C114.38,49.33 113.58,47.85 113.64,46.3 C115,46.92 116.64,46.3 118,46.16 C119.73,45.97 121.46,45.74 123.19,45.48 C122.827086,43.6510587 121.836713,42.0063313 120.39,40.83 C119.11308,39.7764882 117.611069,39.0306147 116,38.65 Z" id="Path" fill="#FFFFFF"></path><path d="M95.24,105.39 C93.4868085,105.371764 91.7365747,105.241498 90,105 C87.8445705,104.823668 85.7580297,104.156659 83.9,103.05 C82.9704121,102.386841 82.1359969,101.599529 81.42,100.71 C75.65,93.89 74.42,86.88 77.82,79.87 C80.02,75.32 83.62,71.56 87.19,68.17 C87.92,67.48 88.73,66.78 89.59,66.05 C92.3,63.71 95.38,61.05 96.43,57.9 C96.9320224,56.059945 97.164443,54.1567915 97.12,52.25 C97.18,49.68 97.25,47.02 98.61,44.63 C99.4660657,43.2206239 100.623821,42.0184712 102,41.11 C106.137468,38.2942269 111.215626,37.2168243 116.14,38.11 C117.829216,38.5089281 119.403465,39.2926299 120.74,40.4 C122.308348,41.6520124 123.373329,43.4269812 123.74,45.4 C123.760508,45.5335489 123.728229,45.6698363 123.65,45.78 C123.568387,45.8850349 123.450878,45.9562522 123.32,45.98 C121.59,46.24 119.83,46.47 118.11,46.66 C117.76,46.66 117.4,46.77 117.03,46.84 C116.114396,47.0655789 115.164464,47.1164681 114.23,46.99 C114.296164,47.4814862 114.389642,47.9689073 114.51,48.45 C114.74995,49.2682189 114.867887,50.1173593 114.86,50.97 C114.780849,52.8830423 114.11,54.724383 112.94,56.24 C112.67,56.59 112.37,56.91 112.08,57.24 C111.388443,57.8952467 110.843193,58.6892669 110.48,59.57 C109.84,61.57 111.28,63.66 112.55,65.57 L112.75,65.85 C115.13,69.34 115.94,72.48 115.17,75.19 C114.52,77.43 112.86,79.11 111.26,80.74 C109.66,82.37 108.17,83.87 107.59,85.86 C107.244595,87.5424552 107.244595,89.2775448 107.59,90.96 C107.78697,92.1662886 107.873994,93.3879715 107.85,94.61 C107.72,97.43 105.91,101.61 103.21,103.5 C101,105 98.08,105.39 95.24,105.39 Z M112.79,38.8 C109.149212,38.812675 105.593467,39.9016654 102.57,41.93 C101.323765,42.7537125 100.275346,43.843112 99.5,45.12 C98.26,47.29 98.2,49.71 98.14,52.27 C98.1932906,54.2956813 97.9438751,56.3179692 97.4,58.27 C96.27,61.69 93.07,64.43 90.26,66.85 C89.41,67.58 88.61,68.27 87.9,68.95 C84.4,72.27 80.9,75.95 78.74,80.35 C75.55,86.97 76.74,93.62 82.2,100.12 C82.8593396,100.936416 83.626325,101.65967 84.48,102.27 C86.2101341,103.288179 88.1488687,103.900231 90.15,104.06 C92.32,104.34 98.94,105.22 102.6,102.68 C104.97,101.04 106.69,97.16 106.81,94.57 C106.825953,93.4049963 106.742315,92.2407603 106.56,91.09 C106.179999,89.2763577 106.179999,87.4036423 106.56,85.59 C107.21,83.35 108.87,81.66 110.47,80.04 C112.07,78.42 113.56,76.91 114.14,74.91 C114.82,72.5 114.06,69.65 111.86,66.42 L111.66,66.13 C110.26,64.13 108.66,61.77 109.46,59.32 C109.857829,58.29805 110.475791,57.376228 111.27,56.62 C111.55,56.31 111.83,56 112.08,55.68 C113.120465,54.3230256 113.717551,52.6784194 113.79,50.97 C113.795257,50.2115789 113.687404,49.4566124 113.47,48.73 C113.250031,47.9487661 113.135682,47.1415912 113.13,46.33 C113.132686,46.1614019 113.221871,46.0060289 113.366101,45.9186781 C113.510331,45.8313274 113.689342,45.8242719 113.84,45.9 C114.79849,46.1903787 115.82151,46.1903787 116.78,45.9 C117.17,45.83 117.56,45.76 117.93,45.72 C119.47,45.54 121.03,45.34 122.58,45.12 C122.155007,43.6084646 121.275197,42.2643109 120.06,41.27 C118.843326,40.261438 117.408941,39.5493806 115.87,39.19 L115.87,39.19 C114.861443,38.9436312 113.828134,38.81279 112.79,38.8 L112.79,38.8 Z" id="Shape" fill="#231F20"></path><path d="M116.28,51.83 C116.181246,51.1450057 115.893864,50.5009934 115.45,49.97 C115.180013,49.5152902 114.842875,49.1039816 114.45,48.75 C114.039921,48.3971766 113.491645,48.2499885 112.96,48.35 C112.499007,48.477302 112.115928,48.798359 111.91,49.23 C111.70742,49.6583972 111.601584,50.126122 111.6,50.6 C111.56892,52.7084337 112.667343,54.6726272 114.48,55.75 L114.32,55.59" id="Path" fill="#FFFFFF"></path><path d="M114.45,56.25 C114.361599,56.2517338 114.274647,56.2273871 114.2,56.18 C112.235057,55.0075835 111.042626,52.8779715 111.07,50.59 C111.072599,50.0400872 111.195472,49.4974007 111.43,49 C111.70243,48.4374761 112.206164,48.0213477 112.81,47.86 C113.492769,47.7248724 114.199865,47.909012 114.73,48.36 C115.174169,48.7440323 115.558417,49.1923222 115.87,49.69 C116.368082,50.2961665 116.68367,51.0313835 116.78,51.81 C116.785412,51.9426365 116.737857,52.0719809 116.647817,52.1695237 C116.557778,52.2670666 116.432645,52.3248005 116.3,52.33 C116.025798,52.335849 115.796071,52.123793 115.78,51.85 C115.686969,51.2582148 115.430697,50.7041146 115.04,50.25 C114.787596,49.8382793 114.474006,49.4673666 114.11,49.15 C113.820385,48.8864665 113.426748,48.7687433 113.04,48.83 C112.724236,48.9332137 112.464216,49.1607309 112.32,49.46 C112.151678,49.8233437 112.066282,50.2195786 112.07,50.62 C112.054682,52.3928683 112.905831,54.0615683 114.35,55.09 C114.462781,55.1087806 114.567307,55.1610438 114.65,55.24 L114.81,55.4 C114.975823,55.5887531 114.975823,55.8712469 114.81,56.06 C114.723229,56.1725396 114.591874,56.2418656 114.45,56.25 Z" id="Path" fill="#231F20"></path><path d="M139.77,101 L139.68,101 C129.77,99.15 118.99,86.56 118.53,86 C118.390355,85.867931 118.338776,85.6675057 118.397321,85.4844334 C118.455865,85.3013612 118.614168,85.1680536 118.804533,85.141518 C118.994898,85.1149825 119.183622,85.1999168 119.29,85.36 C119.4,85.48 130.29,98.22 139.86,99.99 C140.136142,100.014853 140.339853,100.258858 140.315,100.535 C140.290147,100.811142 140.046142,101.014853 139.77,100.99 L139.77,101 Z" id="Path" fill="#231F20"></path><path d="M117.67,60 L112.94,58.83 C113.486263,60.0180223 114.456204,60.9594356 115.66,61.47 C117.51,62.38 118.37,62.08 118.37,62.08 L117.67,60 Z" id="Path" fill="#231F20"></path><path d="M118,62.62 C115.668101,62.4256376 113.595488,61.0577127 112.5,58.99 C112.437307,58.8160578 112.480094,58.6215703 112.61,58.49 C112.733349,58.3537392 112.921512,58.2961382 113.1,58.34 L117.83,59.51 C117.995984,59.5497116 118.131102,59.6698166 118.19,59.83 L118.89,61.91 C118.976297,62.1694364 118.838203,62.4500794 118.58,62.54 C118.39284,62.6004098 118.196526,62.6274876 118,62.62 L118,62.62 Z M114,59.62 C114.529322,60.1997083 115.168302,60.6687466 115.88,61 C116.443632,61.3023045 117.056487,61.502075 117.69,61.59 L117.29,60.4 L114,59.62 Z" id="Shape" fill="#231F20"></path><path d="M93.5,244.740113 L93.5,244.740113 C93.36818,244.734869 93.2439973,244.676803 93.1555398,244.578935 C93.0670823,244.481067 93.0218235,244.351666 93.03,244.22 L93.86,226.98 C93.8761272,226.707726 94.1074871,226.498613 94.38,226.51 C94.51182,226.515131 94.6360027,226.573197 94.7244602,226.671065 C94.8129177,226.768933 94.8581765,226.898334 94.85,227.03 L94,244.27 C93.9891655,244.536701 93.7668605,244.745667 93.5,244.740113 Z" id="Path" fill="#231F20"></path><path d="M219.45,79.59 C219.233207,79.5927222 219.039362,79.4554155 218.97,79.25 L217.51,74.72 C217.469276,74.595361 217.480205,74.4595997 217.540344,74.3430808 C217.600483,74.2265619 217.704813,74.1390074 217.83,74.1 C218.092319,74.0146043 218.374237,74.1578007 218.46,74.42 L219.92,78.94 C220.005396,79.2023191 219.862199,79.4842371 219.6,79.57 C219.551785,79.5863962 219.500826,79.5931908 219.45,79.59 L219.45,79.59 Z" id="Path" fill="#231F20"></path></g></g></svg>