<svg xmlns="http://www.w3.org/2000/svg" xmlns:xlink="http://www.w3.org/1999/xlink" width="826px" height="704px" viewBox="0 0 826 704"><title>Group</title><desc>Created with Sketch.</desc><g id="Page-1" stroke="none" stroke-width="1" fill="none" fill-rule="evenodd"><g id="Group"><circle id="Oval" fill="#EC3C07" fill-rule="nonzero" cx="474" cy="352" r="352"></circle><path d="M224.533,374.367 C223.914,374.899 223.06,375.991 222.264,376.316 C213.031,378.508 203.636,380.302 194.404,382.494 C185.172,384.686 176.087,387.467 166.455,387.314 C162.029,387.171 157.618,386.835 153.443,385.94 C140.887,383.635 128.305,384.222 115.65,385.768 C99.484,387.819 83.3306,387.17 67.0583,385.548 C61.5113,384.934 55.9496,384.511 50.1962,384.074 C49.2372,384.001 48.2929,383.737 47.3632,383.28 C45.8726,382.588 44.7633,379.418 45.4552,377.927 C46.1617,376.245 46.9871,375.536 48.1839,377.556 C48.3465,377.954 49.1136,378.012 49.4972,378.041 C61.8149,378.399 73.8511,377.384 86.0936,376.193 C96.7873,375.076 107.615,374.742 118.279,374.009 C123.515,373.635 128.825,372.303 134.032,372.313 C140.404,372.218 146.94,372.522 153.402,373.784 C165.559,376.251 177.375,375.606 189.394,372.276 C193.331,371.225 197.475,369.996 201.59,369.152 C205.69,368.499 209.939,368.436 214.025,367.975 C214.806,367.841 215.603,367.516 216.37,367.574 C219.467,367.424 223.703,370.06 224.827,373.039 C224.635,373.025 224.606,373.408 224.533,374.367 Z" id="Path" fill="#000000" fill-rule="nonzero"></path><path d="M26.2001,357.175 C27.4627,350.713 32.6116,351.49 36.5201,350.822 C39.8532,350.111 43.3053,350.373 46.7865,350.252 C50.4741,349.954 53.9699,349.641 57.6428,349.534 C59.5752,349.488 61.6557,350.032 63.5881,349.986 C66.4794,350.013 69.3707,350.039 72.2619,350.066 C81.113,350.353 89.7578,350.817 98.638,350.72 C107.533,350.431 116.663,349.582 125.587,348.91 C135.101,348.09 144.438,347.063 153.745,346.42 C160.147,345.942 166.519,345.848 172.935,345.178 C180.9,344.433 188.688,343.482 196.639,342.928 C198.586,342.69 200.977,344.222 202.392,343.365 C207.803,340.69 213.572,340.936 219.235,340.016 C220.799,339.749 222.304,340.249 224.59,340.616 C226.079,338.8 228.985,338.635 231.876,338.662 C233.808,338.616 235.799,337.803 237.76,337.373 C240.489,337.002 243.453,336.069 244.504,340.007 C243.9,340.347 243.31,340.495 242.307,340.998 C243.252,341.262 243.621,341.483 244.181,341.719 C244.167,341.91 244.152,342.102 244.152,342.102 C241.203,342.842 238.253,343.583 235.126,344.117 C227.501,345.466 219.876,346.816 212.251,348.165 C200.525,350.168 188.948,352.76 177.074,354.172 C167.133,355.539 156.896,355.725 146.807,356.502 C135.552,357.383 124.46,358.662 113.25,358.967 C102.039,359.273 90.8863,358.811 79.7339,358.349 C64.554,357.582 49.4324,356.047 34.2986,357.212 C31.7909,357.214 29.0914,357.202 26.2001,357.175 Z" id="Path" fill="#000000" fill-rule="nonzero"></path><path d="M0.97417,312.086 C0.830335,312.444 0.66193,312.862 0.403205,313.358 C1.36932,313.432 2.3338,313.527 3.29102,313.621 C5.18403,313.807 7.04868,313.991 8.84159,313.999 C16.8442,314.029 24.8542,313.962 32.8641,313.896 C40.874,313.829 48.8839,313.763 56.8866,313.792 C68.7621,313.772 80.6905,313.963 92.6055,314.154 C100.627,314.282 108.642,314.41 116.63,314.474 C133.594,314.606 150.631,313.778 167.431,311.004 C179.391,309.107 191.265,306.863 203.112,304.625 C206.736,303.94 210.357,303.256 213.978,302.582 C218.24,301.771 222.451,300.755 226.674,299.736 C229.626,299.024 232.584,298.31 235.57,297.664 C237.531,297.235 238.415,295.759 237.558,294.343 C237.497,294.235 237.435,294.121 237.371,294.003 C236.72,292.799 235.854,291.197 233.705,291.736 L233.705,291.736 C229.178,292.935 224.65,294.134 220.152,294.95 C210.58,296.537 200.816,298.11 191.258,299.505 C188.913,299.906 186.584,300.099 184.254,300.293 C182.701,300.421 181.149,300.55 179.591,300.741 C177.951,301.002 176.306,301.324 174.661,301.647 C172.194,302.131 169.727,302.614 167.276,302.891 C163.801,303.42 160.249,303.762 156.669,304.106 C155.022,304.265 153.369,304.424 151.715,304.602 C147.821,305.078 144.133,305.376 140.268,305.468 L140.268,305.468 C135.622,305.694 130.975,305.92 126.343,305.953 L114.174,306.186 C108.008,306.103 101.841,306.02 95.8671,305.952 C91.4416,305.809 87.1932,305.872 82.9303,306.127 C81.9641,306.15 80.9427,306.265 79.9213,306.38 C78.8999,306.496 77.8785,306.611 76.9123,306.634 C75.7543,306.642 74.6072,306.507 73.4602,306.372 C72.3131,306.236 71.1661,306.101 70.0081,306.109 C67.3631,306.034 64.6235,306.118 61.8553,306.202 C60.3932,306.246 58.9232,306.291 57.4549,306.313 C55.7693,306.314 54.0653,306.271 52.3541,306.227 C48.9739,306.141 45.5659,306.054 42.2167,306.312 C33.4767,306.834 24.8127,307.543 16.1773,308.249 C12.1771,308.576 8.18303,308.902 4.19043,309.209 C3.42331,309.151 2.39154,310.037 1.75791,310.761 C1.3753,311.089 1.2069,311.508 0.97417,312.086 Z M136.417,311.734 C138.393,311.739 140.37,311.745 142.295,311.795 C140.228,311.946 138.165,312.043 136.073,312.141 C134.238,312.227 132.382,312.314 130.48,312.44 L130.538,311.673 C132.463,311.723 134.44,311.728 136.417,311.734 Z M142.295,311.795 C142.59,311.72 142.844,311.547 143.099,311.373 C143.353,311.2 143.607,311.026 143.902,310.952 C147.007,310.706 150.068,310.408 153.128,310.11 C156.189,309.812 159.25,309.514 162.355,309.268 C162.738,309.297 163.122,309.326 163.462,309.931 L157.621,310.644 C152.384,311.018 147.34,311.406 142.295,311.795 Z" id="Shape" fill="#000000"></path><path d="M219.095,331.711 C218.697,331.874 218.092,332.213 217.502,332.361 C217.871,332.582 218.24,332.803 218.993,333.053 C218.388,333.393 217.976,333.748 217.577,333.91 C208.801,335.172 200.174,337.024 191.442,337.711 C178.83,338.682 166.1,338.679 153.532,339.074 C138.648,339.486 123.779,339.707 109.043,340.709 C87.7141,342.174 66.368,341.324 45.0512,340.09 C38.8996,339.815 32.7917,338.966 26.6984,337.924 C24.0281,337.528 21.4451,335.982 18.6267,334.996 C19.4958,333.712 19.9668,332.59 20.5859,332.059 C21.205,331.527 22.5912,331.054 23.1374,331.481 C27.9488,334.161 33.1998,333.596 38.3779,333.989 C46.2409,334.587 53.9413,334.786 61.8335,335 C67.4243,335.039 73.2506,334.517 78.8705,334.173 C84.6823,333.843 90.4794,333.704 96.1139,333.168 C101.94,332.646 107.589,331.918 113.416,331.397 C123.107,330.783 132.99,330.183 142.651,329.953 C153.272,329.796 163.849,330.214 174.47,330.056 C182.185,330.064 189.752,329.481 197.496,329.105 C202.335,328.894 207.394,328.314 212.247,327.911 C215.551,327.584 218.015,328.157 219.095,331.711 Z" id="Path" fill="#000000" fill-rule="nonzero"></path></g></g></svg>