<svg xmlns="http://www.w3.org/2000/svg" xmlns:xlink="http://www.w3.org/1999/xlink" width="144px" height="97px" viewBox="0 0 144 97"><title>Group</title><desc>Created with Sketch.</desc><g id="Page-1" stroke="none" stroke-width="1" fill="none" fill-rule="evenodd"><g id="Group" fill="#FFFFFF"><path d="M26.8349,88.0619 C25.8345,88.8517 24.958,89.7255 24.2069,90.7903 C23.6657,91.5591 22.9027,92.2204 22.0322,92.7735 C21.0763,93.3796 20.358,94.3682 19.3674,95.002 C18.7553,95.393 18.3342,96.3462 17.3836,95.6075 C16.9572,95.8489 16.5307,96.0903 15.9948,96.3941 C15.6648,95.9926 15.3407,95.6068 15.0298,95.2125 C14.9635,95.1286 14.9143,94.92 14.9012,94.9239 C13.8279,95.229 13.2355,93.9517 12.1701,94.1203 C11.5909,94.2121 10.7072,93.5771 10.7715,93.1002 C10.9014,92.1365 10.2578,91.7212 9.7107,91.1557 C9.4988,89.9558 9.8203,88.8471 10.3621,87.7483 C10.8968,86.6632 11.2425,85.4791 11.8238,84.4229 C13.0026,82.279 14.2753,80.1876 15.5257,78.0837 C16.8161,75.9123 18.1951,73.8031 19.6587,71.7406 C20.9943,69.8571 22.2821,67.9383 23.6152,66.0509 C24.4273,64.9009 25.2205,63.7364 26.0129,62.572 C26.0471,62.5221 25.9841,62.408 25.9263,62.1377 C25.5203,62.4657 25.2087,62.9111 24.8347,62.9708 C24.3434,63.0502 23.9366,63.0286 23.8802,63.642 C23.0392,63.3618 22.9145,64.6719 22.0971,64.4449 C21.8669,64.9593 21.3624,65.3056 20.9366,65.4427 C20.4367,65.6048 20.0031,65.6022 19.8279,66.2241 C19.7787,66.3999 19.3025,66.6315 19.1234,66.5646 C18.3401,66.2713 18.3558,67.2855 17.8303,67.2967 C17.1946,67.3098 16.8561,67.5814 16.8056,68.2125 C15.9908,68.3713 15.5264,69.0784 14.8559,69.4714 C14.2779,69.8093 13.6134,70.1898 13.3057,70.7323 C13.1089,71.0806 12.9521,71.2059 12.6366,71.3122 C11.6073,71.6606 10.9283,72.5383 10.0007,73.0664 C9.0652,73.5985 8.2871,74.4047 7.4303,75.0798 C6.3538,75.9287 5.272,76.7717 4.1856,77.6087 C3.5336,78.1113 2.8165,77.8626 2.2484,77.5523 C1.8174,77.3168 1.5583,76.9134 1.0026,77.2965 C0.9285,77.347 0.567,76.9829 0.2246,76.7238 C0.546,76.5001 0.8261,76.3059 1.1076,76.111 C1.061,76.0323 1.0151,75.9529 0.9678,75.8742 C0.6916,75.9759 0.4161,76.0776 0.0999,76.1937 C0.075,76.09 -0.0352,75.9044 0.0114,75.7752 C0.1235,75.4662 0.2521,75.129 0.4745,74.9 C1.7203,73.6162 2.9366,72.2956 4.2729,71.1115 C6.5218,69.1185 8.8146,67.1688 11.1644,65.2958 C12.7717,64.0139 14.4131,62.7675 16.0505,61.5263 C17.524,60.4091 19.063,59.3411 20.566,58.2606 C22.4934,56.8751 24.4595,55.5623 26.4512,54.2818 C27.7173,53.4677 29.0156,52.7047 30.3014,51.9214 C31.1522,51.4038 32.0982,51.5954 33.014,51.558 C33.6517,51.9037 33.9942,52.5545 34.8778,52.7224 C35.8842,52.9146 37.75055,55.6358 37.89685,56.7557 C38.00509,57.5849 37.55309,58.3767 37.29987,59.1744 C36.85705,60.5718 36.23514,61.8668 35.2767,62.9892 C35.1737,63.1106 35.0399,63.3192 35.0792,63.4307 C35.4085,64.3557 34.309,64.6752 34.2605,65.4283 C33.3152,65.9787 32.8809,66.9628 32.2563,67.7861 C32.1494,67.9271 31.8955,68.0413 31.8962,68.1672 C31.9093,69.8165 30.5913,70.7415 29.8527,71.9774 C29.6224,72.3632 29.3016,72.701 29.1146,73.1038 C28.9854,73.3807 29.0156,73.7303 28.9749,74.0472 C29.2321,74.0787 29.3941,74.1489 29.4518,74.0984 C30.6825,73.0271 31.8444,71.8666 33.1367,70.8786 C34.8201,69.5928 36.28499,68.0472 38.0989,66.9103 C38.96552,66.3664 39.61498,65.5077 40.47503,64.8832 C42.06065,63.7325 43.41337,62.2518 45.028503,61.1517 C47.80415,59.2623 50.12582,56.776 53.08385,55.1412 C53.85337,53.917 55.29334,53.4683 56.2295,52.4279 C56.4814,52.1471 56.8862,52.0073 57.2057,51.7823 C57.6701,51.4556 58.128,51.1197 58.5761,50.7714 C60.3815,49.3688 62.1777,47.9544 63.9857,46.5558 C64.7493,45.966 65.5542,45.4281 66.3067,44.8245 C68.4316,43.1208 70.6804,41.589 72.8807,39.9896 C74.0255,39.1578 75.0286,38.139 76.3767,37.6076 C77.3188,36.2319 78.8565,35.5936 80.1174,34.6154 C81.642,33.4333 83.2112,32.3082 84.7686,31.168 C86.78,29.6952 88.7953,28.2284 90.8152,26.7674 C92.0977,25.8404 93.3875,24.9227 94.6818,24.0114 C96.251,22.9067 97.857,21.857 99.4065,20.7195 C101.7623,18.9909 104.2283,17.4118 106.6556,15.7816 C109.6858,13.7459 112.714,11.707 115.7632,9.69957 C117.4433,8.59351 119.1562,7.536 120.8677,6.47914 C122.9067,5.22023 124.9377,3.94425 127.016,2.7516 C128.5144,1.89221 130.0587,1.12203 131.4789,0.118967 C131.826,-0.12573 132.4925,0.0828858 133.2194,0.0828858 C133.0278,0.380722 132.9432,0.605082 132.7838,0.743504 C132.3042,1.16074 131.7945,1.54517 131.206,2.01488 C132.4814,2.60859 133.3112,0.876021 134.3701,1.51433 C134.0401,1.84432 133.6839,2.19988 133.3276,2.55545 C133.3945,2.66107 133.4608,2.76669 133.5277,2.87231 C133.9062,2.76275 134.2841,2.6532 134.7866,2.50756 C134.8719,3.16621 134.9552,3.80977 135.0687,4.69475 C134.622,5.05031 134.0414,5.83099 133.3125,6.01074 C132.4282,6.22854 132.152,7.31951 131.1365,7.22898 C130.8721,7.20536 131.0499,8.12511 130.3939,7.90272 C129.6906,7.66327 130.0974,8.80213 129.4676,8.62303 C128.8798,8.45574 128.843,9.23707 128.6981,9.23182 C127.7822,9.20165 127.5323,10.1024 126.8743,10.4159 C126.173,10.7505 125.5065,11.1914 124.8964,11.6755 C124.3519,12.1072 123.8218,12.4706 123.114,12.5795 C122.864,12.6176 122.4684,12.8728 122.4533,13.0545 C122.4035,13.662 122.0276,13.5701 121.6261,13.6659 C121.3374,13.7348 121.157,14.2268 120.8631,14.318 C120.5207,14.4236 120.1304,14.3278 120.2288,14.8835 C119.0072,14.9517 118.7055,16.6528 117.3501,16.5091 C117.2183,16.4953 117.007,16.637 116.9335,16.7643 C116.0742,18.2528 114.4761,18.8151 113.1948,19.7715 C111.3278,21.1649 109.464,22.5629 107.5885,23.9432 C106.0835,25.0506 104.5845,26.1678 103.0389,27.2174 C102.2176,27.7751 101.6219,28.7748 100.4207,28.6718 C100.3381,28.6646 100.1931,28.788 100.1603,28.8805 C99.5036,30.7331 97.3695,30.6491 96.2359,31.8772 C96.0463,32.0832 95.7216,32.1809 95.5707,32.404 C94.2278,34.393 91.9836,35.3075 90.2766,36.8682 C89.0236,38.0136 87.5587,38.9262 86.2079,39.9673 C84.5311,41.259 82.8786,42.5816 81.2064,43.8779 C81.0378,44.0084 80.8068,44.0622 80.5995,44.1357 C78.9037,44.7353 77.7176,46.0913 76.2691,47.0602 C75.9503,47.2741 75.6492,47.6336 75.5212,47.9905 C75.23,48.804 74.4742,49.212 73.8589,49.3419 C73.2029,49.479 72.8361,49.809 72.4018,50.1823 C71.547,50.917 70.5315,51.4884 70.0231,52.5669 C68.4729,53.5352 67.1169,54.7771 65.7123,55.9186 C64.5558,56.8593 63.1873,57.5875 62.2689,58.8536 C61.6653,59.6842 60.6701,60.1165 59.7327,60.4635 C59.3417,60.6085 58.9677,60.6925 58.7139,61.0224 C58.4396,61.378 58.2789,61.8818 57.9293,62.1036 C57.5455,62.3463 57.3349,62.6501 57.0587,62.9754 C56.2826,63.8899 55.42521,64.7743 54.07773,64.8064 C53.97014,64.809 53.84353,64.8372 53.76152,64.9002 C53.17176,65.3555 52.53935,65.7708 52.02371,66.3008 C51.42345,66.9162 50.61129,67.3708 50.35741,68.2866 C50.32985,68.3863 50.20193,68.4638 50.1114,68.5405 C49.36156,69.1749 48.61894,69.8191 47.85467,70.4351 C47.08908,71.0518 46.51178,71.8416 45.639267,72.394 C44.84088,72.8985 44.09301,73.5532 43.29529,74.1069 C42.8236,74.3988 42.10591,74.5858 41.92747,75.003 C41.38756,76.2659 39.74159,76.3019 39.28697,77.5773 C38.05495,77.8908 37.50914,79.1242 36.46278,79.689 C36.17085,79.8465 35.7608,79.9508 35.6237,80.2001 C34.8857,81.5462 33.2548,81.9687 32.5069,83.2847 C31.4468,83.5235 30.9246,84.3757 30.2574,85.1176 C29.7562,85.6752 28.9756,85.981 28.3195,86.3982 C28.2861,87.3652 27.2568,87.4426 26.8349,88.0619 Z" id="Path"></path><path d="M141.6991,20.7895 C142.2725,20.6629 142.8459,20.5362 143.6843,20.3506 C143.3628,20.716 143.2546,20.84 143.1109,21.0033 C143.3261,21.0755 143.5288,21.1437 143.7394,21.2139 C143.8857,21.7814 144.0903,22.4486 143.4363,22.7503 C143.1017,22.9045 142.573,22.6388 142.0822,22.7589 C142.3033,22.8664 142.5251,22.974 142.773,23.0941 C142.0363,23.9843 141.0516,24.13 139.9731,23.9725 C139.9324,24.3753 139.9036,24.6574 139.8629,25.0549 C139.0881,24.391 138.4958,25.2124 137.6331,25.1488 C137.8227,25.5201 137.944,25.7589 138.0661,25.9977 C137.7866,26.18 137.4842,26.449 137.1306,26.5914 C136.6254,26.7947 136.2633,27.6856 135.5292,26.9778 C135.4944,26.945 135.3468,26.9837 135.2865,27.0322 C135.1474,27.1431 135.0516,27.3327 134.8994,27.397 C134.3405,27.6318 133.6687,27.7099 133.2266,28.074 C132.8349,28.3967 132.7372,29.0528 132.4216,29.5008 C132.2386,29.7606 131.904,29.945 131.6003,30.0808 C131.2775,30.2257 130.0835,30.8188 129.9215,31.2085 C129.7444,31.6323 129.4675,31.4558 129.2215,31.5306 C128.9066,31.6264 128.5622,31.7077 128.309,31.9006 C128.1168,32.0469 128.0479,32.3565 127.9331,32.5769 C127.6293,32.3086 127.3335,32.0462 126.8159,31.5883 C126.8907,32.2909 126.2248,32.3952 126.5298,33.0788 C126.7109,33.4849 125.5924,34.1022 124.9134,33.8306 C124.4489,33.6443 124.485,34.0484 124.2666,34.1074 C124.6333,35.1892 123.6669,35.2614 123.1014,35.6176 C122.822,35.7941 121.96,36.378 121.8386,36.5288 C121.7317,36.6594 121.5946,36.765 121.4817,36.8713 C121.3361,36.7532 121.2134,36.6174 121.0619,36.5439 C120.9746,36.5019 120.8388,36.561 120.6518,36.5833 C120.7621,36.8201 120.8624,37.0373 120.9562,37.2393 C120.8998,37.364 120.8828,37.5076 120.804,37.5581 C120.1946,37.9498 119.5314,38.2699 118.9639,38.7134 C117.6033,39.7762 116.2899,40.8986 114.951,41.9896 C113.2886,43.343 111.5895,44.6472 110.0492,46.1495 C109.3288,46.8527 108.8841,47.3611 108.6623,48.3964 C107.9735,48.0388 107.1922,48.0552 106.5945,47.4392 C106.0671,46.8954 105.556,47.5415 104.963,47.7666 C104.6717,46.484 105.764,46.2538 106.2704,45.6555 C106.1012,45.4869 105.9326,45.3183 105.7778,45.1628 C105.4242,45.418 105.0725,45.6706 104.6363,45.9848 C104.5615,45.6732 104.4401,45.4718 104.4972,45.3596 C105.1427,44.0876 106.2029,43.1737 107.2584,42.2632 C107.5576,42.006 107.9256,41.8269 108.2156,41.5612 C110.5372,39.4318 113.1069,37.6329 115.649,35.7816 C118.0225,34.0537 120.5285,32.5317 122.8941,30.803 C123.579,30.3032 124.5139,30.2002 125.0111,29.4267 C127.3105,28.648 128.8627,26.5828 131.2355,25.9189 C131.5589,26.4136 131.1679,26.4661 130.7304,26.5966 C130.4699,26.6747 130.569,27.0683 130.1603,27.2841 C128.4369,28.196 126.8178,29.306 125.1666,30.353 C125.0571,30.4226 124.9941,30.5662 124.6956,30.9507 C125.2073,30.7716 125.3936,30.6705 125.5891,30.6436 C126.2917,30.5505 126.5915,29.8039 127.3518,29.6799 C127.9574,29.5809 128.5333,29.0456 129.0326,28.6027 C130.0993,27.6567 131.4409,27.2002 132.6335,26.4811 C133.4391,25.9957 134.124,25.322 135.0759,25.0346 C135.4452,24.9231 135.6781,24.3648 135.9733,24.0099 C136.5861,23.6524 137.2126,23.3158 137.8069,22.9301 C138.3527,22.5771 139.0068,22.5266 139.4936,21.9054 C139.9712,21.2953 141.0392,21.3445 141.6991,20.7895 Z" id="Path"></path><path d="M67.2696,69.0968 C67.8285,68.7176 68.6532,68.4539 68.8808,67.9304 C69.2009,67.1943 69.8032,66.9818 70.3214,66.598 C70.8594,66.1998 71.4616,65.8908 72.0153,65.5142 C72.5782,65.1318 73.1765,64.7736 73.6527,64.2993 C74.6788,63.2785 75.8406,62.4473 77.0418,61.6607 C77.3153,61.4803 77.6479,61.3904 77.9294,61.2186 C78.2095,61.0467 78.5815,60.8794 78.6995,60.615 C79.286,59.303 80.5436,58.8129 81.6425,58.1523 C82.2755,57.7718 82.6961,57.9673 83.377,58.6752 C83.1395,59.5477 82.0459,59.7884 81.8485,60.7311 C81.8176,60.8768 81.2436,60.9102 80.9202,60.9922 C80.4262,61.1188 80.766,62.0307 80.0936,61.9251 C79.5012,61.8319 79.5156,62.2846 79.2906,62.5719 C79.2211,62.6612 78.8143,62.488 78.4916,62.4204 C78.3053,62.7911 78.0665,63.2634 77.831,63.7311 L77.234,63.7311 C76.82,64.2304 76.5058,64.9632 76.084,65.0327 C75.4496,65.137 75.607,66.1696 74.831,65.8914 C74.7345,65.8573 74.5239,66.0003 74.4354,66.1145 C74.2668,66.3329 74.1907,66.7528 74.0024,66.8007 C73.267,66.989 72.9961,67.8123 72.3505,67.9999 C71.1198,68.3574 70.2998,69.348 69.1937,69.884 C68.972,69.9909 68.7345,70.3235 68.7253,70.561 C68.6945,71.3017 68.3061,71.4526 67.658,71.6605 C67.1653,71.8186 66.6936,72.4497 66.4817,72.9785 C66.1977,73.6837 65.2943,73.0126 65.1021,73.7808 C65.0063,74.1652 64.7918,74.7563 64.2112,74.1239 C64.0426,74.2925 63.7238,74.4677 63.7297,74.629 C63.7658,75.4871 63.0586,75.0358 62.724,75.2477 C62.4655,75.4793 63.2882,75.657 62.7128,76.029 C61.8443,76.5899 61.1594,77.4362 60.2829,77.9774 C59.9634,78.1749 59.7994,78.2949 59.682,78.6275 C59.6118,78.825 59.314,79.1215 59.1913,79.09 C58.16,78.8256 57.6942,79.5912 57.0953,80.1377 C57.073,80.158 56.8493,79.9579 56.6754,79.8274 C56.4006,80.2145 56.7594,81.0653 55.86525,81.0555 C55.7406,81.0542 55.57135,81.2693 55.49262,81.4209 C54.74016,82.8595 54.75263,82.872 53.47994,83.7727 C53.25033,83.9354 53.37038,84.9175 52.68483,84.1421 C52.6763,84.1322 52.28531,84.3441 52.25776,84.4878 C52.02356,85.7074 50.92996,86.1981 50.19325,86.9886 C49.2302,86.8469 48.96254,87.7699 48.36031,88.1806 C47.96473,88.4502 47.52191,88.5447 47.52912,89.2643 C47.53437,89.7688 46.868507,90.0004 46.211169,89.7682 C46.455867,89.3804 46.695972,89 47.0043,88.5112 C46.736646,88.5315 46.618561,88.5053 46.575263,88.5506 C46.343686,88.7913 46.0740595,88.9376 45.853635,88.6162 C45.778848,88.5066 45.896932,88.1117 46.0307618,88.0382 C46.9059,87.56 47.29427,86.7058 47.77054,85.9153 C48.48167,85.9698 48.48167,85.9698 48.73884,86.528 C48.78082,86.5543 48.85955,86.6048 48.8602,86.6035 C49.19018,86.1154 50.19587,86.2873 50.0627,85.1858 C49.67171,85.3629 49.4644,85.6883 48.99075,86.0754 C49.1049,85.6385 49.10556,85.3583 49.2407,85.1832 C49.44997,84.9123 49.736,84.6912 50.01809,84.4885 C50.56259,84.0968 50.97785,83.5661 51.13464,82.9566 C51.26519,82.4515 51.38918,82.1346 51.91794,81.9536 C52.1915,81.8598 52.37453,81.5016 52.59889,81.2628 C53.42221,81.4425 53.6341,80.3863 54.36951,80.387 C54.32883,79.4403 55.26039,79.3459 55.76028,79.0874 C56.4425,78.7345 56.5619,77.9735 57.256,77.6448 C58.0577,77.2663 58.7465,76.6207 59.4301,76.0283 C60.7028,74.9236 61.9328,73.7703 63.1911,72.6485 C63.3518,72.5048 63.5932,72.453 63.7579,72.312 C64.2007,71.9341 64.6035,71.507 65.0575,71.1436 C65.4222,70.851 65.7647,70.4318 66.0829,70.2396 C66.6005,69.9267 66.9914,69.6052 67.2696,69.0968 Z" id="Path"></path><path d="M67.2696,69.0968 C66.9914,69.6052 66.6004,69.9267 66.0828,70.2396 C65.7647,70.4318 65.4222,70.851 65.0575,71.1436 C64.6035,71.507 64.2007,71.9341 63.7579,72.312 C63.5932,72.453 63.3518,72.5049 63.1911,72.6485 C61.9328,73.7703 60.7028,74.9236 59.4301,76.0284 C58.7465,76.6208 58.0577,77.2663 57.256,77.6448 C56.5619,77.9735 56.4425,78.7345 55.76027,79.0874 C55.26037,79.3459 54.32882,79.4404 54.36949,80.387 C53.63409,80.3864 53.42219,81.4426 52.5988796,81.2628 C52.59822,80.2046 53.48517,79.6477 54.14972,79.2691 C55.27612,78.6269 55.98594,77.5641 57.0749,76.8832 C58.3424,76.0907 59.3415,74.8803 60.504,73.9074 C62.3992,72.3218 64.3214,70.7677 66.2646,69.2418 C66.4948,69.0607 66.9291,69.1388 67.2696,69.0968 Z" id="Path"></path><path d="M141.6991,20.7894 C141.0392,21.3444 139.9712,21.2952 139.4936,21.9053 C139.0068,22.5266 138.3528,22.5771 137.8069,22.93 C137.2126,23.3158 136.5861,23.6523 135.9734,24.0099 C134.9427,24.1706 134.2598,24.9926 133.3525,25.3954 C132.8553,25.6165 132.4111,25.9576 131.7046,26.3906 C131.78,25.9064 131.7335,25.5823 131.8673,25.4656 C132.3298,25.0608 132.8271,24.6777 133.3624,24.3766 C135.5187,23.1629 137.6961,21.9847 139.8623,20.7875 C140.3458,20.5204 140.7978,20.1911 141.2957,19.9589 C141.6217,19.8067 142.0049,19.7772 142.5198,19.6552 C142.1498,20.1669 141.9248,20.4785 141.6991,20.7894 Z" id="Path"></path></g></g></svg>