<svg xmlns="http://www.w3.org/2000/svg" xmlns:xlink="http://www.w3.org/1999/xlink" width="269px" height="238px" viewBox="0 0 269 238"><title>twitter_flatline</title><desc>Created with Sketch.</desc><g id="Page-1" stroke="none" stroke-width="1" fill="none" fill-rule="evenodd"><g id="twitter_flatline" fill-rule="nonzero"><path d="M0.75,177.92 L0.75,191.79 C0.75,191.79 0.99,192.7 2.46,193.33 C3.93,193.96 170.46,233.02 197.85,236.61 C200.055828,236.763981 202.25217,236.199107 204.11,235 C213.98,227 243.41,196.68 248.33,191.59 C248.785571,191.120605 249.043337,190.494089 249.05,189.84 L249.26,170.32 L0.75,177.92 Z" id="Path" fill="#231F20"></path><path d="M198.62,237.15 C198.343702,237.170206 198.066298,237.170206 197.79,237.15 C168.44,233.31 2.86,194.1 2.27,193.84 C1.35624274,193.543096 0.622803182,192.853663 0.27,191.96 C0.266312657,191.920151 0.266312657,191.879849 0.27,191.84 L0.27,177.92 C0.269785104,177.651483 0.481698041,177.430741 0.75,177.42 L249.26,169.82 C249.397724,169.81131 249.532525,169.862316 249.63,169.96 C249.72572,170.055388 249.78,170.184866 249.78,170.32 L249.57,189.85 C249.558999,190.62762 249.251365,191.371666 248.71,191.93 C243.04,197.8 214.25,227.47 204.45,235.39 C202.716211,236.524799 200.692098,237.135852 198.62,237.15 Z M1.25,191.7 C1.55383623,192.257513 2.05767042,192.679161 2.66,192.88 C3.45,193.15 169.66,232.41 197.92,236.11 C199.987749,236.242178 202.044724,235.720937 203.8,234.62 C213.56,226.72 242.31,197.1 247.97,191.24 C248.336545,190.861474 248.544109,190.35688 248.55,189.83 L248.75,170.83 L1.25,178.4 L1.25,191.7 Z" id="Shape" fill="#231F20"></path><path d="M248.66,171.23 L204.6,216.52 C202.6,218.52 197.7,219.52 193.6,218.69 L4.23,180.84 C0.5,180.1 -0.36,178.05 2.23,176.29 L62,136.5 C64.19,135.04 68.72,134.37 72.14,135.01 L244.87,167.01 C248.54,167.68 250.27,169.57 248.66,171.23 Z" id="Path" fill="#FFFFFF"></path><path d="M196.61,219.480268 C195.565822,219.486179 194.523744,219.385657 193.5,219.18 L4.13,181.33 C1.89,180.89 0.53,179.97 0.29,178.76 C0.17,178.19 0.29,177.05 2.01,175.87 L61.67,136.08 C63.99,134.54 68.6,133.85 72.18,134.51 L244.91,166.51 C247.47,166.99 249.25,168.05 249.67,169.36 C249.897855,170.166472 249.645495,171.032262 249.02,171.59 L249.02,171.59 L205,216.86 C203.38,218.49 200,219.480268 196.61,219.480268 Z M69.28,135.26 C66.8427967,135.191072 64.4298467,135.759839 62.28,136.91 L2.56,176.7 C1.56,177.34 1.15,178 1.27,178.56 C1.42,179.33 2.56,180 4.33,180.35 L193.7,218.2 C197.58,218.98 202.41,218.05 204.24,216.2 L248.3,170.91 L248.66,171.26 L248.3,170.91 C248.66333,170.613994 248.823061,170.134803 248.71,169.68 C248.42,168.76 246.85,167.91 244.71,167.51 L72,135.5 C71.1026054,135.336804 70.1921061,135.256466 69.28,135.26 Z" id="Shape" fill="#231F20"></path><path d="M171.36,209.14 L171.26,209.14 L23.35,179.14 C23.1535711,179.09994 23.0000605,178.946429 22.96,178.75 C22.9193216,178.555355 22.9978507,178.355105 23.16,178.24 L77.93,140.36 C78.042726,140.288016 78.1778196,140.259575 78.31,140.28 L217.75,166.57 C217.937833,166.599154 218.090768,166.736404 218.14,166.92 C218.187241,167.104643 218.129684,167.300335 217.99,167.43 L171.69,209 C171.600565,209.085061 171.483317,209.134803 171.36,209.14 Z M24.7,178.35 L171.21,208.1 L216.57,167.32 L78.33,141.26 L24.7,178.35 Z" id="Shape" fill="#D1D3D4"></path><path d="M225.23,187.15 L216.54,195.93 C215.41,197.07 212.54,197.61 210.1,197.14 L202.83,195.73 C200.41,195.26 199.4,193.97 200.57,192.84 L209.51,184.15 C210.63,183.07 213.44,182.56 215.79,183.01 L222.89,184.36 C225.26,184.81 226.31,186.06 225.23,187.15 Z" id="Path" fill="#FFFFFF"></path><path d="M211.93,197.81 C211.28225,197.815064 210.635642,197.754759 210,197.63 L202.73,196.22 C201.05,195.9 199.93,195.22 199.65,194.22 C199.479809,193.569362 199.702112,192.879054 200.22,192.45 L209.17,183.76 C210.4,182.56 213.35,182.01 215.89,182.49 L222.99,183.84 C224.67,184.16 225.8,184.84 226.08,185.78 C226.250828,186.392602 226.05664,187.048956 225.58,187.47 L225.58,187.47 L216.89,196.25 C215.479798,197.352853 213.717604,197.907091 211.93,197.81 L211.93,197.81 Z M214,183.35 C212.525679,183.259913 211.063925,183.6685 209.85,184.51 L200.91,193.2 C200.666991,193.370957 200.54589,193.66785 200.6,193.96 C200.72,194.37 201.4,194.96 202.91,195.24 L210.18,196.65 C212.42,197.09 215.18,196.59 216.18,195.58 L224.87,186.8 C225.23,186.44 225.15,186.19 225.13,186.11 C225,185.71 224.32,185.11 222.8,184.85 L215.7,183.5 C215.139054,183.398557 214.570043,183.34835 214,183.35 L214,183.35 Z" id="Shape" fill="#E6E7E8"></path><path d="M30.93,165.33 C30.7627681,165.328472 30.606477,165.246605 30.51,165.11 C30.3593764,164.880559 30.4218625,164.572591 30.65,164.42 L48,152.66 C48.1452561,152.533171 48.3504989,152.501177 48.5274666,152.577775 C48.7044344,152.654373 48.8215814,152.825909 48.8285303,153.018618 C48.8354792,153.211326 48.7309912,153.390855 48.56,153.48 L31.21,165.24 C31.1275297,165.296845 31.0301462,165.328147 30.93,165.33 L30.93,165.33 Z" id="Path" fill="#D1D3D4"></path><path d="M50.62,152 C50.4527681,151.998472 50.296477,151.916605 50.2,151.78 C50.0493764,151.550559 50.1118625,151.242591 50.34,151.09 L52.58,149.57 C52.6881845,149.493984 52.822498,149.464915 52.9524328,149.489395 C53.0823677,149.513875 53.1968945,149.589828 53.27,149.7 C53.4236496,149.929982 53.3659781,150.240521 53.14,150.4 L50.9,151.91 C50.8175297,151.966845 50.7201462,151.998147 50.62,152 Z" id="Path" fill="#D1D3D4"></path><ellipse id="Oval" fill="#E6E7E8" cx="125" cy="175.67" rx="41.45" ry="8.15"></ellipse><path d="M143.7,92.72 C143.7,92.72 174.54,77.04 180.3,83.25 C186.06,89.46 147.16,119.25 147.16,119.25 L143.7,92.72 Z" id="Path" fill="#68E1FD"></path><path d="M92.65,172.12 C91.8665444,172.116886 91.2174477,171.511353 91.16,170.73 L89.8,153.52 C89.7337259,152.691573 90.351573,151.966274 91.18,151.9 C92.0084271,151.833726 92.7337257,152.451573 92.8,153.28 L94.16,170.5 C94.1930776,170.897072 94.0657414,171.29085 93.8064355,171.593373 C93.5471296,171.895897 93.1774592,172.08196 92.78,172.11 L92.65,172.12 Z" id="Path" fill="#231F20"></path><path d="M109.06,177.23 C108.792473,177.229027 108.530073,177.156522 108.3,177.02 C94.12,168.65 84.91,173.71 84.52,173.93 C83.8121155,174.277784 82.9558145,174.017964 82.5605413,173.335459 C82.1652682,172.652954 82.3660558,171.78092 83.02,171.34 C83.46,171.08 94.02,165.13 109.82,174.44 C110.16362,174.640197 110.41295,174.969452 110.512493,175.354477 C110.612036,175.739503 110.553531,176.148344 110.35,176.49 C110.079698,176.945997 109.590081,177.226862 109.06,177.23 L109.06,177.23 Z" id="Path" fill="#231F20"></path><path d="M104.72,181.9 C104.204994,181.898511 103.726261,181.634642 103.45,181.2 C97.45,171.64 90.13,172.43 89.82,172.48 C88.9915729,172.590457 88.2304571,172.008427 88.1200001,171.18 C88.0095432,170.351573 88.5915729,169.590457 89.42,169.48 C89.8,169.43 98.88,168.31 105.99,179.58 C106.202432,179.916755 106.272261,180.324152 106.184102,180.712429 C106.095942,181.100706 105.857028,181.438002 105.52,181.65 C105.283499,181.809731 105.005369,181.896646 104.72,181.9 L104.72,181.9 Z" id="Path" fill="#231F20"></path><path d="M168.24,144.000111 C167.96068,143.996402 167.6876,143.916897 167.45,143.77 L152.79,134.65 C152.327984,134.370752 152.051662,133.864775 152.066468,133.325128 C152.081273,132.785481 152.384921,132.295416 152.861553,132.04192 C153.338186,131.788425 153.914271,131.810606 154.37,132.1 L169,141.22 C169.576383,141.572045 169.846409,142.265879 169.659631,142.91493 C169.472854,143.563981 168.875341,144.008164 168.2,144.000111 L168.24,144.000111 Z" id="Path" fill="#231F20"></path><path d="M164.6,152.34 L164.44,152.34 C163.617506,152.250883 163.022455,151.512663 163.11,150.69 C163.17,150.18 164.64,138.13 181.5,130.95 C181.997472,130.715989 182.5831,130.772869 183.026241,131.098238 C183.469382,131.423608 183.699025,131.965328 183.624726,132.510047 C183.550426,133.054766 183.184092,133.515196 182.67,133.71 C167.42,140.21 166.1,150.9 166.09,151.01 C166.003581,151.76761 165.362523,152.34 164.6,152.34 L164.6,152.34 Z" id="Path" fill="#231F20"></path><path d="M166.75,146.65 C166.498341,146.65441 166.249977,146.592319 166.03,146.47 C165.318201,146.07839 165.051311,145.188756 165.43,144.47 C165.61,144.13 170.11,136.16 183.38,137.11 C184.208427,137.16799 184.83299,137.886573 184.775,138.715 C184.71701,139.543427 183.998427,140.16799 183.17,140.11 C171.79,139.29 168.1,145.83 168.07,145.9 C167.796803,146.369099 167.292827,146.655449 166.75,146.65 L166.75,146.65 Z" id="Path" fill="#231F20"></path><path d="M163.42,97.17 C163.706338,100.781456 163.635998,104.412343 163.21,108.01 C163.09,109.01 162.94,110.01 162.75,111.09 C159.26,130.75 144.05,154.09 106.91,160.59 C99.8784239,161.790996 92.7085772,161.952722 85.63,161.07 C75.21,159.82 65.19,156.47 57.37,151.37 C38.07,138.77 27.44,126.8 29.43,123.25 C31.42,119.7 46.53,125.25 51.13,121.54 C53.46,119.64 54.13,113.99 54.13,108.86 C54,107.86 53.88,106.86 53.8,105.79 C53.6354501,103.667501 53.5953814,101.537185 53.68,99.41 L53.68,99.34 L53.68,99.34 C54.68,71.85 72.88,48.47 100.3,41.92 C141.18,32.15 161,66.89 163.42,97.17 Z" id="Path" fill="#68E1FD"></path><path d="M136.75,54 C137.949877,57.39206 138.853263,60.8818059 139.45,64.43 C140.238487,68.389545 140.749728,72.3992826 140.98,76.43 L160.15,89.05 C160.15,89.05 125.54,89.54 122.56,85.17 C119.58,80.8 136.75,54 136.75,54 Z" id="Path" fill="#231F20"></path><path d="M156.33,89.6 C146.94,89.6 124.69,89.2 122.15,85.47 C119.07,80.95 134.55,56.54 136.33,53.77 C136.432402,53.6126813 136.612945,53.5243305 136.8,53.54 C136.98667,53.5593502 137.14589,53.6836196 137.21,53.86 C138.424942,57.2837918 139.338416,60.8071895 139.94,64.39 C140.692685,68.2813181 141.203663,72.2155145 141.47,76.17 L160.42,88.65 C160.606232,88.769611 160.691663,88.9974284 160.63,89.21 C160.571729,89.4217784 160.379646,89.5689053 160.16,89.57 C159.56,89.58 158.2,89.6 156.33,89.6 Z M136.62,55.18 C129.85,65.86 121,82 123,84.91 C125,87.82 144.75,88.7 158.53,88.59 L140.73,76.87 C140.58986,76.780144 140.503632,76.6264337 140.5,76.46 C140.271871,72.463776 139.770702,68.4878325 139,64.56 C138.431905,61.3804619 137.636532,58.2457557 136.62,55.18 L136.62,55.18 Z" id="Shape" fill="#231F20"></path><path d="M160.15,89.07 C160.15,89.07 140.96,95.19 127.15,95.29 C121.87,95.29 116.07,87.62 116.74,82.58 C118.16,71.49 133.06,56 136.75,54 C136.75,54 128.44,73.69 127.43,82.39 C127.43,82.43 151,89.79 160.15,89.07 Z" id="Path" fill="#FFFFFF"></path><path d="M127.07,95.79 C124.7,95.79 122.07,94.34 119.84,91.79 C117.27,88.88 115.84,85.23 116.2,82.5 C117.69,71.2 132.81,55.5 136.52,53.58 C136.705791,53.4810131 136.933681,53.5089997 137.09,53.65 C137.242649,53.7976657 137.290156,54.0233226 137.21,54.22 C137.13,54.41 129.21,73.32 127.98,82.05 C131.12,83.05 151.77,89.21 160.11,88.55 C160.386142,88.497533 160.652533,88.6788577 160.705,88.955 C160.757467,89.2311424 160.576142,89.4975329 160.3,89.55 C160.11,89.61 140.88,95.69 127.12,95.79 L127.07,95.79 Z M135.65,55.39 C130.65,59.27 118.51,72.71 117.19,82.65 C116.87,85.11 118.19,88.45 120.59,91.15 C122.59,93.46 124.99,94.79 127.07,94.79 L127.07,94.79 C137.33,94.71 150.7,91.27 156.74,89.55 C146.31,88.84 128.1,83.17 127.24,82.91 C127.012593,82.8324715 126.867907,82.6092419 126.89,82.37 C127.79,75 133.67,60.22 135.65,55.39 L135.65,55.39 Z" id="Shape" fill="#231F20"></path><path d="M162.75,111.09 C159.26,130.75 144.05,154.09 106.91,160.59 C99.8784239,161.790996 92.7085772,161.952722 85.63,161.07 C85.44,159.83 85.3,158.57 85.2,157.31 C83.6895239,138.209903 93.152532,119.908311 109.610819,110.099129 C126.069106,100.289948 146.668845,100.674065 162.75,111.09 L162.75,111.09 Z" id="Path" fill="#FFFFFF"></path><path d="M67,112.35 C53.32,110.79 20.4,89.65 21.38,82.98 C22.36,76.31 79.84,84.07 79.84,84.07" id="Path" fill="#68E1FD"></path><path d="M74.75,83.92 L74.75,83.92 L43.36,81 C43.1813672,80.9821367 43.0258336,80.8703309 42.9519873,80.7066987 C42.8781409,80.5430666 42.8972008,80.3524676 43.0019873,80.2066987 C43.1067737,80.0609298 43.2813672,79.9821367 43.46,80 L74.8,82.9 C75.0761423,82.9138072 75.2888071,83.1488576 75.2749999,83.425 C75.2611928,83.7011423 75.0261424,83.9138071 74.75,83.9 L74.75,83.92 Z" id="Path" fill="#231F20"></path><path d="M69.61,115.84 L69.53,115.84 C58.67,114.15 29.99,93.92 28.77,93.06 C28.5435633,92.8998374 28.4898375,92.5864368 28.65,92.36 C28.8101626,92.1335633 29.1235633,92.0798375 29.35,92.24 C29.64,92.45 59.06,113.24 69.68,114.85 C69.9561424,114.86933 70.16433,115.108858 70.145,115.385 C70.12567,115.661142 69.8861424,115.86933 69.61,115.85 L69.61,115.84 Z" id="Path" fill="#231F20"></path><path d="M100.29,161.86 C100.111367,161.874291 99.9386797,161.792196 99.8369873,161.644641 C99.7352949,161.497086 99.7200469,161.306487 99.7969873,161.144641 C99.8739277,160.982795 100.031367,160.874291 100.21,160.86 C120.02,157.86 146.06,149.28 157.61,125.15 C161.779009,116.463835 163.609302,106.840149 162.92,97.23 C162.884102,96.9538577 163.078858,96.7008986 163.355,96.6650001 C163.631142,96.6291016 163.884101,96.8238577 163.92,97.1 C164.630572,106.885504 162.779805,116.687331 158.55,125.54 C152.07,139.09 136.72,156.4 100.37,161.85 L100.29,161.86 Z" id="Path" fill="#231F20"></path><path d="M152.73,73.4 C152.73,73.4 152.5,78.76 154.95,80.95 C157.4,83.14 165.14,83.17 165.65,83.95 C166.16,84.73 176.28,105.11 177.65,106.25 C179.02,107.39 183.91,105.04 187.45,101.11 C187.45,101.11 177.08,82.32 176.63,80.65 C176.18,78.98 178.4,71.53 178.13,68.26 L152.73,73.4 Z" id="Path" fill="#FFFFFF"></path><path d="M178.59,107 C178.126897,107.031058 177.66833,106.892421 177.3,106.61 C176.3,105.81 172.21,97.8 167.69,88.95 C166.46,86.52 165.39,84.43 165.24,84.21 C164.362993,83.9824388 163.47066,83.8186773 162.57,83.72 C159.9,83.33 156.26,82.78 154.62,81.33 C152.02,79.02 152.22,73.62 152.24,73.39 C152.248099,73.1629144 152.408305,72.9698462 152.63,72.92 L178,67.74 C178.140083,67.708682 178.286831,67.7417002 178.4,67.83 C178.5136,67.9158744 178.583204,68.0477568 178.59,68.19 C178.566382,70.6147382 178.274608,73.0294231 177.72,75.39 C177.31,77.56 176.89,79.8 177.08,80.49 C177.4,81.67 183.7,93.31 187.86,100.84 C187.957738,101.029409 187.929994,101.259283 187.79,101.42 C184.85,104.69 180.88,107 178.59,107 Z M153.23,73.82 C153.23,75.06 153.4,78.91 155.28,80.58 C156.7,81.84 160.17,82.35 162.71,82.73 C164.87,83.05 165.71,83.2 166.06,83.65 C166.23,83.88 167,85.39 168.58,88.49 C171.34,93.89 177.07,105.11 177.94,105.84 C178.81,106.57 183.3,104.78 186.81,101.02 C185.16,98.02 176.55,82.37 176.12,80.76 C175.88,79.89 176.2,78.09 176.74,75.22 C177.197644,73.1192483 177.491857,70.9862001 177.62,68.84 L153.23,73.82 Z" id="Shape" fill="#231F20"></path><path d="M175.21,71.92 C174.494983,73.0128146 174.122414,74.294173 174.14,75.6 C174.22,77.6 177.14,81.77 177.14,81.77 L182.68,77.62 L179.21,71 L175.21,71.92 Z" id="Path" fill="#231F20"></path><path d="M177.09,82.27 L177,82.27 C176.866861,82.2456164 176.748477,82.1702808 176.67,82.06 C176.55,81.89 173.67,77.79 173.67,75.63 C173.641876,74.2098562 174.046454,72.8147596 174.83,71.63 C174.902948,71.5296886 175.009348,71.458755 175.13,71.43 L179.13,70.52 C179.353882,70.4709966 179.582956,70.5773524 179.69,70.78 L183.1,77.39 C183.209031,77.6065793 183.150497,77.8699826 182.96,78.02 L177.42,82.17 C177.323885,82.2385018 177.207973,82.2736266 177.09,82.27 L177.09,82.27 Z M175.52,72.36 C174.927988,73.3284848 174.622844,74.4450346 174.64,75.58 C174.69,76.96 176.31,79.69 177.21,81.05 L181.99,77.48 L178.99,71.59 L175.52,72.36 Z" id="Shape" fill="#231F20"></path><path d="M208.19,81.65 C208.19,81.65 190.79,70.58 181.12,71.16 C178.67608,71.3211095 176.246656,71.6552806 173.85,72.16 C168.19,73.28 162.55,74.95 158.59,75.44 C150.71,76.44 144.59,74.35 143.89,66.11 C143.29,59.11 146.52,57.48 153.4,54.96 C156.8,53.71 163.4,52.17 169.62,49.88 C173.184645,48.6643999 176.553311,46.9362741 179.62,44.75 C186.62,39.32 191.18,27.89 191.18,27.89 L208.19,81.65 Z" id="Path" fill="#FFFFFF"></path><path d="M208.19,82.15 C208.094194,82.15 208.000477,82.1219836 207.92,82.07 C207.75,81.96 190.58,71.07 181.15,71.65 C178.73019,71.8205392 176.324695,72.1546358 173.95,72.65 C171.63,73.11 169.33,73.65 167.1,74.19 C164.315146,74.9149944 161.494727,75.495767 158.65,75.93 C153.44,76.57 149.5,75.83 146.93,73.74 C144.87,72.06 143.68,69.51 143.39,66.15 C142.76,58.69 146.33,57.02 153.22,54.49 C154.67,53.96 156.68,53.38 159,52.71 C162.22,51.78 165.88,50.71 169.45,49.41 C172.987162,48.2269141 176.327455,46.521376 179.36,44.35 C186.14,39.07 190.72,27.81 190.77,27.7 C190.824226,27.48698 191.03353,27.3518045 191.25,27.39 C191.463145,27.3941777 191.649131,27.5356885 191.71,27.74 L208.71,81.48 C208.778353,81.680804 208.70974,81.9027882 208.54,82.03 C208.439923,82.1078061 208.316765,82.15 208.19,82.15 Z M181.87,70.63 C190.31,70.63 203.35,78.12 207.3,80.52 L191.16,29.34 C189.75,32.48 185.68,40.72 179.97,45.16 C176.857073,47.3972394 173.425355,49.1535508 169.79,50.37 C166.19,51.7 162.52,52.76 159.28,53.69 C156.98,54.35 154.99,54.93 153.57,55.45 C146.79,57.94 143.82,59.33 144.39,66.09 C144.65,69.16 145.72,71.48 147.56,72.98 C149.91,74.89 153.56,75.56 158.56,74.98 C161.367534,74.549385 164.151178,73.9753001 166.9,73.26 C169.14,72.72 171.45,72.17 173.78,71.71 C176.200198,71.2050056 178.652916,70.8708479 181.12,70.71 C181.36,70.6566667 181.61,70.63 181.87,70.63 L181.87,70.63 Z" id="Shape" fill="#231F20"></path><path d="M175.21,71.92 C169.55,73.04 162.52,74.76 158.59,75.46 C149.59,77.04 145.2,75.46 143.99,67.28 C142.74,58.86 146.52,57.5 153.4,54.98 C156.8,53.73 163.4,52.19 169.62,49.9 C169.62,49.9 167.62,54.52 169.31,62.26 C170.147231,66.0467043 172.22343,69.4460389 175.21,71.92 Z" id="Path" fill="#231F20"></path><path d="M153.25,76.5 C151.131977,76.6198399 149.030719,76.0630064 147.25,74.91 C145.25,73.47 144.08,71.07 143.52,67.35 C142.22,58.56 146.34,57.05 153.18,54.54 C154.7,53.98 156.71,53.4 159.03,52.73 C162.25,51.8 165.91,50.73 169.48,49.43 C169.664882,49.3621272 169.872385,49.4091091 170.01,49.55 C170.14979,49.6971096 170.189061,49.9130992 170.11,50.1 C170.11,50.1 168.18,54.69 169.82,62.15 C170.640029,65.8163343 172.651455,69.107759 175.54,71.51 C175.696328,71.6291767 175.770247,71.8275896 175.73,72.02 C175.685331,72.2139134 175.533913,72.3653305 175.34,72.41 C172.73,72.92 169.85,73.56 167.07,74.18 C163.86,74.9 160.83,75.57 158.7,75.95 C156.902295,76.2880904 155.079008,76.4720918 153.25,76.5 L153.25,76.5 Z M168.81,50.72 C165.53,51.89 162.22,52.84 159.28,53.72 C156.98,54.38 154.99,54.96 153.57,55.48 C146.7,58 143.3,59.22 144.48,67.2 C144.99,70.64 146.05,72.83 147.81,74.1 C149.92,75.62 153.22,75.89 158.5,74.96 C160.61,74.59 163.63,73.96 166.83,73.21 C169.26,72.67 171.76,72.11 174.1,71.63 C171.451112,69.1386962 169.611634,65.9091576 168.82,62.36 C167.861562,58.5396042 167.858127,54.542037 168.81,50.72 L168.81,50.72 Z" id="Shape" fill="#231F20"></path><path d="M214.05,82.67 C208.05,84.28 200.59,76.67 195.49,64.67 C194.183812,61.6079462 193.097723,58.4566149 192.24,55.24 C191.382614,52.0845146 190.744425,48.8735246 190.33,45.63 C188.69,32.63 191.33,22.18 197.33,20.57 C204.76,18.57 214.52,30.84 219.15,47.99 C223.78,65.14 221.48,80.66 214.05,82.67 Z" id="Path" fill="#FFFFFF"></path><path d="M212.44,83.3800002 C206.68,83.3800002 199.89,76.27 195.03,64.87 C193.71775,61.7842492 192.625033,58.6096876 191.76,55.37 C190.898083,52.1907898 190.253264,48.9566689 189.83,45.69 C188.11,32.03 191.06,21.74 197.19,20.08 C200.99,19.08 205.42,21.44 209.67,26.79 C213.92,32.14 217.37,39.5 219.62,47.86 C221.87,56.22 222.62,64.47 221.62,71.08 C220.62,77.84 217.99,82.08 214.19,83.15 L214.19,83.15 C213.619226,83.3028192 213.030878,83.3800002 212.44,83.3800002 L212.44,83.3800002 Z M199,20.85 C198.486866,20.8513951 197.97603,20.9186103 197.48,21.05 C191.94,22.54 189.22,32.62 190.86,45.57 C191.270712,48.7895416 191.9022,51.9770513 192.75,55.11 C193.611109,58.302781 194.697157,61.4305987 196,64.47 C201.08,76.39 208.48,83.67 214,82.18 L214,82.18 C217.39,81.27 219.77,77.28 220.7,70.94 C221.63,64.6 220.95,56.35 218.7,48.12 C216.45,39.89 213,32.54 208.89,27.41 C205.48,23.12 202,20.85 199,20.85 Z" id="Shape" fill="#231F20"></path><path d="M207.41,59.22 L195.49,64.67 C194.183812,61.6079462 193.097723,58.4566149 192.24,55.24 C191.382614,52.0845146 190.744425,48.8735246 190.33,45.63 L204.19,44.48 L207.41,59.22 Z" id="Path" fill="#231F20"></path><path d="M195.49,65.17 C195.430537,65.1813507 195.369463,65.1813507 195.31,65.17 C195.18405,65.1214813 195.083065,65.0241032 195.03,64.9 C193.71775,61.8142492 192.625033,58.6396876 191.76,55.4 C190.898083,52.2207898 190.253264,48.9866689 189.83,45.72 C189.821001,45.5843564 189.859934,45.4498615 189.94,45.34 C190.028578,45.2364613 190.154256,45.1718266 190.29,45.16 L204.15,44 C204.399778,43.9698698 204.628987,44.1417765 204.67,44.39 L207.9,59.13 C207.949553,59.3592331 207.833118,59.5921025 207.62,59.69 L195.69,65.15 C195.625694,65.1716605 195.557322,65.178513 195.49,65.17 L195.49,65.17 Z M190.89,46.08 C191.309548,49.1155977 191.92077,52.1216043 192.72,55.08 C193.5225,58.1063566 194.524696,61.0761984 195.72,63.97 L206.81,58.9 L203.81,44.98 L190.89,46.08 Z" id="Shape" fill="#231F20"></path><ellipse id="Oval" fill="#FFFFFF" transform="translate(205.770639, 51.847083) rotate(-12.590000) translate(-205.770639, -51.847083) " cx="205.770639" cy="51.847083" rx="3.51" ry="7.54"></ellipse><path d="M207.05,59.75 C204.98,59.75 202.77,56.82 201.86,52.75 C201.407289,50.9026216 201.352748,48.9800724 201.7,47.11 C202.08,45.37 202.9,44.28 204.02,44.03 C205.14,43.78 206.34,44.42 207.43,45.83 C208.53765,47.3745555 209.304575,49.1367781 209.68,51 L209.68,51 C210.68,55.4 209.68,59.23 207.52,59.72 C207.365279,59.7502017 207.207305,59.7602852 207.05,59.75 L207.05,59.75 Z M204.49,45 C204.406995,44.9895423 204.323005,44.9895423 204.24,45 C203.53,45.15 202.96,46 202.67,47.31 C202.358122,49.0387256 202.412631,50.8136698 202.83,52.52 C203.74,56.52 205.94,59.03 207.3,58.74 C208.66,58.45 209.61,55.26 208.71,51.21 L208.71,51.21 C208.366149,49.4863565 207.656889,47.8564222 206.63,46.43 C206.158579,45.6647944 205.377354,45.1427605 204.49,45 Z" id="Shape" fill="#231F20"></path><path d="M156.49,56.21 C156.213858,56.2486599 155.95866,56.0561423 155.92,55.78 C155.88134,55.5038576 156.073858,55.24866 156.35,55.21 L165,52.76 C165.276142,52.6854416 165.560442,52.8488576 165.635,53.125 C165.709558,53.4011424 165.546142,53.6854416 165.27,53.76 L156.62,56.22 L156.49,56.21 Z" id="Path" fill="#FFFFFF"></path><path d="M156.63,57.94 C156.353858,57.9758985 156.100899,57.7811424 156.065,57.505 C156.029101,57.2288576 156.223858,56.9758985 156.5,56.94 L165.15,54.48 C165.277325,54.4399968 165.415458,54.4536602 165.532479,54.5178327 C165.649499,54.5820053 165.735281,54.6911338 165.77,54.82 C165.80713,54.9473039 165.792169,55.0841438 165.728406,55.2004163 C165.664644,55.3166889 165.557304,55.4028697 165.43,55.44 L156.77,57.9 L156.63,57.94 Z" id="Path" fill="#FFFFFF"></path><path d="M156.8,59.94 C156.546194,59.939296 156.33153,59.752068 156.29634,59.5007124 C156.26115,59.2493567 156.416145,59.0103765 156.66,58.94 L165.32,56.48 C165.498633,56.4317691 165.689427,56.4825015 165.820513,56.6130866 C165.951598,56.7436717 166.00306,56.9342706 165.955513,57.1130866 C165.907965,57.2919025 165.768633,57.4317691 165.59,57.48 L156.94,59.95 L156.8,59.94 Z" id="Path" fill="#FFFFFF"></path><ellipse id="Oval" fill="#231F20" transform="translate(106.213721, 66.537462) rotate(-28.130000) translate(-106.213721, -66.537462) " cx="106.213721" cy="66.5374617" rx="3.1" ry="5.13"></ellipse><ellipse id="Oval" fill="#231F20" transform="translate(121.451019, 57.560200) rotate(-34.460000) translate(-121.451019, -57.560200) " cx="121.451019" cy="57.5602" rx="3.1" ry="5.13"></ellipse><path d="M211.25,52.84 C213.043925,52.5183953 214.802237,52.022719 216.5,51.36 C218.065367,50.6743675 219.539899,49.7977095 220.89,48.75 C216.793831,48.5907304 213.217513,45.9283602 211.89,42.05 C213.302466,42.2646818 214.744458,42.1760487 216.12,41.79 C213.945289,41.2987127 212.00433,40.0776732 210.62,38.33 C209.238058,36.6393991 208.500976,34.5132025 208.54,32.33 C209.839668,32.9254787 211.241887,33.2649988 212.67,33.33 C208.4,29.24 207.4,24.63 209.9,20.5 C211.604727,22.4491482 213.523477,24.2001758 215.62,25.72 C219.619153,28.4485438 224.248643,30.1110298 229.07,30.55 C229.92,30.64 229.81,30.18 229.74,29.67 C228.994027,24.4301774 232.607739,19.5672816 237.84,18.77 C238.819671,18.890018 239.810329,18.890018 240.79,18.77 C242.687739,19.0391204 244.457296,19.8837611 245.86,21.19 C246.221803,21.5646229 246.768973,21.6935988 247.26,21.52 C248.961241,21.0549015 250.60741,20.4078329 252.17,19.59 C252.17,20.95 251.01,22.59 248.5,24.59 C249.241576,24.5730117 249.976412,24.4449209 250.68,24.21 C251.35,24.02 252.02,23.78 252.68,23.61 C252.88,23.56 253.12,23.25 253.33,23.56 C253.54,23.87 253.19,23.98 253.06,24.15 C252.120855,25.4356214 251.0029,26.5805154 249.74,27.55 C249.232925,27.8963242 248.950474,28.4879436 249,29.1 C248.61,40.2 244,48.85 234,54.17 C225.69,58.6 215.47,58.03 206.8,52.91 L209.39,52.91 C210.004332,53.0612034 210.64877,53.0369503 211.25,52.84 L211.25,52.84 Z" id="Path" fill="#68E1FD"></path><path d="M237.29,72.48 C238.162966,73.10714 239.097839,73.6432679 240.08,74.08 C241.012834,74.4607901 241.990913,74.7195945 242.99,74.85 C241.356868,73.0623864 240.998653,70.4513988 242.09,68.29 C242.592405,68.9942074 243.244733,69.5782291 244,70 C243.304414,68.8811443 243.014882,67.5570631 243.18,66.25 C243.324107,64.9662947 243.9195,63.7755087 244.86,62.89 C245.130422,63.6637668 245.544319,64.3796052 246.08,65 C246.08,61.52 247.56,59.19 250.34,58.54 C250.223064,60.0612095 250.276731,61.5907275 250.5,63.1 C251.007504,65.9145526 252.222215,68.5538822 254.03,70.77 C254.34,71.16 254.49,70.93 254.67,70.69 C255.621473,69.4100861 257.080017,68.6042405 258.67,68.48 C260.072447,68.3310849 261.477915,68.7326471 262.59,69.6 C262.94207,70.0637146 263.352071,70.4804369 263.81,70.84 C264.483097,71.750675 264.856961,72.8478084 264.88,73.98 C264.872987,74.2854638 265.044972,74.5668945 265.32,74.7 C266.217185,75.2262857 267.16959,75.6521852 268.16,75.97 C267.6,76.55 266.43,76.72 264.53,76.51 C264.840404,76.818404 265.198287,77.0749994 265.59,77.27 C265.95,77.48 266.32,77.66 266.67,77.88 C266.78,77.94 267.01,77.88 266.97,78.13 C266.93,78.38 266.73,78.24 266.6,78.26 C265.671193,78.3900004 264.728807,78.3900004 263.8,78.26 C263.457138,78.1938778 263.104616,78.3113851 262.87,78.57 C258.03,82.99 252.46,84.57 246.11,82.57 C240.680559,80.725148 236.613346,76.1722969 235.39,70.57 L236.46,71.66 C236.645443,72.0124172 236.935361,72.2988423 237.29,72.48 Z" id="Path" fill="#68E1FD"></path><path d="M214,98.94 C214.786904,99.9235154 215.67142,100.824783 216.64,101.63 C217.56234,102.348123 218.569996,102.949358 219.64,103.42 C218.371268,100.887099 218.792587,97.8345263 220.7,95.74 C221.039279,96.6668244 221.574835,97.5093867 222.27,98.21 C221.840761,96.730991 221.932548,95.1494242 222.53,93.73 C223.098259,92.3295362 224.143092,91.1749069 225.48,90.47 C225.547116,91.4545772 225.798113,92.417863 226.22,93.31 C227.28,89.37 229.74,87.23 233.07,87.37 C232.45332,89.0496868 232.030578,90.7943348 231.81,92.57 C231.487573,95.8957241 232.021149,99.2486476 233.36,102.31 C233.59,102.86 233.83,102.64 234.11,102.43 C237.033146,100.234698 241.179451,100.805986 243.4,103.71 C243.657212,104.342997 243.993194,104.941045 244.4,105.49 C244.870967,106.726382 244.947815,108.078209 244.62,109.36 C244.515386,109.702209 244.621042,110.073964 244.89,110.31 C245.734283,111.190764 246.673316,111.975527 247.69,112.65 C246.87,113.12 245.49,112.94 243.42,112.1 C243.689211,112.54935 244.026563,112.954172 244.42,113.3 C244.75,113.64 245.12,113.96 245.42,114.3 C245.52,114.4 245.78,114.45 245.67,114.67 C245.56,114.89 245.36,114.73 245.22,114.67 C244.130056,114.529036 243.065918,114.232694 242.06,113.79 C241.694584,113.614529 241.264978,113.63714 240.92,113.85 C234.07,117.3 227.29,117.37 220.76,113.11 C215.31,109.55 212.27,103.18 212.48,96.23 L213.34,97.79 C213.438905,98.2311544 213.668987,98.6320553 214,98.94 Z" id="Path" fill="#68E1FD"></path><path d="M220,14.56 C220.639621,14.3708484 221.259231,14.1196551 221.85,13.81 C222.398487,13.5024193 222.903026,13.1223328 223.35,12.68 C221.852415,12.7907097 220.44126,11.9678669 219.8,10.61 C220.32309,10.6254723 220.843802,10.533582 221.33,10.34 C220.522015,10.2552302 219.765405,9.90331855 219.18,9.34 C218.608036,8.77676775 218.2538,8.02932887 218.18,7.23 C218.674665,7.40001716 219.197874,7.47136378 219.72,7.44 C218,6.13 217.45,4.49 218.2,2.88 C218.897164,3.52215717 219.665491,4.08246531 220.49,4.55 C222.053667,5.3882628 223.806097,5.81173816 225.58,5.78 C225.9,5.78 225.84,5.61 225.79,5.43 C225.534538,4.46936288 225.705836,3.4452193 226.26,2.62 C226.724571,1.87857101 227.460033,1.34760336 228.31,1.14 C228.677489,1.13512878 229.043208,1.08815561 229.4,1 C230.101584,1.01974722 230.779619,1.25740925 231.34,1.68 C231.489351,1.80282573 231.696971,1.82632977 231.87,1.74 C232.470648,1.50223882 233.043952,1.20050004 233.58,0.84 C233.64,1.34 233.28,1.98 232.44,2.84 C232.710741,2.81219169 232.974631,2.73776113 233.22,2.62 C233.46,2.52 233.69,2.41 233.93,2.32 C234.01,2.32 234.08,2.17 234.17,2.27 C234.26,2.37 234.17,2.43 234.09,2.5 C233.79241,2.99336925 233.425308,3.44130179 233,3.83 C232.839023,3.97247812 232.76334,4.18817567 232.8,4.4 C233.1,8.46 231.75,11.8 228.34,14.13 C225.349852,16.0853206 221.551902,16.3245915 218.34,14.76 L219.28,14.66 C219.524621,14.696947 219.774707,14.6622128 220,14.56 L220,14.56 Z" id="Path" fill="#68E1FD"></path><path d="M235.83,51.71 C235.342397,52.0359732 234.713754,52.0629701 234.2,51.78 L235.83,51.71 Z" id="Path" fill="#68E1FD"></path></g></g></svg>