<svg xmlns="http://www.w3.org/2000/svg" xmlns:xlink="http://www.w3.org/1999/xlink" width="278px" height="232px" viewBox="0 0 278 232"><title>campaign_launch_flatline</title><desc>Created with Sketch.</desc><g id="Page-1" stroke="none" stroke-width="1" fill="none" fill-rule="evenodd"><g id="campaign_launch_flatline" fill-rule="nonzero"><polygon id="Path" fill="#231F20" points="34.82 151.87 34.82 158.33 114.03 231.41 277.19 175.53 277.19 169.15"></polygon><path d="M114,231.91 C113.874534,231.91 113.753484,231.86368 113.66,231.78 L34.48,158.7 C34.3790865,158.603197 34.32,158.46983 34.32,158.33 L34.32,151.87 C34.32,151.73316 34.3796475,151.603047 34.48,151.51 C34.5752422,151.409673 34.7129357,151.361294 34.85,151.38 L277.22,168.65 C277.484362,168.66589 277.690001,168.885161 277.690001,169.15 L277.690001,175.53 C277.685476,175.742142 277.550072,175.929318 277.35,176 L114.19,231.88 L114,231.91 Z M35.29,158.11 L114.12,230.84 L276.66,175.17 L276.66,169.62 L35.32,152.41 L35.29,158.11 Z" id="Shape" fill="#231F20"></path><polygon id="Path" fill="#FFFFFF" points="34.82 151.87 0.81 35.07 168.66 0.59 192.58 103.36"></polygon><path d="M34.82,152.37 C34.7363871,152.369212 34.6541469,152.348652 34.58,152.31 C34.4617239,152.247772 34.3747468,152.139051 34.34,152.01 L0.34,35.21 C0.301490538,35.0787204 0.320186555,34.9373193 0.39,34.82 C0.463561851,34.6991648 0.582378313,34.6127529 0.72,34.58 L168.56,0.1 C168.688772,0.0703899682 168.824044,0.0940409862 168.93513,0.165587672 C169.046216,0.237134358 169.123698,0.350511939 169.15,0.48 L193.07,103.24 C193.13416,103.496153 192.983797,103.757076 192.73,103.83 L35,152.35 C34.9424006,152.370699 34.8807381,152.37755 34.82,152.37 Z M1.44,35.46 L35.16,151.25 L192,103 L168.28,1.18 L1.44,35.46 Z" id="Shape" fill="#231F20"></path><polygon id="Path" fill="#FFFFFF" points="39.7 142.28 9.43 41.42 162.68 8.71 184.66 99.79"></polygon><path d="M39.71,142.780059 C39.4866462,142.783439 39.2892377,142.635383 39.23,142.42 L9,41.56 C8.94603671,41.4356001 8.94603671,41.2943999 9,41.17 C9.0718093,41.0475636 9.19139493,40.9605922 9.33,40.93 L162.58,8.22 C162.846408,8.16971215 163.105598,8.33664804 163.17,8.6 L185.17,99.67 C185.234793,99.9286657 185.085196,100.192661 184.83,100.27 L39.83,142.76 L39.71,142.780059 Z M10.07,41.8 L40.07,141.66 L184.07,99.44 L162.31,9.3 L10.07,41.8 Z" id="Shape" fill="#231F20"></path><polygon id="Path" fill="#FFFFFF" points="192.58 103.36 34.82 151.87 114.13 223.07 277.19 169.15"></polygon><path d="M114.13,223.570043 C114.007989,223.567544 113.890904,223.52142 113.8,223.44 L34.49,152.25 C34.3557254,152.130654 34.2957975,151.948447 34.3330151,151.772697 C34.3702327,151.596948 34.4988743,151.454673 34.67,151.4 L192.43,102.88 C192.587134,102.829042 192.759296,102.858983 192.89,102.96 L277.5,168.75 C277.640179,168.867253 277.708516,169.049486 277.68,169.23 C277.654063,169.412604 277.525792,169.564196 277.35,169.62 L114.29,223.54 C114.239208,223.560594 114.184802,223.570043 114.13,223.570043 L114.13,223.570043 Z M35.81,152.09 L114.25,222.5 L276.14,169 L192.48,103.94 L35.81,152.09 Z" id="Shape" fill="#231F20"></path><polygon id="Path" fill="#FFFFFF" points="189.97 112.53 53.49 156.97 89.81 188.92 230.22 142.28"></polygon><path d="M89.81,189.42 C89.6879893,189.417544 89.5709037,189.37142 89.48,189.29 L53.16,157.35 C53.0217961,157.232041 52.9602125,157.04729 53,156.87 C53.0368035,156.696974 53.1622932,156.556274 53.33,156.5 L189.82,112.05 C189.972785,112.002916 190.138737,112.02873 190.27,112.12 L230.52,141.88 C230.669315,141.990961 230.742919,142.176905 230.71,142.36 C230.686425,142.543654 230.557219,142.696353 230.38,142.75 L90,189.39 C89.9400497,189.415306 89.8748307,189.425604 89.81,189.42 Z M54.48,157.18 L89.92,188.35 L229.15,142.11 L189.88,113.11 L54.48,157.18 Z" id="Shape" fill="#E6E7E8"></path><path d="M160.36,89.58 C160.36,89.58 117.53,106.42 77.05,96.43 C36.57,86.44 12.46,51.51 12.46,51.51 L34.14,123.73 C34.14,123.73 49.48,133.21 87.43,132.73 C135.84,132.16 168.49,108.04 168.49,108.04 L157.49,89.1" id="Path" fill="#FFFFFF"></path><path d="M84.9,133.28 C49.06,133.28 34.03,124.28 33.9,124.16 C33.7971176,124.094226 33.7195657,123.995523 33.68,123.88 L12,51.65 C11.9372257,51.4163747 12.0507099,51.1713171 12.2694848,51.068075 C12.4882598,50.9648329 12.7495683,51.033022 12.89,51.23 C13.13,51.57 37.36,86.12 77.19,95.94 C111.24,104.34 147.38,93.53 157.46,90.1 L157.04,89.39 C156.971648,89.2764446 156.952214,89.1400434 156.98613,89.0119166 C157.020045,88.8837898 157.104419,88.7748674 157.22,88.71 C157.333872,88.6403673 157.470858,88.6191545 157.600457,88.6510848 C157.730057,88.683015 157.84151,88.7654375 157.91,88.88 L158.42,89.76 L160.2,89.12 C160.321656,89.0682033 160.45929,89.068884 160.580427,89.1218815 C160.701564,89.1748791 160.795475,89.2754992 160.84,89.4 C160.88919,89.5233155 160.887315,89.6611314 160.834791,89.7830637 C160.782266,89.904996 160.683404,90.0010324 160.56,90.05 L158.93,90.64 L168.93,107.83 C169.059966,108.050025 168.998151,108.332987 168.79,108.48 C168.47,108.72 135.46,132.71 87.44,133.27 L84.9,133.28 Z M34.56,123.4 C36.29,124.4 52.08,132.67 87.42,132.27 C132.42,131.74 164.1,110.54 167.83,107.93 L158,91 C148.09,94.39 111.48,105.45 77,96.93 C42.8,88.5 20,62.02 13.82,54.08 L34.56,123.4 Z" id="Shape" fill="#231F20"></path><polygon id="Path" fill="#FFFFFF" points="149.64 92.2 163.03 112.95 174.61 109.01 158 83.28"></polygon><path d="M163,113.450043 C162.830473,113.44791 162.673068,113.361711 162.58,113.22 L149.19,92.48 C149.06681,92.2837052 149.091456,92.0290303 149.25,91.86 L157.61,82.94 C157.716247,82.8286093 157.866388,82.7700179 158.02,82.78 C158.171521,82.7974812 158.307265,82.8818624 158.39,83.01 L175,108.74 C175.08169,108.869215 175.09978,109.028701 175.049105,109.172929 C174.99843,109.317157 174.88456,109.430279 174.74,109.48 L163.16,113.42 C163.109208,113.440594 163.054802,113.450795 163,113.450043 Z M150.24,92.26 L163.24,112.35 L173.84,108.74 L157.93,84.09 L150.24,92.26 Z" id="Shape" fill="#231F20"></path><path d="M212.42,99.32 C212.42,99.32 212.64,114.58 203.76,125.67 C194.88,136.76 167.41,142.28 167.41,142.28 L176.09,108.65 L212.42,99.32 Z" id="Path" fill="#68E1FD"></path><path d="M167.41,142.78 C167.27366,142.775946 167.144371,142.718485 167.05,142.62 C166.931594,142.494527 166.886237,142.316878 166.93,142.15 L175.6,108.53 C175.649032,108.355445 175.785445,108.219032 175.96,108.17 L212.3,98.84 C212.449078,98.7943789 212.611027,98.8240022 212.734303,98.9194417 C212.857579,99.0148812 212.926824,99.1642467 212.92,99.32 C212.92,99.47 213.04,114.88 204.14,125.98 C195.24,137.08 168.64,142.54 167.51,142.77 L167.41,142.78 Z M176.5,109.07 L168.1,141.62 C172.64,140.62 195.53,135.13 203.37,125.35 C211.02,115.81 211.83,102.96 211.91,99.97 L176.5,109.07 Z" id="Shape" fill="#231F20"></path><path d="M182.08,52.31 C182.08,52.31 168.26,45.82 154.5,49.31 C140.74,52.8 124.4,75.58 124.4,75.58 L158.61,81.52 L182.08,52.31 Z" id="Path" fill="#68E1FD"></path><path d="M158.61,82.0700335 L158.52,82.0700335 L124.31,76.12 C124.142248,76.0925674 124.001514,75.9784593 123.94,75.82 C123.871258,75.6623152 123.890235,75.480132 123.99,75.34 C124.66,74.41 140.6,52.41 154.38,48.87 C168.16,45.33 182.15,51.79 182.29,51.87 C182.43009,51.9324832 182.530875,52.0593974 182.56,52.21 C182.59623,52.3563903 182.563033,52.511309 182.47,52.63 L159,81.89 C158.903708,82.0056275 158.760462,82.0717409 158.61,82.0700335 Z M125.28,75.28 L158.41,81 L181.28,52.48 C178.52,51.32 166.47,46.77 154.63,49.81 C142.49,53 128.07,71.56 125.28,75.28 L125.28,75.28 Z" id="Shape" fill="#231F20"></path><path d="M151.06,80.81 C160.51,67.06 177.06,51.55 197.93,38.09 C229.54,17.68 257.26,24.49 266.65,27.82 C268.739563,28.5597089 270.072303,30.6100783 269.9,32.82 C269.06,42.75 263.9,70.82 232.23,91.22 C211.37,104.69 190.42,113.39 174,116.33 C174,116.33 167.8,112.7 159.81,100.33 C151.82,87.96 151.06,80.81 151.06,80.81 Z" id="Path" fill="#68E1FD"></path><path d="M174,116.850109 C173.90843,116.85195 173.818213,116.827661 173.74,116.78 C173.49,116.63 167.36,112.95 159.39,100.61 C151.42,88.27 150.59,81.16 150.56,80.87 C150.549599,80.7496533 150.58142,80.6294398 150.65,80.53 C160.46,66.24 177.59,50.61 197.65,37.67 C229.09,17.38 256.49,23.67 266.82,27.35 C269.132661,28.1624916 270.601607,30.4379177 270.39,32.88 C269.47,43.8 263.94,71.37 232.51,91.66 C212.45,104.66 191.15,113.79 174.08,116.84 L174,116.850109 Z M151.58,80.94 C151.76,82.1 153.09,89.01 160.23,100.06 C167.37,111.11 173.11,115.18 174.1,115.83 C191.01,112.76 212.1,103.65 231.96,90.83 C263.03,70.83 268.49,43.58 269.4,32.83 C269.565395,30.8406027 268.370772,28.989143 266.49,28.32 C256.3,24.71 229.26,18.49 198.2,38.53 C178.32,51.33 161.34,66.79 151.58,80.94 L151.58,80.94 Z" id="Shape" fill="#231F20"></path><path d="M269.9,32.84 C268.66331,45.1505773 264.336045,56.9490814 257.32,67.14 L230.22,25.14 C242.393872,22.937619 254.927321,23.856211 266.65,27.81 C268.751079,28.5525772 270.086485,30.6193743 269.9,32.84 Z" id="Path" fill="#FFFFFF"></path><path d="M257.33,67.64 L257.33,67.64 C257.163078,67.6381776 257.008566,67.5515006 256.92,67.41 L229.81,25.41 C229.735159,25.2622713 229.735159,25.0877287 229.81,24.94 C229.878103,24.7824184 230.020915,24.6696719 230.19,24.64 C242.447858,22.4160413 255.069907,23.3451452 266.87,27.34 C269.182661,28.1524916 270.651607,30.4279177 270.44,32.87 L270.44,32.87 C269.222472,45.2702082 264.869184,57.1565765 257.79,67.41 C257.692456,67.5674402 257.514478,67.6564291 257.33,67.64 Z M231.05,25.51 L257.33,66.23 C264.067781,56.2622794 268.21604,44.772944 269.4,32.8 C269.565395,30.8106027 268.370772,28.959143 266.49,28.29 C255.092476,24.4266237 242.910517,23.4710412 231.05,25.51 Z" id="Shape" fill="#231F20"></path><circle id="Oval" fill="#FFFFFF" cx="219.6" cy="60.28" r="19.29"></circle><path d="M219.63,80.0600023 C209.794117,80.0646819 201.449124,72.8414923 200.043582,63.1065512 C198.638041,53.3716102 204.599029,44.0829075 214.034535,41.3051651 C223.47004,38.5274227 233.513059,43.1046657 237.606365,52.0483489 C241.699671,60.9920322 238.599501,71.584592 230.33,76.91 C227.139364,78.9647113 223.424996,80.0581936 219.63,80.0600023 Z M219.56,41.48 C212.680307,41.4887944 206.355467,45.2566652 203.072069,51.3022874 C199.788671,57.3479096 200.071744,64.7045611 203.81,70.48 C208.426847,77.6266739 217.267932,80.7818067 225.366294,78.1728306 C233.464656,75.5638544 238.801342,67.841197 238.378178,59.3434823 C237.955013,50.8457677 231.877495,43.6915084 223.56,41.9 C222.244797,41.6219348 220.904276,41.4811802 219.56,41.48 Z" id="Shape" fill="#231F20"></path><circle id="Oval" fill="#231F20" cx="219.6" cy="60.28" r="11.9"></circle><path d="M219.62,72.6801147 C213.453953,72.7063309 208.205354,68.1979859 207.301108,62.0985461 C206.396862,55.9991064 210.111731,50.1619218 216.020208,48.3981973 C221.928685,46.6344728 228.235446,49.4801263 230.82269,55.0771783 C233.409935,60.6742303 231.491514,67.3219845 226.32,70.68 C224.324519,71.9750524 221.998863,72.6692782 219.62,72.6801147 L219.62,72.6801147 Z M219.62,48.8799698 C217.430276,48.8749312 215.286417,49.5073175 213.45,50.7 L213.45,50.7 C208.67569,53.7760469 206.887371,59.8930876 209.252882,65.056464 C211.618393,70.2198404 217.418783,72.8602459 222.86618,71.2533963 C228.313577,69.6465467 231.752351,64.2808122 230.936853,58.6602197 C230.121355,53.0396271 225.29944,48.8724449 219.62,48.8799698 L219.62,48.8799698 Z" id="Shape" fill="#231F20"></path><path d="M227.58,55.62 C227.399756,55.6190178 227.234603,55.519158 227.15,55.36 C226.99,55.09 223.3,48.68 215.61,52.2 C215.385065,52.289898 215.128041,52.205628 215,52 C214.942453,51.8809197 214.935487,51.7436336 214.980685,51.6193401 C215.025883,51.4950465 215.119405,51.3943017 215.24,51.34 C223.79,47.44 228.03,54.86 228.07,54.93 C228.197475,55.1735265 228.109022,55.4742667 227.87,55.61 C227.776447,55.6419267 227.67553,55.6454066 227.58,55.62 Z" id="Path" fill="#FFFFFF"></path><path d="M228.89,59.76 L228.89,59.76 C228.759876,59.749814 228.639194,59.6881336 228.554716,59.5886375 C228.470238,59.4891414 228.428947,59.3600531 228.44,59.23 C228.475628,58.6015245 228.35899,57.9737377 228.1,57.4 C227.986033,57.1513868 228.09296,56.8573378 228.34,56.74 C228.461598,56.6836301 228.60098,56.6795301 228.725681,56.728655 C228.850383,56.7777799 228.949519,56.8758412 229,57 C229.329525,57.7340398 229.477034,58.5367636 229.43,59.34 C229.393688,59.6032777 229.154115,59.7896118 228.89,59.76 Z" id="Path" fill="#FFFFFF"></path><path d="M157.12,80.1801114 C157.007354,80.1785781 156.898348,80.1398987 156.81,80.07 C156.595546,79.898273 156.559822,79.585685 156.73,79.37 C163.845845,70.7943227 171.47306,62.6561779 179.57,55 C179.771897,54.8334032 180.068111,54.8507184 180.249222,55.0397039 C180.430333,55.2286893 180.435033,55.5253722 180.26,55.72 C172.194403,63.3475773 164.597217,71.4556948 157.51,80 C157.414626,80.1168181 157.270773,80.1832119 157.12,80.1801114 Z" id="Path" fill="#FFFFFF"></path><path d="M179.59,93.92 C165.66,102.92 147.7,111.73 146.14,109.31 C144.58,106.89 160,94.16 173.94,85.16 C187.88,76.16 196.6,76.74 196.6,76.74 C196.6,76.74 193.53,84.93 179.59,93.92 Z" id="Path" fill="#68E1FD"></path><path d="M147.28,110.17 C146.693482,110.251601 146.105726,110.029308 145.72,109.58 C145.38,109.06 144.35,107.47 153.9,99.32 C160.183272,94.0603352 166.78588,89.1943768 173.67,84.75 C187.58,75.75 196.27,76.22 196.67,76.24 C196.828306,76.2530758 196.971953,76.3377906 197.06,76.47 C197.141783,76.6054328 197.160059,76.7699181 197.11,76.92 C196.98,77.26 193.82,85.36 179.9,94.34 L179.9,94.34 C170.63,100.3 152.88,110.17 147.28,110.17 Z M195.81,77.25 C193.43,77.35 185.53,78.25 174.21,85.58 C167.36291,90.0018201 160.796947,94.8444682 154.55,100.08 C147.55,106.08 146.25,108.56 146.55,109.08 C147.66,110.81 163.75,103.58 179.31,93.54 C190.64,86.2 194.74,79.38 195.81,77.25 L195.81,77.25 Z" id="Shape" fill="#231F20"></path><polygon id="Path" fill="#FFFFFF" points="199.52 160.09 146.84 176.35 170.66 194.94 222.47 177.51"></polygon><path d="M170.66,195.44 C170.547354,195.438578 170.438348,195.399899 170.35,195.33 L146.54,176.75 C146.390907,176.634384 146.317823,176.445904 146.35,176.26 C146.384993,176.077123 146.520611,175.929881 146.7,175.88 L199.37,159.61 C199.524012,159.560792 199.692385,159.590725 199.82,159.69 L222.77,177.11 C222.921306,177.219424 222.995421,177.406664 222.96,177.59 C222.94016,177.777443 222.810257,177.934901 222.63,177.99 L170.82,195.41 C170.768934,195.429644 170.714714,195.44 170.66,195.44 L170.66,195.44 Z M147.91,176.55 L170.76,194.38 L221.42,177.38 L199.42,160.68 L147.91,176.55 Z" id="Shape" fill="#E6E7E8"></path><path d="M99.75,115.190019 C84.34,115.190019 66.58,112.66 50.47,104.11 C50.3520165,104.050315 50.2631608,103.945483 50.2236154,103.819315 C50.1840701,103.693146 50.1971917,103.556351 50.26,103.44 C50.3216807,103.321339 50.428327,103.232333 50.5561072,103.192871 C50.6838875,103.153409 50.8221506,103.166782 50.94,103.23 C90.07,123.97 139.05,108.95 139.54,108.8 C139.714621,108.727692 139.915091,108.760026 140.058123,108.883568 C140.201155,109.00711 140.262303,109.200745 140.216162,109.384026 C140.170022,109.567307 140.024479,109.708908 139.84,109.75 C126.783922,113.366763 113.297771,115.196762 99.75,115.190019 Z" id="Path" fill="#E6E7E8"></path><path d="M91.08,124.700019 C58.89,124.700019 37.85,109.8 37.61,109.62 C37.5007762,109.543463 37.4266571,109.426461 37.4041223,109.295008 C37.3815875,109.163554 37.4125047,109.028546 37.49,108.92 C37.655608,108.70076 37.9651303,108.652121 38.19,108.81 C38.48,109.02 67.47,129.54 109.48,122.07 C109.658633,122.039632 109.839897,122.106871 109.955513,122.246388 C110.071128,122.385905 110.10353,122.576504 110.040513,122.746388 C109.977495,122.916272 109.828633,123.039632 109.65,123.07 C103.519962,124.158247 97.3058842,124.703694 91.08,124.700019 Z" id="Path" fill="#E6E7E8"></path><path d="M59.16,99.82 C59.0941774,99.8350024 59.0258226,99.8350024 58.96,99.82 C27.47,85.56 19.78,67.92 19.7,67.75 C19.6219963,67.5841761 19.6409563,67.3889665 19.7494128,67.2412529 C19.8578693,67.0935392 20.0384427,67.0169918 20.2200158,67.0417582 C20.4015888,67.0665245 20.5550653,67.188636 20.62,67.36 C20.62,67.36 22.51,71.75 28.2,77.79 C33.45,83.36 43.12,91.55 59.37,98.91 C59.6208767,99.0236063 59.7326521,99.3186934 59.62,99.57 C59.5228602,99.7300747 59.3471606,99.8255636 59.16,99.82 L59.16,99.82 Z" id="Path" fill="#E6E7E8"></path><path d="M115.43,105.52 C115.153858,105.52 114.93,105.296142 114.93,105.02 C114.93532,104.746092 115.156092,104.52532 115.43,104.52 C115.61,104.52 132.95,104.52 140.87,100.65 C141.032693,100.557455 141.233449,100.563527 141.390251,100.665735 C141.547054,100.767944 141.633639,100.94917 141.614635,101.135375 C141.59563,101.32158 141.474218,101.481577 141.3,101.55 C133.18,105.48 116.16,105.52 115.43,105.52 Z" id="Path" fill="#E6E7E8"></path><polygon id="Path" fill="#68E1FD" points="93.47 87.61 91.01 84.98 87.46 85.52 89.19 82.36 87.59 79.14 91.12 79.83 93.68 77.3 94.13 80.87 97.32 82.53 94.06 84.06"></polygon><polygon id="Path" fill="#68E1FD" points="126.19 90.79 124.67 89.17 122.47 89.5 123.55 87.55 122.55 85.56 124.74 85.98 126.32 84.42 126.6 86.63 128.57 87.65 126.56 88.6"></polygon><polygon id="Path" fill="#68E1FD" points="111.36 152.54 106.12 149.47 100.62 152.05 101.93 146.12 97.78 141.68 103.82 141.09 106.76 135.77 109.19 141.33 115.15 142.48 110.61 146.52"></polygon><polygon id="Path" fill="#68E1FD" points="74.83 115.3 71.57 111.82 66.85 112.53 69.16 108.35 67.02 104.09 71.71 104.99 75.1 101.64 75.69 106.38 79.93 108.57 75.61 110.6"></polygon><path d="M12.46,51.51 L164.95,18.1" id="Path" fill="#FFFFFF"></path><path d="M12.46,52 C12.1838576,52.0303756 11.9353757,51.8311424 11.905,51.555 C11.8746244,51.2788576 12.0738576,51.0303757 12.35,51 L164.84,17.61 C165.018633,17.5724871 165.203709,17.6331232 165.325513,17.7690673 C165.447316,17.9050114 165.487342,18.0956104 165.430513,18.2690673 C165.373683,18.4425243 165.228633,18.5724871 165.05,18.61 L12.57,52 L12.46,52 Z" id="Path" fill="#231F20"></path><circle id="Oval" fill="#68E1FD" cx="19.54" cy="44.5" r="2.03"></circle><circle id="Oval" fill="#E6E7E8" cx="26.8" cy="42.65" r="2.03"></circle><circle id="Oval" fill="#E6E7E8" cx="33.71" cy="41.06" r="2.03"></circle><rect id="Rectangle" fill="#E6E7E8" transform="translate(96.697195, 53.043709) rotate(-13.220000) translate(-96.697195, -53.043709) " x="44.8771954" y="47.6987088" width="103.64" height="10.69" rx="5.34"></rect></g></g></svg>